<svg width="33" height="33" viewBox="0 0 33 33" fill="none" xmlns="http://www.w3.org/2000/svg">
<path d="M17.0833 0H18.7917C22.4163 0 25.8925 1.43988 28.4555 4.00287C31.0185 6.56587 32.4583 10.042 32.4583 13.6667V15.375H17.0833V0ZM18.7917 13.6667H30.75C30.75 10.4951 29.4901 7.45347 27.2475 5.21085C25.0049 2.96823 21.9632 1.70833 18.7917 1.70833V13.6667ZM13.6667 18.7917H27.3333C27.3333 21.4947 26.5318 24.137 25.0301 26.3845C23.5284 28.6319 21.3939 30.3836 18.8967 31.418C16.3994 32.4524 13.6515 32.7231 11.0004 32.1957C8.34937 31.6684 5.9142 30.3668 4.00288 28.4555C2.09156 26.5441 0.789939 24.109 0.262607 21.4579C-0.264724 18.8068 0.00592151 16.0589 1.04032 13.5617C2.07472 11.0644 3.82641 8.92996 6.07388 7.42825C8.32135 5.92654 10.9637 5.125 13.6667 5.125V18.7917ZM11.9583 20.5V6.95292C8.97054 7.39073 6.25887 8.94238 4.36758 11.2965C2.47629 13.6505 1.54534 16.6328 1.76156 19.6448C1.97778 22.6567 3.32518 25.4755 5.53333 27.5353C7.74148 29.595 10.647 30.7435 13.6667 30.75C16.5427 30.7504 19.3225 29.7144 21.4968 27.8319C23.6711 25.9494 25.0942 23.3464 25.5054 20.5H11.9583Z" fill="#3D8568"/>
</svg>
