<svg width="14" height="12" viewBox="0 0 14 12" fill="none" xmlns="http://www.w3.org/2000/svg">
<path d="M14 3.2256V8.925C14 9.50609 13.7777 10.0652 13.3786 10.4876C12.9795 10.9099 12.434 11.1636 11.8538 11.1965L11.725 11.2H2.275C1.6939 11.2 1.13482 10.9777 0.712438 10.5786C0.290057 10.1795 0.0363991 9.63396 0.00350008 9.0538L0 8.925V3.2256L6.7564 6.7648C6.83156 6.80417 6.91515 6.82474 7 6.82474C7.08485 6.82474 7.16844 6.80417 7.2436 6.7648L14 3.2256ZM2.275 1.65236e-08H11.725C12.2889 -6.79103e-05 12.8327 0.209297 13.251 0.587487C13.6693 0.965677 13.9322 1.48574 13.9888 2.0468L7 5.7078L0.0112 2.0468C0.0654664 1.50802 0.310135 1.00626 0.701225 0.631724C1.09231 0.257186 1.60418 0.0344309 2.1448 0.0035001L2.275 1.65236e-08H11.725H2.275Z" fill="#3D8568"/>
</svg>
