<svg width="14" height="14" viewBox="0 0 14 14" fill="none" xmlns="http://www.w3.org/2000/svg">
<path d="M13.3474 2.21214L11.5379 0.404369C11.4103 0.276166 11.2586 0.174446 11.0915 0.105052C10.9244 0.0356575 10.7453 -4.33586e-05 10.5644 3.95186e-08C10.1957 3.95186e-08 9.84912 0.144418 9.58918 0.404369L7.64212 2.35146C7.51392 2.4791 7.4122 2.63081 7.34281 2.79788C7.27341 2.96495 7.23771 3.14409 7.23776 3.325C7.23776 3.69369 7.38217 4.04029 7.64212 4.30024L9.06588 5.72403C8.73261 6.45862 8.26926 7.1269 7.69819 7.6966C7.12855 8.26907 6.46034 8.73412 5.72564 9.06942L4.30188 7.64563C4.17424 7.51743 4.02253 7.41571 3.85546 7.34631C3.68839 7.27692 3.50926 7.24122 3.32835 7.24126C2.95967 7.24126 2.61307 7.38568 2.35312 7.64563L0.404364 9.59102C0.276006 9.7189 0.174199 9.87089 0.104803 10.0383C0.0354065 10.2056 -0.000210539 10.3851 9.36213e-07 10.5663C9.36213e-07 10.935 0.144416 11.2816 0.404364 11.5415L2.2104 13.3476C2.62496 13.7638 3.19753 14 3.78538 14C3.90941 14 4.02834 13.9898 4.14557 13.9694C6.43583 13.5922 8.70739 12.374 10.5406 10.5425C12.3721 8.71262 13.5886 6.44272 13.9709 4.14563C14.0864 3.44393 13.8537 2.72184 13.3474 2.21214Z" fill="#3D8568"/>
</svg>
