<svg width="125" height="20" viewBox="0 0 125 20" fill="none" xmlns="http://www.w3.org/2000/svg">
<path d="M11.7776 9.35418H4.75277V6.2696H11.6743C11.3643 5.27458 10.8478 4.57806 10.0214 4.08055C9.19491 3.58304 8.26516 3.38403 7.2321 3.38403C6.30235 3.38403 5.47591 3.58304 4.64946 3.88154C3.82301 4.18005 3.09987 4.67756 2.58334 5.27458L0.310616 3.08552C1.03376 2.0905 2.06681 1.39398 3.30648 0.896469C4.54615 0.398956 5.88913 0.199951 7.33541 0.199951C9.81475 0.199951 11.7776 0.896469 13.2238 2.2895C14.6701 3.68254 15.3933 5.57309 15.3933 7.96115C15.3933 10.3492 14.6701 12.2398 13.1205 13.7323C11.5709 15.1253 9.60814 15.8218 7.1288 15.8218C5.68252 15.8218 4.33954 15.5233 3.09987 15.0258C1.8602 14.4288 0.827145 13.6328 0.104004 12.6378L2.48004 10.7472C3.5131 12.1403 5.06268 12.7373 7.33541 12.7373C8.47177 12.7373 9.50483 12.4388 10.3313 11.9412C11.0544 11.2447 11.5709 10.4487 11.7776 9.35418Z" fill="#C7C7C7"/>
<path d="M27.2725 15.6218H23.9668V7.16414H20.7643V7.46264C20.7643 8.05966 20.7643 8.65667 20.7643 9.15419C20.7643 9.6517 20.661 10.2487 20.5577 10.9452C20.4544 11.6417 20.351 12.2388 20.1444 12.7363C19.9378 13.2338 19.7312 13.7313 19.4213 14.2288C19.1114 14.7263 18.6982 15.0248 18.1816 15.3233C17.6651 15.6218 17.0453 15.7213 16.4254 15.7213C16.0122 15.7213 15.599 15.7213 15.2891 15.6218V12.8358C15.3924 12.8358 15.4957 12.8358 15.7023 12.8358C16.2188 12.8358 16.632 12.6368 16.8386 12.3383C17.0453 12.0398 17.2519 11.5422 17.4585 10.9452C17.6651 10.0497 17.7684 8.65667 17.7684 6.76613V4.27856H27.3758V15.6218H27.2725Z" fill="#C7C7C7"/>
<path d="M38.1196 11.5422L40.0824 13.4327C38.8427 14.9253 37.1898 15.7213 35.0204 15.7213C33.1609 15.7213 31.6113 15.2238 30.4749 14.1292C29.3386 13.0347 28.7188 11.6417 28.7188 9.85063C28.7188 8.05958 29.2353 6.66655 30.3716 5.57202C31.508 4.47749 32.9543 3.97998 34.8138 3.97998C36.4667 3.97998 37.8097 4.47749 38.8427 5.37302C39.8758 6.36804 40.3923 7.56207 40.3923 9.15411C40.3923 9.55212 40.289 10.1491 40.1857 10.9452H32.1278C32.2311 11.5422 32.6444 11.9402 33.1609 12.2387C33.6774 12.5372 34.4006 12.6367 35.0204 12.6367C36.3634 12.8357 37.3964 12.4377 38.1196 11.5422ZM34.7105 6.86555C33.4708 6.86555 32.6444 7.36306 32.2311 8.35809H37.0865C36.7766 7.36306 35.9502 6.86555 34.7105 6.86555Z" fill="#C7C7C7"/>
<path d="M45.1447 15.6218H41.8389V4.27856H44.7314L48.3471 8.75618L52.0661 4.27856H54.7521V15.6218H51.4463V9.7512L48.3471 13.5323L45.0413 9.7512V15.6218H45.1447Z" fill="#C7C7C7"/>
<path d="M65.7026 11.5422L67.6654 13.4327C66.4257 14.9253 64.7728 15.7213 62.6034 15.7213C60.7439 15.7213 59.1943 15.2238 58.058 14.1292C56.9216 13.0347 56.3018 11.6417 56.3018 9.85063C56.3018 8.05958 56.8183 6.66655 57.9546 5.57202C59.091 4.47749 60.5373 3.97998 62.3968 3.97998C64.0497 3.97998 65.3927 4.47749 66.4257 5.37302C67.4588 6.36804 67.9753 7.56207 67.9753 9.15411C67.9753 9.55212 67.872 10.1491 67.7687 10.9452H59.7108C59.8142 11.5422 60.2274 11.9402 60.7439 12.2387C61.2604 12.5372 61.9836 12.6367 62.6034 12.6367C64.0497 12.8357 64.9794 12.4377 65.7026 11.5422ZM62.2935 6.86555C61.0538 6.86555 60.2274 7.36306 59.8142 8.35809H64.6695C64.3596 7.36306 63.5332 6.86555 62.2935 6.86555Z" fill="#C7C7C7"/>
<path d="M80.4749 15.6218H77.1691V11.3432H72.6237V15.6218H69.3179V4.27856H72.6237V8.45767H77.1691V4.27856H80.4749V15.6218Z" fill="#C7C7C7"/>
<path d="M85.6403 7.16403H81.6113V4.17896H92.975V7.16403H88.8427V15.5222H85.537V7.16403H85.6403Z" fill="#C7C7C7"/>
<path d="M116.322 19.9005H113.017V4.2786H116.322V4.87561C116.632 4.5771 117.046 4.3781 117.562 4.2786C118.079 4.17909 118.595 4.07959 119.008 4.07959C120.765 4.07959 122.211 4.5771 123.244 5.67163C124.277 6.76616 124.793 8.15919 124.793 9.75123C124.793 11.4428 124.277 12.9353 123.141 14.0298C122.108 15.1244 120.661 15.7214 118.905 15.7214C117.562 15.7214 116.632 15.5224 116.426 15.1244V19.9005H116.322ZM118.595 6.96516C117.562 6.96516 116.839 7.36317 116.322 8.25869V11.8408C116.529 12.1393 116.839 12.3383 117.252 12.5373C117.665 12.7363 118.079 12.8358 118.492 12.8358C119.422 12.8358 120.041 12.5373 120.661 12.0398C121.178 11.5423 121.488 10.8458 121.488 9.95024C121.488 9.05471 121.281 8.25869 120.765 7.76118C120.248 7.26367 119.525 6.96516 118.595 6.96516Z" fill="#C7C7C7"/>
<path d="M95.0415 7.96031C95.0415 5.77125 95.868 3.8807 97.4175 2.38817C98.9671 0.89563 100.93 0.0996094 103.203 0.0996094C104.752 0.0996094 106.302 0.497619 107.645 1.29364C108.988 2.08966 110.021 3.18419 110.641 4.57722C111.157 5.67175 111.364 6.76628 111.364 7.8608C111.364 10.0499 110.537 11.9404 108.988 13.4329C107.438 14.9255 105.475 15.7215 103.203 15.7215C100.93 15.7215 98.9671 14.9255 97.4175 13.4329C95.868 12.0399 95.0415 10.1494 95.0415 7.96031ZM100 4.67672C99.1737 5.57225 98.7605 6.66677 98.7605 7.96031C98.7605 9.25384 99.1737 10.3484 100 11.2439C100.827 12.1394 101.963 12.6369 103.203 12.6369C104.546 12.6369 105.682 12.2389 106.508 11.3434C107.335 10.4479 107.748 9.35334 107.748 8.05981C107.748 6.76628 107.335 5.67175 106.508 4.77623C105.682 3.8807 104.546 3.38319 103.306 3.38319C101.86 3.38319 100.827 3.7812 100 4.67672Z" fill="#C7C7C7"/>
<path d="M97.454 15.6958L95.0435 13.374L91.4641 16.8216L93.8747 19.1434L97.454 15.6958Z" fill="#C7C7C7"/>
</svg>
