<svg width="36.000000" height="36.000000" viewBox="0 0 36 36" fill="none" xmlns="http://www.w3.org/2000/svg" xmlns:xlink="http://www.w3.org/1999/xlink">
	<circle id="Ellipse 1" r="18.000000" transform="matrix(1 1.22465e-16 -1.22465e-16 1 18 18)" fill="#FFFFFF" fill-opacity="1.000000"/>
	<circle id="Ellipse 1" r="17.000000" transform="matrix(1 1.22465e-16 -1.22465e-16 1 18 18)" stroke="#3D8568" stroke-opacity="1.000000" stroke-width="2.000000"/>
	<path id="Vector" d="M20.81 24.82C21.06 24.6 21.06 24.23 20.81 24L14.48 18L20.81 11.99C21.06 11.76 21.06 11.39 20.81 11.17C20.57 10.94 20.18 10.94 19.94 11.17L13.18 17.58C13.06 17.7 13 17.85 13 18C13 18.14 13.06 18.29 13.18 18.41L19.94 24.82C20.18 25.05 20.57 25.05 20.81 24.82Z" fill="#3D8568" fill-opacity="1.000000" fill-rule="nonzero"/>
	<path id="Vector" d="M20.81 24L14.48 18L20.81 11.99C21.06 11.76 21.06 11.39 20.81 11.17C20.57 10.94 20.18 10.94 19.94 11.17L13.18 17.58C13.06 17.7 13 17.85 13 18C13 18.14 13.06 18.29 13.18 18.41L19.94 24.82C20.18 25.05 20.57 25.05 20.81 24.82C21.06 24.6 21.06 24.23 20.81 24Z" stroke="#3D8568" stroke-opacity="1.000000" stroke-width="1.000000"/>
</svg>
