<svg width="76.000000" height="76.000000" viewBox="0 0 76 76" fill="none" xmlns="http://www.w3.org/2000/svg" xmlns:xlink="http://www.w3.org/1999/xlink">
	<desc>
			Created with Pixso.
	</desc>
	<defs>
		<filter id="filter_1_671_dd" x="0.000000" y="0.000000" width="76.000000" height="76.000000" filterUnits="userSpaceOnUse" color-interpolation-filters="sRGB">
			<feFlood flood-opacity="0" result="BackgroundImageFix"/>
			<feColorMatrix in="SourceAlpha" type="matrix" values="0 0 0 0 0 0 0 0 0 0 0 0 0 0 0 0 0 0 127 0" result="hardAlpha"/>
			<feOffset dx="0" dy="4"/>
			<feGaussianBlur stdDeviation="6.66667"/>
			<feComposite in2="hardAlpha" operator="out" k2="-1" k3="1"/>
			<feColorMatrix type="matrix" values="0 0 0 0 0.23922 0 0 0 0 0.52157 0 0 0 0 0.40784 0 0 0 0.2 0"/>
			<feBlend mode="normal" in2="BackgroundImageFix" result="effect_dropShadow_1"/>
			<feBlend mode="normal" in="SourceGraphic" in2="effect_dropShadow_1" result="shape"/>
		</filter>
	</defs>
	<g filter="url(#filter_1_671_dd)">
		<circle id="Ellipse 1" r="18.000000" transform="matrix(-1 8.74228e-08 -8.74228e-08 -1 38 34)" fill="#3D8568" fill-opacity="1.000000"/>
		<circle id="Ellipse 1" r="17.000000" transform="matrix(-1 8.74228e-08 -8.74228e-08 -1 38 34)" stroke="#3D8568" stroke-opacity="1.000000" stroke-width="2.000000"/>
	</g>
	<path id="Vector" d="M35.18 27.17C34.93 27.39 34.93 27.76 35.18 27.99L41.51 34L35.18 40C34.93 40.23 34.93 40.6 35.18 40.82C35.42 41.05 35.8 41.05 36.05 40.82L42.81 34.41C42.93 34.29 43 34.14 43 34C43 33.85 42.93 33.7 42.81 33.58L36.05 27.17C35.8 26.94 35.42 26.94 35.18 27.17Z" fill="#FFFFFF" fill-opacity="1.000000" fill-rule="nonzero"/>
	<path id="Vector" d="M35.18 27.99L41.51 34L35.18 40C34.93 40.23 34.93 40.6 35.18 40.82C35.42 41.05 35.8 41.05 36.05 40.82L42.81 34.41C42.93 34.29 43 34.14 43 34C43 33.85 42.93 33.7 42.81 33.58L36.05 27.17C35.8 26.94 35.42 26.94 35.18 27.17C34.93 27.39 34.93 27.76 35.18 27.99Z" stroke="#FFFFFF" stroke-opacity="1.000000" stroke-width="1.000000"/>
</svg>
