<svg width="17" height="16" viewBox="0 0 17 16" fill="none" xmlns="http://www.w3.org/2000/svg">
<path d="M4.84922 13.1822L2.93103 11.3316L0.0505982 14.1106L1.96878 15.9613L4.84922 13.1822Z" fill="#95C2B0"/>
<path fill-rule="evenodd" clip-rule="evenodd" d="M9.39624 10.6652C11.6083 10.6652 13.4016 8.87455 13.4016 6.66573C13.4016 4.4569 11.6083 2.66629 9.39624 2.66629C7.18416 2.66629 5.39092 4.4569 5.39092 6.66573C5.39092 8.87455 7.18416 10.6652 9.39624 10.6652ZM9.39624 13.3315C13.083 13.3315 16.0718 10.3471 16.0718 6.66573C16.0718 2.98435 13.083 0 9.39624 0C5.70944 0 2.7207 2.98435 2.7207 6.66573C2.7207 10.3471 5.70944 13.3315 9.39624 13.3315Z" fill="#95C2B0"/>
</svg>
