<svg width="41" height="40" viewBox="0 0 41 40" fill="none" xmlns="http://www.w3.org/2000/svg">
<g clip-path="url(#clip0)">
<path d="M3.48412 10.8497C3.48412 13.4405 5.59503 15.5483 8.1897 15.5483C10.7844 15.5483 12.8953 13.4404 12.8953 10.8497C12.8953 8.25873 10.7844 6.151 8.1897 6.151C5.59503 6.151 3.48412 8.25881 3.48412 10.8497ZM11.7216 10.8497C11.7216 12.7943 10.1372 14.3764 8.1897 14.3764C6.24223 14.3764 4.65779 12.7943 4.65779 10.8497C4.65779 8.90498 6.24223 7.32288 8.1897 7.32288C10.1372 7.32288 11.7216 8.90506 11.7216 10.8497Z" fill="#3D8568"/>
<path d="M32.0755 11.668C32.0647 11.6673 32.0539 11.667 32.0429 11.667C27.5814 11.667 23.9517 15.2921 23.9517 19.748C23.9517 22.1894 25.2053 24.0999 26.6019 26.0031C26.6057 26.0083 26.6096 26.0134 26.6135 26.0184L30.3005 30.7113C29.4126 31.2226 28.7694 32.1109 28.5921 33.1561H2.59769C1.85527 33.1561 1.25125 32.553 1.25125 31.8116C1.25125 31.0702 1.85527 30.4671 2.59769 30.4671H21.9266C23.6792 30.4671 25.1052 29.0433 25.1052 27.2931C25.1052 25.543 23.6793 24.1191 21.9266 24.1191H11.6414C11.4687 23.1016 10.8551 22.2318 10.0033 21.7148L13.473 17.298L13.6194 17.1121C13.8196 16.8577 13.7754 16.4893 13.5205 16.2893C13.2657 16.0895 12.8969 16.1336 12.6966 16.388L8.85869 21.2731C8.64204 21.2311 8.41851 21.2084 8.18966 21.2084C7.96072 21.2084 7.73711 21.2311 7.52039 21.2732L3.68866 16.3959C2.36547 14.593 1.27121 12.9298 1.27121 10.8412C1.27121 7.03211 4.37436 3.93312 8.1895 3.93312C12.0047 3.93312 15.1086 7.03211 15.1086 10.8412C15.1086 11.92 14.8221 12.9541 14.2069 14.0958C14.0533 14.3808 14.1601 14.7361 14.4456 14.8895C14.7309 15.0428 15.0868 14.9362 15.2404 14.6511C15.9512 13.332 16.2823 12.1215 16.2823 10.8412C16.2823 6.38586 12.6518 2.76117 8.18872 2.76117C3.72732 2.76125 0.0976051 6.38593 0.0976051 10.8413C0.0976051 13.2843 1.35117 15.1941 2.74783 17.0966C2.75158 17.1017 2.7555 17.1069 2.75941 17.1118L6.3759 21.7151C5.36472 22.329 4.68795 23.4396 4.68795 24.7052C4.68795 26.6333 6.25885 28.2019 8.18973 28.2019C9.92064 28.2019 11.3613 26.9411 11.6414 25.2911H21.9266C23.0322 25.2911 23.9315 26.1892 23.9315 27.2931C23.9315 28.397 23.0321 29.2952 21.9266 29.2952H2.59769C1.20807 29.2952 0.0775757 30.424 0.0775757 31.8116C0.0775757 33.1991 1.20807 34.328 2.59769 34.328H28.5921C28.8722 35.9779 30.3129 37.2387 32.0438 37.2387C33.9747 37.2387 35.5456 35.6701 35.5456 33.742C35.5456 32.4474 34.8369 31.3158 33.787 30.7113L37.4737 26.0187C37.6739 25.7642 37.6295 25.3959 37.3747 25.1959C37.1198 24.996 36.7509 25.0403 36.5506 25.2948L32.6231 30.2941C32.4345 30.2626 32.2411 30.2453 32.0437 30.2453C31.8463 30.2453 31.6529 30.2625 31.4643 30.2941L27.5428 25.3027C26.2197 23.4991 25.1253 21.8351 25.1253 19.748C25.1253 15.9481 28.2124 12.8548 32.0133 12.8391C32.0234 12.8396 32.0335 12.8398 32.0436 12.8398C35.8588 12.8398 38.9628 15.9388 38.9628 19.748C38.9628 20.8274 38.676 21.8614 38.0604 23.0022C37.9066 23.2871 38.0133 23.6425 38.2986 23.796C38.5838 23.9494 38.9399 23.843 39.0936 23.5581C39.805 22.2398 40.1365 21.0291 40.1365 19.748C40.1365 15.3032 36.5233 11.6852 32.0755 11.668ZM8.18973 27.03C6.90597 27.03 5.86155 25.9871 5.86155 24.7052C5.86155 23.4234 6.90597 22.3805 8.18973 22.3805C9.45863 22.3805 10.493 23.3995 10.5167 24.661C10.5157 24.6757 10.5145 24.6903 10.5145 24.7052C10.5145 24.7202 10.5157 24.7348 10.5167 24.7495C10.493 26.0109 9.45863 27.03 8.18973 27.03ZM34.372 33.7421C34.372 35.024 33.3275 36.0668 32.0438 36.0668C30.76 36.0668 29.7156 35.024 29.7156 33.7421C29.7156 32.4602 30.76 31.4173 32.0438 31.4173C33.3275 31.4173 34.372 32.4602 34.372 33.7421Z" fill="#3D8568"/>
<path d="M27.3383 19.756C27.3383 22.3469 29.4492 24.4546 32.0438 24.4546C34.6386 24.4546 36.7494 22.3468 36.7494 19.756C36.7494 17.1651 34.6385 15.0573 32.0438 15.0573C29.4492 15.0573 27.3383 17.1651 27.3383 19.756ZM35.5758 19.756C35.5758 21.7006 33.9914 23.2827 32.0438 23.2827C30.0964 23.2827 28.5119 21.7006 28.5119 19.756C28.5119 17.8113 30.0964 16.2292 32.0438 16.2292C33.9914 16.2292 35.5758 17.8113 35.5758 19.756Z" fill="#3D8568"/>
</g>
<defs>
<clipPath id="clip0">
<rect width="40.0589" height="40" fill="white" transform="translate(0.0775757)"/>
</clipPath>
</defs>
</svg>
