<svg width="46" height="33" viewBox="0 0 46 33" fill="none" xmlns="http://www.w3.org/2000/svg">
<path d="M45.0432 20.7256C44.6785 20.7256 44.383 21.0207 44.383 21.3847V24.7248C44.383 25.7685 43.5328 26.6176 42.4876 26.6176H40.0141C39.4148 26.6176 38.9273 27.1044 38.9273 27.7027V31.1588L33.9819 26.8824C33.7845 26.7116 33.5318 26.6176 33.2705 26.6176H25.9235C25.5588 26.6176 25.2633 26.9127 25.2633 27.2767C25.2633 27.6408 25.5588 27.9359 25.9235 27.9359H33.1835L38.4494 32.4895C39.1375 33.0848 40.2476 32.5803 40.2476 31.6693V27.9359H42.4875C44.2608 27.9359 45.7033 26.4955 45.7033 24.7248V21.3847C45.7033 21.0207 45.4079 20.7256 45.0432 20.7256Z" fill="#3D8568"/>
<path d="M42.4875 8.15818H29.4832V3.46368C29.4832 1.69313 28.0406 0.252686 26.2675 0.252686H9.93953C9.57495 0.252686 9.27938 0.547822 9.27938 0.911865C9.27938 1.27591 9.57495 1.57104 9.93953 1.57104H26.2674C27.3126 1.57104 28.1628 2.42007 28.1628 3.46368V16.8193C28.1628 17.8629 27.3126 18.7119 26.2674 18.7119H13.0697C12.8085 18.7119 12.5558 18.806 12.3582 18.9768L7.41292 23.2532V19.7972C7.41292 19.1988 6.92538 18.712 6.32614 18.712H3.85269C2.80754 18.712 1.95726 17.863 1.95726 16.8194V3.46368C1.95726 2.42007 2.80754 1.57104 3.85269 1.57104H7.06242C7.427 1.57104 7.72257 1.27591 7.72257 0.911865C7.72257 0.547822 7.427 0.252686 7.06242 0.252686H3.85269C2.07952 0.252686 0.636963 1.69313 0.636963 3.46368V16.8193C0.636963 18.5898 2.07952 20.0303 3.85269 20.0303H6.09262V23.7636C6.09262 24.674 7.20193 25.1796 7.89078 24.5839L13.1568 20.0303H16.8569V24.7248C16.8569 26.4954 18.2995 27.9359 20.0727 27.9359H23.0462C23.4108 27.9359 23.7064 27.6407 23.7064 27.2767C23.7064 26.9126 23.4108 26.6175 23.0462 26.6175H20.0727C19.0275 26.6175 18.1772 25.7684 18.1772 24.7248V20.0303H26.2674C28.0406 20.0303 29.4831 18.5898 29.4831 16.8193V9.47654H42.4874C43.5325 9.47654 44.3828 10.3257 44.3828 11.3693V18.512C44.3828 18.876 44.6783 19.1711 45.043 19.1711C45.4076 19.1711 45.7031 18.876 45.7031 18.512V11.3693C45.7032 9.59871 44.2606 8.15818 42.4875 8.15818Z" fill="#3D8568"/>
<path d="M32.5294 13.4741H40.686C41.0507 13.4741 41.3461 13.179 41.3461 12.8149C41.3461 12.4509 41.0507 12.1558 40.686 12.1558H32.5294C32.1648 12.1558 31.8693 12.4509 31.8693 12.8149C31.8693 13.179 32.1648 13.4741 32.5294 13.4741Z" fill="#3D8568"/>
<path d="M32.5294 18.3846H40.686C41.0507 18.3846 41.3461 18.0894 41.3461 17.7254C41.3461 17.3614 41.0507 17.0662 40.686 17.0662H32.5294C32.1648 17.0662 31.8693 17.3614 31.8693 17.7254C31.8693 18.0895 32.1648 18.3846 32.5294 18.3846Z" fill="#3D8568"/>
<path d="M21.1308 22.636C21.1308 23 21.4264 23.2952 21.791 23.2952H40.686C41.0506 23.2952 41.3461 23 41.3461 22.636C41.3461 22.2719 41.0506 21.9768 40.686 21.9768H21.791C21.4264 21.9768 21.1308 22.2719 21.1308 22.636Z" fill="#3D8568"/>
<path d="M15.0592 15.5521C15.4273 15.5521 15.7257 15.2537 15.7257 14.8856C15.7257 14.5175 15.4273 14.2191 15.0592 14.2191C14.6912 14.2191 14.3928 14.5175 14.3928 14.8856C14.3928 15.2537 14.6912 15.5521 15.0592 15.5521Z" fill="#3D8568"/>
<path d="M18.2 6.99078C18.1151 5.35655 16.7641 4.05067 15.1244 4.01771C13.5309 3.98484 12.1654 5.14737 11.9456 6.71999C11.9255 6.86387 11.9153 7.01091 11.9153 7.15699C11.9153 7.52103 12.2109 7.81617 12.5755 7.81617C12.9401 7.81617 13.2356 7.52103 13.2356 7.15699C13.2356 7.07156 13.2415 6.98577 13.2532 6.9021C13.3806 5.99059 14.1738 5.31761 15.0978 5.33589C16.0488 5.35496 16.8322 6.11197 16.8815 7.05916C16.9077 7.56471 16.7306 8.04468 16.3827 8.41057C16.0345 8.77681 15.5647 8.97843 15.0598 8.97843C14.6953 8.97843 14.3997 9.27357 14.3997 9.63761V12.2316C14.3997 12.5957 14.6953 12.8908 15.0598 12.8908C15.4244 12.8908 15.72 12.5957 15.72 12.2316V10.226C16.3339 10.0933 16.9027 9.77841 17.3402 9.3183C17.9399 8.68751 18.2452 7.8609 18.2 6.99078Z" fill="#3D8568"/>
</svg>
