<svg width="41" height="40" viewBox="0 0 41 40" fill="none" xmlns="http://www.w3.org/2000/svg">
<path d="M33.0914 9.39368C32.7673 9.39368 32.5046 9.65602 32.5046 9.97962V36.2829C32.5046 36.3051 32.4865 36.3232 32.4642 36.3232H11.7672C11.4431 36.3232 11.1804 36.5855 11.1804 36.9091C11.1804 37.2327 11.4431 37.4951 11.7672 37.4951H32.4642C33.1336 37.4951 33.6782 36.9513 33.6782 36.2829V9.97962C33.6782 9.65602 33.4154 9.39368 33.0914 9.39368Z" fill="white"/>
<path d="M34.973 2.505H29.5713L27.602 0.538517C27.2542 0.19125 26.7919 0 26.3 0H6.12254C5.45312 0 4.90857 0.543751 4.90857 1.21219V36.2828C4.90857 36.9512 5.45312 37.495 6.12254 37.495H7.41726V38.7878C7.41726 39.4562 7.96181 40 8.63124 40H34.973C35.6424 40 36.1869 39.4562 36.1869 38.7878V3.71727C36.1869 3.04883 35.6424 2.505 34.973 2.505ZM26.7792 1.37422L32.3019 6.88884H26.8196C26.7973 6.88884 26.7792 6.8708 26.7792 6.84853V1.37422ZM35.0133 38.7879C35.0133 38.8102 34.9953 38.8282 34.973 38.8282H8.63124C8.60894 38.8282 8.59086 38.8102 8.59086 38.7879V37.4951H9.25825C9.58232 37.4951 9.84505 37.2327 9.84505 36.9091C9.84505 36.5855 9.58232 36.3232 9.25825 36.3232H6.12254C6.10024 36.3232 6.08217 36.3052 6.08217 36.2829V1.21219C6.08217 1.18992 6.10024 1.17188 6.12254 1.17188H25.6056V6.84853C25.6056 7.51697 26.1501 8.06072 26.8196 8.06072H33.0914C33.4155 8.06072 33.6783 7.79838 33.6783 7.47478V7.36736C33.6783 6.87634 33.4867 6.41462 33.1389 6.06736L30.7449 3.67688H34.973C34.9953 3.67688 35.0133 3.69493 35.0133 3.7172V38.7879Z" fill="white"/>
<path d="M16.5724 6.69376C16.3433 6.46493 15.9717 6.46493 15.7426 6.69376L12.423 10.0085C12.4072 10.0242 12.3816 10.0242 12.3659 10.0085L11.0425 8.68713H12.0612C12.3853 8.68713 12.648 8.42478 12.648 8.10119C12.648 7.77759 12.3853 7.51525 12.0612 7.51525H10.5128C10.3252 7.51525 10.1481 7.55923 9.98924 7.63548L9.67338 7.32009C9.44422 7.09126 9.07265 7.09126 8.84357 7.32009C8.6144 7.54892 8.6144 7.91994 8.84357 8.14869L9.30487 8.60931C9.30112 8.64814 9.29892 8.68752 9.29892 8.72736V12.4849C9.29892 13.1534 9.84348 13.6971 10.5129 13.6971H14.276C14.9454 13.6971 15.49 13.1534 15.49 12.4849V8.60322L16.5724 7.52236C16.8016 7.29353 16.8016 6.92251 16.5724 6.69376ZM14.3164 12.485C14.3164 12.5073 14.2983 12.5253 14.276 12.5253H10.5129C10.4906 12.5253 10.4725 12.5073 10.4725 12.485V9.7751L11.536 10.8371C11.7727 11.0734 12.0836 11.1916 12.3945 11.1916C12.7053 11.1916 13.0162 11.0734 13.2529 10.8371L14.3164 9.7751V12.485Z" fill="white"/>
<path d="M14.2757 15.6564H10.5126C9.84314 15.6564 9.29858 16.2002 9.29858 16.8686V20.6262C9.29858 21.2947 9.84314 21.8384 10.5126 21.8384H14.2757C14.9451 21.8384 15.4897 21.2947 15.4897 20.6262V16.8686C15.4897 16.2003 14.9451 15.6564 14.2757 15.6564ZM14.3161 20.6262C14.3161 20.6485 14.298 20.6665 14.2757 20.6665H10.5126C10.4903 20.6665 10.4722 20.6485 10.4722 20.6262V16.8686C10.4722 16.8464 10.4903 16.8283 10.5126 16.8283H14.2757C14.298 16.8283 14.3161 16.8464 14.3161 16.8686V20.6262Z" fill="white"/>
<path d="M14.2757 23.7979H10.5126C9.84314 23.7979 9.29858 24.3417 9.29858 25.0101V28.7677C9.29858 29.4361 9.84314 29.9799 10.5126 29.9799H14.2757C14.9451 29.9799 15.4897 29.436 15.4897 28.7677V25.0101C15.4897 24.3417 14.9451 23.7979 14.2757 23.7979ZM14.3161 28.7677C14.3161 28.79 14.298 28.808 14.2757 28.808H10.5126C10.4903 28.808 10.4722 28.7899 10.4722 28.7677V25.0101C10.4722 24.9878 10.4903 24.9698 10.5126 24.9698H14.2757C14.298 24.9698 14.3161 24.9878 14.3161 25.0101V28.7677Z" fill="white"/>
<path d="M23.6835 8.76761H18.0388C17.7148 8.76761 17.452 9.02995 17.452 9.35355C17.452 9.67714 17.7147 9.93949 18.0388 9.93949H23.6835C24.0075 9.93949 24.2703 9.67714 24.2703 9.35355C24.2703 9.02995 24.0075 8.76761 23.6835 8.76761Z" fill="white"/>
<path d="M28.7009 11.2727H18.0388C17.7148 11.2727 17.452 11.5351 17.452 11.8587C17.452 12.1823 17.7147 12.4446 18.0388 12.4446H28.7009C29.025 12.4446 29.2877 12.1823 29.2877 11.8587C29.2877 11.5351 29.0251 11.2727 28.7009 11.2727Z" fill="white"/>
<path d="M23.6835 16.9091H18.0388C17.7148 16.9091 17.452 17.1714 17.452 17.495C17.452 17.8186 17.7147 18.0809 18.0388 18.0809H23.6835C24.0075 18.0809 24.2703 17.8186 24.2703 17.495C24.2703 17.1714 24.0075 16.9091 23.6835 16.9091Z" fill="white"/>
<path d="M28.7009 19.4141H18.0388C17.7148 19.4141 17.452 19.6764 17.452 20C17.452 20.3236 17.7147 20.586 18.0388 20.586H28.7009C29.025 20.586 29.2877 20.3236 29.2877 20C29.2877 19.6764 29.0251 19.4141 28.7009 19.4141Z" fill="white"/>
<path d="M23.6835 25.0504H18.0388C17.7148 25.0504 17.452 25.3128 17.452 25.6364C17.452 25.9599 17.7147 26.2223 18.0388 26.2223H23.6835C24.0075 26.2223 24.2703 25.9599 24.2703 25.6364C24.2703 25.3128 24.0075 25.0504 23.6835 25.0504Z" fill="white"/>
<path d="M28.7009 27.5555H18.0388C17.7148 27.5555 17.452 27.8178 17.452 28.1414C17.452 28.465 17.7147 28.7274 18.0388 28.7274H28.7009C29.025 28.7274 29.2877 28.465 29.2877 28.1414C29.2877 27.8178 29.0251 27.5555 28.7009 27.5555Z" fill="white"/>
</svg>
