<svg width="17" height="16" viewBox="0 0 17 16" fill="none" xmlns="http://www.w3.org/2000/svg">
<path d="M5.21471 13.1822L3.29652 11.3316L0.416092 14.1106L2.33428 15.9612L5.21471 13.1822Z" fill="#3D8568"/>
<path fill-rule="evenodd" clip-rule="evenodd" d="M9.76177 10.6652C11.9738 10.6652 13.7671 8.87455 13.7671 6.66573C13.7671 4.4569 11.9738 2.66629 9.76177 2.66629C7.54969 2.66629 5.75644 4.4569 5.75644 6.66573C5.75644 8.87455 7.54969 10.6652 9.76177 10.6652ZM9.76177 13.3315C13.4486 13.3315 16.4373 10.3471 16.4373 6.66573C16.4373 2.98435 13.4486 0 9.76177 0C6.07497 0 3.08623 2.98435 3.08623 6.66573C3.08623 10.3471 6.07497 13.3315 9.76177 13.3315Z" fill="#3D8568"/>
</svg>
