<svg width="41" height="40" viewBox="0 0 41 40" fill="none" xmlns="http://www.w3.org/2000/svg">
<g clip-path="url(#clip0)">
<path d="M29.647 32.4321C29.3226 32.4364 29.0632 32.7024 29.0675 33.0262C29.085 34.349 28.4767 35.631 27.4406 36.4554C27.3007 36.5666 27.2193 36.7355 27.2193 36.9141V39.4371C27.2193 40.171 28.3939 40.2044 28.3939 39.4371V37.1867C29.5767 36.137 30.263 34.597 30.2421 33.0109C30.2377 32.6869 29.9704 32.4251 29.647 32.4321Z" fill="white"/>
<path d="M27.5243 28.1218V26.8299C28.3481 26.8995 29.006 27.5907 29.0171 28.4303L29.0376 29.8701C29.0485 30.6362 30.2231 30.6198 30.2121 29.8534L30.1916 28.4143C30.1715 26.8934 28.9161 25.6538 27.3931 25.6508L22.5612 25.6415V24.2863C24.5732 23.5424 25.993 21.676 26.1463 19.5119C26.4855 15.2452 21.8117 12.2203 18.055 14.2679C17.4069 14.614 17.9314 15.664 18.609 15.3023C19.3271 14.9188 20.1382 14.7466 20.9554 14.8044C23.3402 14.9728 25.1433 17.0476 24.9746 19.4292C24.8646 20.982 23.926 22.3401 22.5612 23.0112V19.9847C22.5612 18.8995 21.6947 17.9876 20.6296 17.9521C19.5139 17.9129 18.5623 18.8339 18.5623 19.9478V22.9222C17.0971 22.1232 16.2029 20.536 16.3245 18.8183C16.3634 18.268 16.5034 17.7394 16.7405 17.2473C17.0592 16.5859 16.015 16.0474 15.6819 16.7388C14.2902 19.5157 15.679 23.1121 18.5622 24.2184V30.1521L16.9609 28.2132C16.2748 27.3701 14.9517 27.2874 14.136 27.9815C13.2969 28.6957 13.1962 29.9584 13.908 30.7924L18.7109 36.5205V39.4371C18.7109 40.171 19.8856 40.2044 19.8856 39.4371V36.3075C19.8856 36.1698 19.8371 36.0365 19.7486 35.931L14.8054 30.0355C14.5103 29.6898 14.5519 29.1688 14.8981 28.8741C15.2394 28.5837 15.7657 28.6242 16.0581 28.9636L18.6964 32.1583C19.0396 32.5739 19.7368 32.3239 19.7368 31.7852V19.9477C19.7368 19.4863 20.1295 19.1096 20.5903 19.1244C21.0293 19.1391 21.3865 19.525 21.3865 19.9847V28.1218C21.3865 28.8557 22.5611 28.8891 22.5611 28.1218V26.8144L23.868 26.8169V28.1218C23.868 28.8557 25.0426 28.8891 25.0426 28.1218V26.8192L26.3495 26.8217V28.1218C26.3496 28.8557 27.5243 28.8891 27.5243 28.1218Z" fill="white"/>
<path d="M37.5415 17.0462C36.5983 17.0462 35.8001 17.6766 35.5459 18.5375H29.271C29.1527 16.7845 28.5027 15.1589 27.472 13.8343L29.4027 11.9062H32.4195C32.6839 12.9875 33.662 13.7925 34.825 13.7925C38.11 13.6566 38.1089 8.98233 34.825 8.84705C33.662 8.84705 32.6839 9.652 32.4195 10.7333H29.7467V7.42061C30.6088 7.16678 31.2399 6.36966 31.2399 5.42771C31.1256 2.67123 27.1926 2.67209 27.0787 5.42771C27.0787 6.36966 27.71 7.16678 28.572 7.42061V11.0769L26.689 12.9575C25.275 11.5741 23.3824 10.6646 21.2577 10.5146C21.2503 10.514 21.2428 10.5137 21.2353 10.5132V4.86243C22.3181 4.59837 23.124 3.62162 23.124 2.46018C22.988 -0.820283 18.3074 -0.819188 18.1719 2.46018C18.1719 3.62162 18.9779 4.59837 20.0607 4.86243V10.5125C18.019 10.6493 16.0667 11.5265 14.604 12.9544L12.7239 11.0769V7.42061C13.5859 7.16678 14.2171 6.36966 14.2171 5.42771C14.1028 2.67123 10.1698 2.67209 10.0559 5.42771C10.0559 6.36966 10.6871 7.16678 11.5491 7.42061V10.7333H8.88266C8.61829 9.652 7.64018 8.84705 6.47719 8.84705C3.19221 8.98288 3.1933 13.6572 6.47719 13.7925C7.64018 13.7925 8.61829 12.9875 8.88266 11.9062H11.8932L13.8202 13.8306C12.7754 15.1715 12.1484 16.7933 12.0265 18.515C12.0259 18.5225 12.0257 18.53 12.0251 18.5375H5.77317C5.51906 17.6766 4.72083 17.0463 3.7775 17.0463C1.01728 17.1604 1.01814 21.088 3.7775 21.2018C4.72075 21.2018 5.51898 20.5714 5.7731 19.7105H12.0239C12.1474 21.577 12.8714 23.3441 14.1204 24.7812C14.5591 25.286 15.0534 25.7385 15.5896 26.1262C16.1949 26.5639 16.8943 25.6214 16.2785 25.1762C15.8151 24.841 15.3875 24.4496 15.0076 24.0125C10.81 19.2563 14.3325 11.6728 20.643 11.6659C24.9131 11.6659 28.399 15.3956 28.0977 19.6502C28.0016 21.0059 27.5395 22.3063 26.7613 23.4107C26.3383 24.0109 27.2798 24.7134 27.722 24.0857C28.6233 22.8067 29.1584 21.3015 29.2696 19.7329C29.2701 19.7255 29.2703 19.7181 29.2709 19.7105H35.546C36.2655 21.9813 39.5641 21.5316 39.6223 19.1241C39.6222 17.9783 38.6888 17.0462 37.5415 17.0462ZM11.2307 5.42763C11.2307 4.92874 11.637 4.52283 12.1366 4.52283C13.3384 4.57256 13.3381 6.28294 12.1366 6.33251C11.6371 6.33251 11.2307 5.9266 11.2307 5.42763ZM6.47727 12.6195C5.75963 12.6195 5.17582 12.0364 5.17582 11.3198C5.24732 9.59546 7.70745 9.59586 7.77864 11.3198C7.77864 12.0364 7.19483 12.6195 6.47727 12.6195ZM3.77758 20.0288C3.27803 20.0288 2.87168 19.6229 2.87168 19.124C2.92141 17.9236 4.63399 17.924 4.68356 19.124C4.68348 19.6229 4.27712 20.0288 3.77758 20.0288ZM19.3466 2.46018C19.3466 1.74344 19.9304 1.16041 20.648 1.16041C22.3744 1.23181 22.374 3.68879 20.648 3.75995C19.9304 3.75995 19.3466 3.17685 19.3466 2.46018ZM34.825 10.02C35.5427 10.02 36.1265 10.6031 36.1265 11.3198C36.055 13.0441 33.5948 13.0437 33.5236 11.3198C33.5236 10.603 34.1074 10.02 34.825 10.02ZM28.2534 5.42763C28.2534 4.92874 28.6598 4.52283 29.1593 4.52283C30.3611 4.57256 30.3608 6.28294 29.1593 6.33251C28.6598 6.33251 28.2534 5.9266 28.2534 5.42763ZM37.5415 20.0288C37.042 20.0288 36.6356 19.6229 36.6356 19.124C36.6854 17.9236 38.3979 17.924 38.4476 19.124C38.4475 19.6229 38.0411 20.0288 37.5415 20.0288Z" fill="white"/>
</g>
<defs>
<clipPath id="clip0">
<rect width="40.0589" height="40" fill="white" transform="translate(0.636963)"/>
</clipPath>
</defs>
</svg>
