<svg width="45" height="45" viewBox="0 0 45 45" fill="none" xmlns="http://www.w3.org/2000/svg">
<path d="M26.0156 1.40625C25.8291 1.40625 25.6503 1.48033 25.5184 1.61219C25.3866 1.74405 25.3125 1.9229 25.3125 2.10938V9.14062C25.3125 9.3271 25.3866 9.50595 25.5184 9.63781C25.6503 9.76967 25.8291 9.84375 26.0156 9.84375C28.439 9.84649 30.7624 10.8104 32.476 12.524C34.1896 14.2376 35.1535 16.561 35.1562 18.9844C35.1563 19.1709 35.2303 19.3497 35.3622 19.4816C35.4941 19.6134 35.6729 19.6875 35.8594 19.6875H42.8906C43.0771 19.6875 43.2559 19.6134 43.3878 19.4816C43.5197 19.3497 43.5937 19.1709 43.5938 18.9844C43.5938 9.29177 35.7082 1.40625 26.0156 1.40625ZM36.5393 18.2812C36.3656 15.7339 35.2751 13.3357 33.4697 11.5303C31.6643 9.7249 29.2661 8.63444 26.7188 8.46067V2.82761C35.0777 3.18707 41.8129 9.92228 42.1724 18.2812H36.5393Z" fill="#3D8568"/>
<path d="M1.40625 3.51562H2.8125V4.92188H1.40625V3.51562Z" fill="#3D8568"/>
<path d="M4.21875 3.51562H7.73438V4.92188H4.21875V3.51562Z" fill="#3D8568"/>
<path d="M32.071 37.2368C34.5278 35.6421 36.5472 33.4587 37.9455 30.885C39.3439 28.3113 40.077 25.429 40.0781 22.5C40.0781 22.3135 40.004 22.1347 39.8722 22.0028C39.7403 21.871 39.5615 21.7969 39.375 21.7969H32.3438C32.1573 21.7969 31.9784 21.871 31.8466 22.0028C31.7147 22.1347 31.6406 22.3135 31.6406 22.5C31.6406 24.3079 31.1045 26.0751 30.1002 27.5783C29.0958 29.0814 27.6682 30.253 25.998 30.9448C24.3277 31.6367 22.4899 31.8177 20.7168 31.465C18.9436 31.1123 17.3149 30.2417 16.0366 28.9634C14.7583 27.6851 13.8877 26.0564 13.535 24.2833C13.1823 22.5101 13.3633 20.6723 14.0552 19.002C14.747 17.3318 15.9186 15.9042 17.4217 14.8999C18.9249 13.8955 20.6922 13.3594 22.5 13.3594C22.6865 13.3594 22.8653 13.2853 22.9972 13.1534C23.129 13.0216 23.2031 12.8427 23.2031 12.6563V5.62501C23.2031 5.43853 23.129 5.25969 22.9972 5.12783C22.8653 4.99596 22.6865 4.92188 22.5 4.92188C18.3979 4.91808 14.4248 6.35564 11.2748 8.98343L8.85936 7.17185C8.73764 7.0806 8.58962 7.03127 8.4375 7.03126H1.40625V8.43751H8.20314L10.2117 9.94394C8.35045 11.7616 6.91645 13.9703 6.01342 16.4101C5.11039 18.8499 4.76089 21.46 4.99021 24.0514C5.21952 26.6429 6.02191 29.151 7.33935 31.3943C8.65679 33.6377 10.4563 35.5602 12.6078 37.0228L10.9588 38.6719H1.40625V40.0781H11.25C11.4365 40.0781 11.6153 40.0041 11.7472 39.8722L13.8318 37.7876C16.4056 39.2499 19.3075 40.0373 22.2675 40.0766C25.2274 40.1158 28.1492 39.4057 30.7609 38.0121L33.3281 39.9375C33.4499 40.0288 33.5979 40.0781 33.75 40.0781H42.8906V38.6719H33.9844L32.071 37.2368ZM33.0237 23.2031H38.6568C38.2973 31.5621 31.5621 38.2963 23.2031 38.6558V33.0231C25.7504 32.8495 28.1486 31.7592 29.9541 29.9539C31.7595 28.1485 32.85 25.7504 33.0237 23.2031ZM21.7969 6.34324V11.9763C19.2496 12.15 16.8515 13.2405 15.0461 15.0459C13.2408 16.8514 12.1505 19.2496 11.977 21.7969H6.34418C6.70366 13.4379 13.4379 6.7027 21.7969 6.34324ZM6.34434 23.2031H11.9771C12.1506 25.7503 13.2409 28.1485 15.0462 29.9538C16.8516 31.7591 19.2497 32.8494 21.7969 33.0229V38.6557C13.4379 38.2962 6.70382 31.5621 6.34434 23.2031Z" fill="#3D8568"/>
<path d="M41.4844 42.1875H42.8906V43.5938H41.4844V42.1875Z" fill="#3D8568"/>
<path d="M34.4531 42.1875H40.0781V43.5938H34.4531V42.1875Z" fill="#3D8568"/>
<path d="M1.40625 42.1875H2.8125V43.5938H1.40625V42.1875Z" fill="#3D8568"/>
<path d="M4.21875 42.1875H9.84375V43.5938H4.21875V42.1875Z" fill="#3D8568"/>
<path d="M28.8281 25.3125V14.0625C28.8281 13.876 28.754 13.6972 28.6222 13.5653C28.4903 13.4335 28.3115 13.3594 28.125 13.3594H25.3125C25.126 13.3594 24.9472 13.4335 24.8153 13.5653C24.6835 13.6972 24.6094 13.876 24.6094 14.0625V15.4688H22.5C22.3135 15.4688 22.1347 15.5428 22.0028 15.6747C21.871 15.8066 21.7969 15.9854 21.7969 16.1719V18.2812H19.6875C19.501 18.2813 19.3222 18.3553 19.1903 18.4872C19.0585 18.6191 18.9844 18.7979 18.9844 18.9844V20.3906H16.875C16.6885 20.3906 16.5097 20.4647 16.3778 20.5966C16.246 20.7284 16.1719 20.9073 16.1719 21.0938V25.3125C16.1719 25.499 16.246 25.6778 16.3778 25.8097C16.5097 25.9415 16.6885 26.0156 16.875 26.0156H28.125C28.3115 26.0156 28.4903 25.9415 28.6222 25.8097C28.754 25.6778 28.8281 25.499 28.8281 25.3125ZM17.5781 21.7969H18.9844V24.6094H17.5781V21.7969ZM20.3906 19.6875H21.7969V24.6094H20.3906V19.6875ZM23.2031 16.875H24.6094V24.6094H23.2031V16.875ZM27.4219 24.6094H26.0156V14.7656H27.4219V24.6094Z" fill="#3D8568"/>
<path d="M20.3906 26.7188H21.7969V28.125H20.3906V26.7188Z" fill="#3D8568"/>
<path d="M17.5781 26.7188H18.9844V28.125H17.5781V26.7188Z" fill="#3D8568"/>
<path d="M23.2031 26.7188H24.6094V28.125H23.2031V26.7188Z" fill="#3D8568"/>
<path d="M26.0156 26.7188H27.4219V28.125H26.0156V26.7188Z" fill="#3D8568"/>
</svg>
