<svg width="45" height="45" viewBox="0 0 45 45" fill="none" xmlns="http://www.w3.org/2000/svg">
<path d="M22.1487 8.95919C20.5832 9.86319 19.3208 11.2111 18.5213 12.8326C17.7218 14.454 17.4211 16.2761 17.6571 18.0684C17.8932 19.8608 18.6554 21.5429 19.8474 22.902C21.0394 24.2612 22.6077 25.2363 24.354 25.7042C26.1002 26.172 27.9459 26.1116 29.6578 25.5304C31.3697 24.9493 32.8708 23.8736 33.9713 22.4393C35.0718 21.0051 35.7223 19.2767 35.8405 17.4727C35.9588 15.6688 35.5394 13.8703 34.6355 12.3047C33.4212 10.2074 31.4247 8.67737 29.0838 8.05021C26.7429 7.42304 24.2489 7.74994 22.1487 8.95919ZM33.417 13.0078C34.0161 14.039 34.3686 15.1948 34.4469 16.3849C34.5252 17.5749 34.3273 18.767 33.8686 19.8678C33.4099 20.9687 32.7028 21.9486 31.8026 22.7309C30.9024 23.5132 29.8335 24.0767 28.6794 24.3774C27.5253 24.6781 26.3173 24.7079 25.1498 24.4643C23.9823 24.2208 22.8869 23.7105 21.9493 22.9735C21.0117 22.2364 20.2573 21.2925 19.7449 20.2156C19.2326 19.1386 18.9762 17.9577 18.9959 16.7653L21.9743 19.5497C21.8283 19.8793 21.7693 20.2409 21.8028 20.5999C21.8363 20.9589 21.9613 21.3034 22.1658 21.6003C22.3703 21.8973 22.6475 22.1369 22.971 22.2962C23.2944 22.4555 23.6533 22.5292 24.0134 22.5104C24.3735 22.4915 24.7227 22.3807 25.0277 22.1884C25.3328 21.9962 25.5834 21.7289 25.7558 21.4122C25.9281 21.0955 26.0164 20.7399 26.0122 20.3794C26.0081 20.0188 25.9115 19.6654 25.7318 19.3528L28.8643 15.3506C29.0788 15.4261 29.3042 15.466 29.5315 15.4687C29.9487 15.4687 30.3566 15.345 30.7034 15.1132C31.0503 14.8814 31.3207 14.552 31.4803 14.1666C31.64 13.7811 31.6818 13.357 31.6004 12.9478C31.519 12.5386 31.3181 12.1628 31.0231 11.8678C30.7281 11.5728 30.3522 11.3719 29.9431 11.2905C29.5339 11.2091 29.1098 11.2509 28.7243 11.4105C28.3389 11.5702 28.0094 11.8406 27.7777 12.1874C27.5459 12.5343 27.4222 12.9422 27.4222 13.3593C27.4234 13.7585 27.5391 14.1489 27.7554 14.4843L24.6694 18.4268C24.3917 18.3143 24.0925 18.2647 23.7933 18.2816C23.4941 18.2985 23.2024 18.3815 22.939 18.5245L19.2125 15.0419C19.5766 13.5412 20.382 12.184 21.5247 11.1454C22.6675 10.1068 24.0953 9.43437 25.6239 9.21492C27.1524 8.99547 28.7117 9.23904 30.1005 9.91422C31.4893 10.5894 32.644 11.6652 33.4156 13.0029L33.417 13.0078ZM24.6097 20.3906C24.6097 20.5297 24.5684 20.6656 24.4912 20.7812C24.4139 20.8969 24.3041 20.987 24.1756 21.0402C24.0471 21.0934 23.9058 21.1073 23.7694 21.0802C23.633 21.0531 23.5077 20.9861 23.4094 20.8878C23.311 20.7894 23.2441 20.6642 23.2169 20.5278C23.1898 20.3914 23.2037 20.25 23.2569 20.1215C23.3102 19.993 23.4003 19.8832 23.5159 19.806C23.6315 19.7287 23.7675 19.6875 23.9065 19.6875C24.093 19.6875 24.2719 19.7616 24.4037 19.8934C24.5356 20.0253 24.6097 20.2041 24.6097 20.3906ZM28.8284 13.3593C28.8284 13.2203 28.8696 13.0843 28.9469 12.9687C29.0242 12.8531 29.134 12.763 29.2625 12.7097C29.3909 12.6565 29.5323 12.6426 29.6687 12.6697C29.8051 12.6969 29.9304 12.7638 30.0287 12.8622C30.1271 12.9605 30.194 13.0858 30.2212 13.2222C30.2483 13.3586 30.2344 13.4999 30.1811 13.6284C30.1279 13.7569 30.0378 13.8667 29.9222 13.944C29.8065 14.0212 29.6706 14.0625 29.5315 14.0625C29.3451 14.0625 29.1662 13.9884 29.0344 13.8565C28.9025 13.7247 28.8284 13.5458 28.8284 13.3593Z" fill="#3D8568"/>
<path d="M42.7106 37.5469L37.8492 29.122C37.756 28.9605 37.6024 28.8427 37.4223 28.7944C37.2422 28.7462 37.0502 28.7715 36.8888 28.8647L36.2798 29.2162L34.4229 26.0009C35.8093 24.8344 36.9118 23.3676 37.6469 21.7117C38.382 20.0557 38.7303 18.2541 38.6654 16.4435C38.6006 14.6328 38.1242 12.8608 37.2726 11.2616C36.4209 9.6625 35.2163 8.27832 33.75 7.21406V2.10938C33.75 1.92289 33.6759 1.74405 33.5441 1.61219C33.4122 1.48033 33.2334 1.40625 33.0469 1.40625H9.14062C8.95416 1.40629 8.77535 1.48039 8.64352 1.61227L1.61227 8.64352C1.48039 8.77535 1.40629 8.95416 1.40625 9.14062V42.8906C1.40625 43.0771 1.48033 43.2559 1.61219 43.3878C1.74405 43.5197 1.92289 43.5938 2.10938 43.5938H33.0469C33.2334 43.5938 33.4122 43.5197 33.5441 43.3878C33.6759 43.2559 33.75 43.0771 33.75 42.8906V36.0851L36.6216 41.0625C36.8507 41.4656 37.1573 41.8193 37.5238 42.1034C37.8902 42.3874 38.3092 42.5962 38.7566 42.7177C39.2041 42.8392 39.6711 42.8709 40.1309 42.8112C40.5907 42.7514 41.0341 42.6013 41.4356 42.3695C41.8371 42.1377 42.1888 41.8287 42.4705 41.4604C42.7521 41.0921 42.9581 40.6717 43.0766 40.2235C43.1951 39.7752 43.2238 39.308 43.161 38.8486C43.0982 38.3893 42.9451 37.9468 42.7106 37.5469ZM35.062 29.9194L33.8442 30.6225L32.0752 27.5583C32.2861 27.4535 32.4914 27.3473 32.6953 27.2271C32.8992 27.1069 33.0905 26.9733 33.2866 26.8446L35.062 29.9194ZM35.8523 11.6016C37.0797 13.7209 37.5337 16.2004 37.1372 18.6172C36.7406 21.0339 35.5179 23.2383 33.6776 24.8543C31.8374 26.4703 29.4935 27.3978 27.0457 27.4787C24.598 27.5596 22.198 26.7889 20.255 25.2979C18.312 23.807 16.9464 21.6882 16.3911 19.3029C15.8358 16.9176 16.1252 14.4136 17.2099 12.2178C18.2945 10.022 20.1074 8.27049 22.3392 7.26197C24.571 6.25346 27.0835 6.0504 29.4483 6.68742C32.1496 7.41263 34.4528 9.17998 35.8523 11.6016ZM8.4375 3.80672V8.4375H3.80672L8.4375 3.80672ZM32.3438 42.1875H2.8125V9.84375H9.14062C9.32711 9.84375 9.50595 9.76967 9.63781 9.63781C9.76967 9.50595 9.84375 9.32711 9.84375 9.14062V2.8125H32.3438V6.33727C31.541 5.9062 30.6918 5.56793 29.8125 5.32898C27.0835 4.59404 24.1822 4.85287 21.6264 6.05928C19.0706 7.2657 17.0267 9.34116 15.8597 11.9152L15.2923 11.3864C15.4447 11.0409 15.5016 10.6607 15.4569 10.2857C15.4123 9.91066 15.2677 9.5545 15.0384 9.25439C14.8091 8.95429 14.5035 8.72126 14.1534 8.57963C13.8032 8.43799 13.4215 8.39296 13.0481 8.44923C12.6746 8.5055 12.3231 8.66101 12.0302 8.89951C11.7374 9.13802 11.514 9.45077 11.3833 9.80511C11.2526 10.1595 11.2194 10.5424 11.2873 10.9139C11.3551 11.2855 11.5214 11.632 11.7689 11.9173L8.10563 18.3157C7.98311 18.2935 7.85889 18.282 7.73438 18.2812C7.31718 18.2812 6.90935 18.405 6.56247 18.6367C6.21558 18.8685 5.94522 19.198 5.78557 19.5834C5.62591 19.9688 5.58414 20.393 5.66553 20.8021C5.74692 21.2113 5.94782 21.5872 6.24282 21.8822C6.53782 22.1772 6.91368 22.3781 7.32286 22.4595C7.73204 22.5409 8.15616 22.4991 8.5416 22.3394C8.92704 22.1798 9.25647 21.9094 9.48826 21.5625C9.72004 21.2156 9.84375 20.8078 9.84375 20.3906C9.8418 19.8862 9.6575 19.3995 9.32484 19.0202L12.9881 12.6218C13.1106 12.644 13.2349 12.6555 13.3594 12.6562C13.6973 12.6539 14.0296 12.5695 14.3276 12.4102L15.3218 13.3355C14.8405 14.8707 14.675 16.4874 14.8351 18.0883C14.9952 19.6891 15.4777 21.241 16.2535 22.6505C17.0293 24.06 18.0823 25.2978 19.3492 26.2895C20.616 27.2813 22.0705 28.0063 23.625 28.421C24.6401 28.6938 25.6866 28.8323 26.7377 28.833C28.1145 28.8315 29.4804 28.5892 30.7737 28.1173L32.625 31.3263L32.0168 31.6779C31.8553 31.7711 31.7375 31.9247 31.6892 32.1048C31.6409 32.285 31.6662 32.4769 31.7595 32.6384L32.3438 33.6488V42.1875ZM12.6562 10.5469C12.6562 10.4078 12.6975 10.2719 12.7747 10.1562C12.852 10.0406 12.9618 9.95049 13.0903 9.89727C13.2188 9.84405 13.3602 9.83013 13.4965 9.85726C13.6329 9.88439 13.7582 9.95136 13.8566 10.0497C13.9549 10.148 14.0219 10.2733 14.049 10.4097C14.0761 10.5461 14.0622 10.6875 14.009 10.8159C13.9558 10.9444 13.8656 11.0542 13.75 11.1315C13.6344 11.2088 13.4984 11.25 13.3594 11.25C13.1729 11.25 12.9941 11.1759 12.8622 11.0441C12.7303 10.9122 12.6562 10.7334 12.6562 10.5469ZM8.4375 20.3906C8.4375 20.5297 8.39626 20.6656 8.319 20.7813C8.24174 20.8969 8.13193 20.987 8.00345 21.0402C7.87497 21.0934 7.73359 21.1074 7.5972 21.0802C7.46081 21.0531 7.33552 20.9861 7.23719 20.8878C7.13886 20.7895 7.07189 20.6642 7.04476 20.5278C7.01763 20.3914 7.03155 20.25 7.08477 20.1216C7.13799 19.9931 7.22811 19.8833 7.34374 19.806C7.45937 19.7287 7.59531 19.6875 7.73438 19.6875C7.92086 19.6875 8.0997 19.7616 8.23156 19.8934C8.36342 20.0253 8.4375 20.2041 8.4375 20.3906ZM41.7038 39.8468C41.5963 40.2506 41.3714 40.6134 41.0575 40.8892C40.7436 41.165 40.3548 41.3413 39.9406 41.3959C39.5263 41.4504 39.1052 41.3807 38.7306 41.1955C38.356 41.0103 38.0448 40.7181 37.8366 40.3559L33.3281 32.5441L36.9844 30.4348L41.4928 38.25C41.6314 38.4891 41.7214 38.7533 41.7576 39.0274C41.7938 39.3014 41.7755 39.5799 41.7038 39.8468Z" fill="#3D8568"/>
<path d="M28.8281 39.375H28.125V33.0469C28.125 32.8604 28.0509 32.6816 27.9191 32.5497C27.7872 32.4178 27.6084 32.3438 27.4219 32.3438H24.6094C24.4229 32.3438 24.2441 32.4178 24.1122 32.5497C23.9803 32.6816 23.9062 32.8604 23.9062 33.0469V39.375H22.5V30.2344C22.5 30.0479 22.4259 29.8691 22.2941 29.7372C22.1622 29.6053 21.9834 29.5312 21.7969 29.5312H18.9844C18.7979 29.5312 18.6191 29.6053 18.4872 29.7372C18.3553 29.8691 18.2812 30.0479 18.2812 30.2344V39.375H16.875V33.0469C16.875 32.8604 16.8009 32.6816 16.6691 32.5497C16.5372 32.4178 16.3584 32.3438 16.1719 32.3438H13.3594C13.1729 32.3438 12.9941 32.4178 12.8622 32.5497C12.7303 32.6816 12.6562 32.8604 12.6562 33.0469V39.375H11.25V35.8594C11.25 35.6729 11.1759 35.4941 11.0441 35.3622C10.9122 35.2303 10.7334 35.1562 10.5469 35.1562H7.73438C7.54789 35.1562 7.36905 35.2303 7.23719 35.3622C7.10533 35.4941 7.03125 35.6729 7.03125 35.8594V39.375H6.32812C6.14164 39.375 5.9628 39.4491 5.83094 39.5809C5.69908 39.7128 5.625 39.8916 5.625 40.0781C5.625 40.2646 5.69908 40.4434 5.83094 40.5753C5.9628 40.7072 6.14164 40.7812 6.32812 40.7812H28.8281C29.0146 40.7812 29.1934 40.7072 29.3253 40.5753C29.4572 40.4434 29.5312 40.2646 29.5312 40.0781C29.5312 39.8916 29.4572 39.7128 29.3253 39.5809C29.1934 39.4491 29.0146 39.375 28.8281 39.375ZM8.4375 39.375V36.5625H9.84375V39.375H8.4375ZM14.0625 39.375V33.75H15.4688V39.375H14.0625ZM19.6875 39.375V30.9375H21.0938V39.375H19.6875ZM25.3125 39.375V33.75H26.7188V39.375H25.3125Z" fill="#3D8568"/>
<path d="M5.625 26.7188H14.0625C14.249 26.7188 14.4278 26.6447 14.5597 26.5128C14.6915 26.3809 14.7656 26.2021 14.7656 26.0156C14.7656 25.8291 14.6915 25.6503 14.5597 25.5184C14.4278 25.3866 14.249 25.3125 14.0625 25.3125H5.625C5.43852 25.3125 5.25968 25.3866 5.12782 25.5184C4.99595 25.6503 4.92188 25.8291 4.92188 26.0156C4.92188 26.2021 4.99595 26.3809 5.12782 26.5128C5.25968 26.6447 5.43852 26.7188 5.625 26.7188Z" fill="#3D8568"/>
<path d="M14.0625 29.5312C14.249 29.5312 14.4278 29.4572 14.5597 29.3253C14.6915 29.1934 14.7656 29.0146 14.7656 28.8281C14.7656 28.6416 14.6915 28.4628 14.5597 28.3309C14.4278 28.1991 14.249 28.125 14.0625 28.125H5.625C5.43852 28.125 5.25968 28.1991 5.12782 28.3309C4.99595 28.4628 4.92188 28.6416 4.92188 28.8281C4.92188 29.0146 4.99595 29.1934 5.12782 29.3253C5.25968 29.4572 5.43852 29.5312 5.625 29.5312H14.0625Z" fill="#3D8568"/>
</svg>
