<svg width="45" height="45" viewBox="0 0 45 45" fill="none" xmlns="http://www.w3.org/2000/svg">
<g clip-path="url(#clip0)">
<path d="M37.9577 32.556C37.6998 32.2982 37.2819 32.2981 37.0239 32.5557L35.0882 30.62C37.4359 27.356 38.7034 23.4515 38.7034 19.3516C38.7034 18.3782 38.6293 17.4023 38.4848 16.4428C41.1273 15.3987 43.0545 12.9251 43.3074 9.98007H44.3397C44.7045 9.98007 45.0002 9.6844 45.0002 9.31957C45.0002 7.32823 44.3809 5.42839 43.2092 3.82544C42.994 3.53092 42.5808 3.46676 42.2863 3.68191C41.9919 3.89716 41.9276 4.31042 42.1429 4.60494C43.0176 5.80184 43.5335 7.19183 43.6525 8.65907H36.3408V1.34763C37.8207 1.4676 39.2209 1.9909 40.4246 2.87903C40.718 3.0956 41.1315 3.03319 41.3482 2.73973C41.5648 2.44626 41.5024 2.03273 41.2089 1.81617C39.5987 0.627978 37.6869 0 35.6803 0C35.3154 0 35.0198 0.295752 35.0198 0.660498V1.69277C33.3294 1.83788 31.7948 2.53556 30.596 3.60255C27.3028 1.24427 23.4277 0 19.3517 0C14.1826 0 9.323 2.01296 5.66798 5.66798C2.01296 9.323 0 14.1826 0 19.3518C0 24.9695 2.43738 30.3029 6.68725 33.9843C6.96173 34.2224 7.3793 34.194 7.61889 33.9175C7.85769 33.6418 7.8278 33.2247 7.55209 32.9859C3.59209 29.5556 1.32091 24.5862 1.32091 19.3518C1.32091 9.40957 9.40948 1.321 19.3517 1.321C23.0888 1.321 26.6447 2.44301 29.6807 4.57225C29.1782 5.20576 28.7742 5.92014 28.4909 6.6927C25.8433 4.7816 22.6346 3.7386 19.3517 3.7386C15.9739 3.7386 12.7588 4.7998 10.0543 6.80748C9.7614 7.02492 9.70022 7.43854 9.91767 7.73147C10.1351 8.02433 10.5487 8.08567 10.8417 7.86814C13.3168 6.0307 16.2596 5.0596 19.3517 5.0596C22.529 5.0596 25.6299 6.12703 28.1282 8.07196C28.0612 8.47837 28.0244 8.89471 28.0244 9.31983C28.0244 12.7411 30.2803 15.6451 33.3827 16.6233C33.5561 17.5199 33.6438 18.4359 33.6438 19.3518C33.6438 23.8913 31.5163 27.9429 28.2061 30.5627C26.6884 27.7265 24.6301 26.2535 23.3442 25.5614C24.6772 24.5283 25.6003 22.9923 25.8272 21.2399C25.9133 21.2483 26.0002 21.2534 26.088 21.2534C27.5356 21.2534 28.7133 20.0757 28.7133 18.6281C28.7133 17.4481 27.9308 16.4477 26.8574 16.118C26.8937 16.0294 26.9112 15.9333 26.9064 15.8358C26.7585 12.8443 25.9492 10.6052 24.5008 9.18053C23.2432 7.94338 21.5107 7.3161 19.3516 7.3161C17.1925 7.3161 15.46 7.94338 14.2023 9.18053C12.7541 10.6052 11.9448 12.8443 11.7969 15.8358C11.792 15.9333 11.8096 16.0294 11.8458 16.118C10.7725 16.4477 9.98991 17.448 9.98991 18.6281C9.98991 20.0757 11.1676 21.2534 12.6152 21.2534C12.703 21.2534 12.7898 21.2483 12.8761 21.2399C13.1029 22.9923 14.0259 24.5283 15.3591 25.5614C14.0731 26.2535 12.0147 27.7265 10.4971 30.5628C7.18708 27.943 5.05942 23.8914 5.05942 19.3518C5.05942 15.6918 6.4415 12.2105 8.95113 9.54888C9.20136 9.28345 9.18914 8.86544 8.92371 8.61522C8.65828 8.3649 8.24027 8.37729 7.99014 8.64264C5.24848 11.5503 3.73852 15.3535 3.73852 19.3518C3.73852 27.961 10.7425 34.9649 19.3516 34.9649C27.9607 34.9649 34.9647 27.9609 34.9647 19.3518C34.9647 18.5381 34.9001 17.7244 34.7745 16.9218C35.0716 16.957 35.3737 16.9756 35.6802 16.9756C36.2023 16.9756 36.712 16.9219 37.205 16.8218C37.3222 17.6576 37.3823 18.5055 37.3823 19.3518C37.3823 29.2939 29.2939 37.3825 19.3517 37.3825C15.7383 37.3825 12.2525 36.3178 9.27097 34.3035C8.96862 34.0994 8.55817 34.1788 8.35392 34.4811C8.14975 34.7833 8.2292 35.194 8.53146 35.3981C11.7322 37.5605 15.4738 38.7035 19.3517 38.7035C23.4515 38.7035 27.3561 37.436 30.62 35.0883L32.5557 37.024C32.298 37.282 32.2981 37.7 32.556 37.9578L38.4797 43.8814C39.2011 44.6028 40.1602 45.0001 41.1805 45.0001C42.2008 45.0001 43.1598 44.6027 43.8813 43.8814C45.3705 42.3922 45.3705 39.9691 43.8813 38.4798L37.9577 32.556ZM25.8834 17.3394C25.9505 17.3289 26.0188 17.3236 26.088 17.3236C26.8073 17.3236 27.3924 17.9088 27.3924 18.628C27.3924 19.3473 26.8073 19.9324 26.088 19.9324C26.0188 19.9324 25.9505 19.9271 25.8834 19.9165V17.3394ZM12.82 19.9165C12.7528 19.9271 12.6846 19.9324 12.6153 19.9324C11.8961 19.9324 11.3109 19.3472 11.3109 18.628C11.3109 17.9088 11.8961 17.3236 12.6153 17.3236C12.6846 17.3236 12.7528 17.3289 12.82 17.3394V19.9165ZM13.1641 15.2079C13.5601 10.7881 15.5892 8.63692 19.3517 8.63692C23.1142 8.63692 25.1432 10.7881 25.5393 15.2079H22.3769V12.9622C22.3769 11.294 21.0197 9.93683 19.3515 9.93683C17.6833 9.93683 16.3261 11.294 16.3261 12.9623V15.2079H13.1641ZM21.056 13.908V15.2079H17.647V13.908H21.056ZM17.69 12.5871C17.8616 11.8274 18.5407 11.2577 19.3515 11.2577C20.1623 11.2577 20.8415 11.8274 21.013 12.5871H17.69ZM14.1409 20.3973V20.3923V16.5288H24.5624V20.3923V20.3973C24.5624 23.2705 22.2249 25.6081 19.3517 25.6081C16.4784 25.6081 14.1409 23.2705 14.1409 20.3973ZM21.1324 26.6803C21.0878 26.8596 21.0311 27.0485 20.9584 27.2359C20.4416 28.5677 19.6211 28.5677 19.3515 28.5677C19.0818 28.5677 18.2614 28.5677 17.7446 27.2359C17.6719 27.0484 17.6152 26.8596 17.5706 26.6802C18.1372 26.841 18.7342 26.9291 19.3518 26.9291C19.9691 26.929 20.566 26.8411 21.1324 26.6803ZM19.3517 33.6439C16.4881 33.6439 13.819 32.7967 11.5805 31.3408C13.0358 28.5354 15.1031 27.1774 16.1981 26.6201C16.4781 28.08 17.3441 29.8887 19.3515 29.8887C21.3607 29.8887 22.2265 28.0769 22.5057 26.6164C23.5984 27.1676 25.6603 28.5172 27.123 31.3407C24.8845 32.7966 22.2153 33.6439 19.3517 33.6439ZM29.3453 9.31975C29.3453 6.04978 31.8359 3.35074 35.0198 3.01939V9.31975C35.0198 9.68449 35.3154 9.98024 35.6803 9.98024H41.9807C41.6493 13.1641 38.9503 15.6546 35.6803 15.6546C32.1871 15.6546 29.3453 12.8128 29.3453 9.31975ZM31.6743 34.2743C32.1441 33.8849 32.5985 33.4723 33.0354 33.0354C33.4723 32.5986 33.885 32.1441 34.2743 31.6744L36.0898 33.4898L33.4898 36.0898L31.6743 34.2743ZM42.9472 42.9472C42.4753 43.4191 41.8479 43.679 41.1805 43.679C40.5131 43.679 39.8856 43.4191 39.4138 42.9472L33.9571 37.4905L37.4905 33.9571L42.9471 39.4138C43.9214 40.3879 43.9214 41.973 42.9472 42.9472Z" fill="#3D8568"/>
<path d="M16.7511 19.8893C17.1158 19.8893 17.4116 19.5936 17.4116 19.2288V18.2778C17.4116 17.9131 17.1158 17.6173 16.7511 17.6173C16.3863 17.6173 16.0906 17.913 16.0906 18.2778V19.2288C16.0906 19.5936 16.3862 19.8893 16.7511 19.8893Z" fill="#3D8568"/>
<path d="M21.9527 19.8893C22.3175 19.8893 22.6132 19.5936 22.6132 19.2288V18.2778C22.6132 17.9131 22.3175 17.6173 21.9527 17.6173C21.588 17.6173 21.2922 17.913 21.2922 18.2778V19.2288C21.2922 19.5936 21.588 19.8893 21.9527 19.8893Z" fill="#3D8568"/>
<path d="M17.2131 22.3471L17.2127 22.3473C17.3994 22.8008 18.06 23.5684 19.3513 23.5684C20.6427 23.5684 21.3033 22.8008 21.49 22.3473L21.4896 22.3471C21.6844 21.925 21.3501 21.4085 20.8819 21.4194C20.6056 21.4194 20.369 21.5884 20.2694 21.8285C20.2403 21.885 20.0296 22.2423 19.3513 22.2423C18.6729 22.2423 18.4622 21.885 18.4332 21.8285C18.3335 21.5883 18.0969 21.4194 17.8206 21.4194C17.3526 21.4085 17.0182 21.925 17.2131 22.3471Z" fill="#3D8568"/>
</g>
<defs>
<clipPath id="clip0">
<rect width="45" height="45" fill="white"/>
</clipPath>
</defs>
</svg>
