<svg width="31" height="27" viewBox="0 0 31 27" fill="none" xmlns="http://www.w3.org/2000/svg">
<path fill-rule="evenodd" clip-rule="evenodd" d="M13.2857 24.5H2V2H29V13.2732H31V2.21221C31 1.62549 30.7667 1.06281 30.3514 0.647941C29.9362 0.233071 29.373 0 28.7857 0H2.21429C1.62702 0 1.06381 0.233071 0.648549 0.647941C0.23329 1.06281 0 1.62549 0 2.21221V24.3343C0 24.921 0.23329 25.4837 0.648549 25.8986C1.06381 26.3134 1.62702 26.5465 2.21429 26.5465H13.2857V24.5ZM15.5 4.42437H4.42859V6.42437H15.4999L15.5 4.42437ZM4.42859 8.84887H15.5L15.4999 10.8489H4.42859V8.84887ZM4.42859 13.2733H11.0714V15.2733H4.42859V13.2733ZM19.2754 21.016L22.1429 23.8808L29.4389 16.5916L31 18.1512L22.1429 27L17.7143 22.5756L19.2754 21.016Z" fill="#3D8568"/>
</svg>
