<svg width="160" height="26" viewBox="0 0 160 26" fill="none" xmlns="http://www.w3.org/2000/svg">
<path d="M15.0755 12.1605H6.08378V8.15056H14.9433C14.5466 6.85702 13.8854 5.95155 12.8276 5.30479C11.7697 4.65802 10.5796 4.39931 9.25733 4.39931C8.06725 4.39931 7.0094 4.65802 5.95155 5.04608C4.89369 5.43414 3.96807 6.08091 3.30692 6.85702L0.397825 4.01125C1.32344 2.71772 2.64576 1.81225 4.23254 1.16548C5.81931 0.518716 7.53832 0.26001 9.38956 0.26001C12.5631 0.26001 15.0755 1.16548 16.9268 2.97643C18.778 4.78737 19.7036 7.24508 19.7036 10.3496C19.7036 13.454 18.778 15.9118 16.7945 17.852C14.8111 19.663 12.2987 20.5685 9.1251 20.5685C7.27386 20.5685 5.55485 20.1804 3.96807 19.5336C2.3813 18.7575 1.05898 17.7227 0.133362 16.4292L3.17469 13.9715C4.497 15.7824 6.48047 16.5585 9.38956 16.5585C10.8441 16.5585 12.1664 16.1705 13.2243 15.5237C14.1499 14.6182 14.8111 13.5834 15.0755 12.1605Z" fill="#010000"/>
<path d="M34.9091 20.3085H30.6777V9.3135H26.5785V9.70156C26.5785 10.4777 26.5785 11.2538 26.5785 11.9006C26.5785 12.5473 26.4463 13.3235 26.3141 14.2289C26.1818 15.1344 26.0496 15.9105 25.7851 16.5573C25.5207 17.204 25.2562 17.8508 24.8595 18.4976C24.4628 19.1443 23.9339 19.5324 23.2727 19.9205C22.6116 20.3085 21.8182 20.4379 21.0248 20.4379C20.4959 20.4379 19.9669 20.4379 19.5703 20.3085V16.6866C19.7025 16.6866 19.8347 16.6866 20.0992 16.6866C20.7603 16.6866 21.2893 16.4279 21.5537 16.0399C21.8182 15.6518 22.0826 15.005 22.3471 14.2289C22.6116 13.0647 22.7438 11.2538 22.7438 8.79609V5.56226H35.0413V20.3085H34.9091Z" fill="#010000"/>
<path d="M48.7934 15.0049L51.3058 17.4626C49.7191 19.4029 47.6034 20.4378 44.8265 20.4378C42.4463 20.4378 40.4629 19.791 39.0083 18.3681C37.5538 16.9452 36.7604 15.1343 36.7604 12.8059C36.7604 10.4776 37.4215 8.66661 38.8761 7.24372C40.3306 5.82084 42.1819 5.17407 44.562 5.17407C46.6777 5.17407 48.3967 5.82084 49.7191 6.98502C51.0414 8.27855 51.7025 9.83079 51.7025 11.9004C51.7025 12.4179 51.5703 13.194 51.4381 14.2288H41.124C41.2562 15.0049 41.7852 15.5223 42.4463 15.9104C43.1075 16.2984 44.0331 16.4278 44.8265 16.4278C46.5455 16.6865 47.8678 16.1691 48.7934 15.0049ZM44.4298 8.92532C42.843 8.92532 41.7852 9.57208 41.2562 10.8656H47.4711C47.0744 9.57208 46.0166 8.92532 44.4298 8.92532Z" fill="#010000"/>
<path d="M57.7851 20.3085H53.5537V5.56226H57.2562L61.8843 11.3832L66.6446 5.56226H70.0827V20.3085H65.8513V12.6767L61.8843 17.5921L57.6529 12.6767V20.3085H57.7851Z" fill="#010000"/>
<path d="M84.0992 15.0049L86.6116 17.4626C85.0248 19.4029 82.9091 20.4378 80.1323 20.4378C77.7521 20.4378 75.7686 19.791 74.3141 18.3681C72.8596 16.9452 72.0662 15.1343 72.0662 12.8059C72.0662 10.4776 72.7273 8.66661 74.1819 7.24372C75.6364 5.82084 77.4876 5.17407 79.8678 5.17407C81.9835 5.17407 83.7025 5.82084 85.0248 6.98502C86.3471 8.27855 87.0083 9.83079 87.0083 11.9004C87.0083 12.4179 86.8761 13.194 86.7438 14.2288H76.4298C76.562 15.0049 77.091 15.5223 77.7521 15.9104C78.4133 16.2984 79.3389 16.4278 80.1323 16.4278C81.9835 16.6865 83.1736 16.1691 84.0992 15.0049ZM79.7356 8.92532C78.1488 8.92532 77.091 9.57208 76.562 10.8656H82.7769C82.3802 9.57208 81.3224 8.92532 79.7356 8.92532Z" fill="#010000"/>
<path d="M103.008 20.3085H98.7769V14.7463H92.9587V20.3085H88.7273V5.56226H92.9587V10.9951H98.7769V5.56226H103.008V20.3085Z" fill="#010000"/>
<path d="M109.62 9.31346H104.463V5.43286H119.008V9.31346H113.719V20.1791H109.488V9.31346H109.62Z" fill="#010000"/>
<path d="M148.893 25.8706H144.661V5.56217H148.893V6.33829C149.289 5.95023 149.818 5.69153 150.479 5.56217C151.141 5.43282 151.802 5.30347 152.331 5.30347C154.579 5.30347 156.43 5.95023 157.752 7.37312C159.074 8.796 159.736 10.607 159.736 12.6766C159.736 14.8756 159.074 16.8159 157.62 18.2388C156.298 19.6617 154.446 20.4378 152.198 20.4378C150.479 20.4378 149.289 20.1791 149.025 19.6617V25.8706H148.893ZM151.802 9.05471C150.479 9.05471 149.554 9.57212 148.893 10.7363V15.393C149.157 15.7811 149.554 16.0398 150.083 16.2985C150.612 16.5572 151.141 16.6866 151.669 16.6866C152.86 16.6866 153.653 16.2985 154.446 15.6517C155.107 15.005 155.504 14.0995 155.504 12.9353C155.504 11.7711 155.24 10.7363 154.579 10.0895C153.917 9.44277 152.992 9.05471 151.802 9.05471Z" fill="#010000"/>
<path d="M121.653 10.3483C121.653 7.50253 122.711 5.04482 124.694 3.10452C126.678 1.16422 129.19 0.129395 132.099 0.129395C134.083 0.129395 136.066 0.646807 137.785 1.68163C139.504 2.71646 140.826 4.13934 141.62 5.95029C142.281 7.37318 142.545 8.79606 142.545 10.2189C142.545 13.0647 141.488 15.5224 139.504 17.4627C137.521 19.403 135.008 20.4379 132.099 20.4379C129.19 20.4379 126.678 19.403 124.694 17.4627C122.711 15.6518 121.653 13.1941 121.653 10.3483ZM128 6.07964C126.942 7.24382 126.413 8.66671 126.413 10.3483C126.413 12.0299 126.942 13.4528 128 14.617C129.058 15.7811 130.512 16.4279 132.099 16.4279C133.818 16.4279 135.273 15.9105 136.331 14.7463C137.388 13.5821 137.917 12.1592 137.917 10.4777C137.917 8.79606 137.388 7.37318 136.331 6.209C135.273 5.04482 133.818 4.39805 132.231 4.39805C130.38 4.39805 129.058 4.91546 128 6.07964Z" fill="#3D8468"/>
<path d="M124.741 20.4044L121.656 17.386L117.074 21.8678L120.16 24.8862L124.741 20.4044Z" fill="#3D8668"/>
</svg>
