<svg width="14" height="14" viewBox="0 0 14 14" fill="none" xmlns="http://www.w3.org/2000/svg">
<path d="M0.308092 0.308011C0.71875 -0.102649 1.38456 -0.102649 1.79522 0.308011L13.692 12.2049C14.1027 12.6155 14.1027 13.2813 13.692 13.692C13.2813 14.1027 12.6155 14.1027 12.2049 13.692L0.308092 1.79515C-0.102566 1.38448 -0.102567 0.718672 0.308092 0.308011Z" fill="white"/>
<path d="M0.307994 13.692C-0.102665 13.2813 -0.102665 12.6155 0.307994 12.2049L12.2048 0.307996C12.6154 -0.102665 13.2813 -0.102665 13.6919 0.307995C14.1026 0.718656 14.1026 1.38447 13.6919 1.79513L1.79512 13.692C1.38446 14.1026 0.718652 14.1026 0.307994 13.692Z" fill="white"/>
</svg>
