<svg width="41" height="40" viewBox="0 0 41 40" fill="none" xmlns="http://www.w3.org/2000/svg">
<g clip-path="url(#clip0)">
<path d="M40.4669 29.7603L33.7382 23.0415C33.6081 22.9176 33.4195 22.8114 33.185 22.8126H28.9296C31.8483 20.3897 33.5831 16.7793 33.5831 12.8975C33.5831 5.78584 27.7888 0 20.6666 0C13.5445 0 7.75012 5.78584 7.75012 12.8975C7.75012 16.7794 9.48492 20.3897 12.4037 22.8126H8.14828C7.96879 22.8169 7.75982 22.8751 7.59504 23.0415L0.866352 29.7603C0.560826 30.0654 0.560826 30.56 0.866352 30.8652C1.17196 31.1703 1.66721 31.1703 1.9729 30.8652L7.36596 25.4801V37.6563C7.36596 38.9487 8.41891 40.0001 9.71315 40.0001H31.6203C32.9145 40.0001 33.9675 38.9487 33.9675 37.6563V25.48L39.3605 30.8651C39.6661 31.1702 40.1614 31.1702 40.4671 30.8651C40.7725 30.56 40.7725 30.0654 40.4669 29.7603ZM31.9191 24.3751L29.3372 29.5314H11.9962L9.41427 24.3751L31.9191 24.3751ZM9.31491 12.8975C9.31491 6.6474 14.4073 1.56249 20.6666 1.56249C26.926 1.56249 32.0183 6.6474 32.0183 12.8975C32.0183 17.0295 29.7807 20.8105 26.1673 22.8126H15.166C11.5526 20.8105 9.31491 17.0296 9.31491 12.8975ZM31.6202 38.4375H9.71307C9.28166 38.4375 8.93067 38.087 8.93067 37.6563V36.8749H11.6687C12.1007 36.8749 12.4511 36.5252 12.4511 36.0937C12.4511 35.6622 12.1007 35.3124 11.6687 35.3124H8.93067V26.9033L10.8128 30.6621C10.9453 30.9268 11.2162 31.0939 11.5126 31.0939H29.8207C30.117 31.0939 30.3879 30.9268 30.5205 30.6621L32.4026 26.9033V37.6563C32.4026 38.087 32.0516 38.4375 31.6202 38.4375Z" fill="#3D8568"/>
<path d="M26.5341 9.30501C26.5341 7.74009 25.9237 6.26876 24.8152 5.16196C23.7068 4.05516 22.2332 3.44563 20.6661 3.44563C19.0989 3.44563 17.6254 4.05516 16.5169 5.16196C15.4085 6.26876 14.7981 7.74009 14.7981 9.30501C14.7981 10.5974 15.851 11.6488 17.1453 11.6488C18.4395 11.6488 19.4925 10.5974 19.4925 9.30501C19.4925 8.9918 19.6145 8.69759 19.8362 8.47626C20.0578 8.25501 20.3525 8.13313 20.6661 8.13313C20.9797 8.13313 21.2744 8.25501 21.4961 8.47634C21.7176 8.69759 21.8397 8.9918 21.8397 9.30501C21.8397 9.46415 21.8103 9.61509 21.7522 9.75384C21.6931 9.89524 21.6018 10.0281 21.4811 10.1486C20.4143 11.2138 19.7883 11.9348 19.3206 12.6369C18.6372 13.6624 18.3189 14.6354 18.3189 15.699C18.3189 16.2988 18.546 16.8466 18.9185 17.2616C18.546 17.6766 18.3189 18.2245 18.3189 18.8246C18.3189 20.117 19.3718 21.1684 20.6661 21.1684C21.9603 21.1684 23.0133 20.117 23.0133 18.8246V18.8241C23.0133 18.2242 22.7862 17.6765 22.4137 17.2616C22.7862 16.8466 23.0133 16.2988 23.0133 15.6991C23.0133 15.6287 23.0504 15.4891 23.2271 15.2238C23.5605 14.7235 24.2094 14.053 24.8003 13.463C25.3491 12.9149 25.7801 12.2721 26.0812 11.5525C26.3818 10.8341 26.5341 10.078 26.5341 9.30501ZM21.4485 18.8246C21.4485 19.2554 21.0975 19.6059 20.6661 19.6059C20.2347 19.6059 19.8837 19.2554 19.8837 18.824C19.8837 18.3932 20.2347 18.0427 20.6661 18.0427C21.0975 18.0427 21.4485 18.3932 21.4485 18.824V18.8246ZM24.6373 10.9502C24.4153 11.4809 24.0978 11.9546 23.6938 12.3581C22.7669 13.2836 22.2543 13.8631 21.9244 14.3581C21.5997 14.8454 21.4485 15.2715 21.4485 15.699C21.4485 16.1298 21.0975 16.4802 20.6661 16.4802C20.2347 16.4802 19.8837 16.1298 19.8837 15.699C19.8837 14.9475 20.1118 14.2701 20.6234 13.5024C21.0299 12.8922 21.599 12.2406 22.5876 11.2534C22.8532 10.9882 23.058 10.6863 23.1961 10.3562C23.3343 10.0257 23.4044 9.67204 23.4044 9.30501C23.4044 8.57438 23.1195 7.88766 22.6024 7.37141C22.0854 6.85501 21.3977 6.57063 20.666 6.57063C19.9343 6.57063 19.2467 6.85501 18.7296 7.37134C18.2125 7.88766 17.9276 8.57438 17.9276 9.30493C17.9276 9.73571 17.5766 10.0862 17.1452 10.0862C16.7138 10.0862 16.3628 9.73571 16.3628 9.30493C16.3628 8.15743 16.8105 7.07837 17.6233 6.26673C18.4362 5.45501 19.5167 5.00805 20.666 5.00805C21.8153 5.00805 22.8958 5.45509 23.7087 6.26673C24.5216 7.07837 24.9692 8.15735 24.9692 9.30493C24.9693 9.87009 24.8576 10.4236 24.6373 10.9502Z" fill="#3D8568"/>
<path d="M15.1875 35.3124C14.7561 35.3124 14.4063 35.6622 14.4063 36.0937C14.4063 36.5251 14.7561 36.8749 15.1875 36.8749H15.1882C15.6196 36.8749 15.9691 36.5251 15.9691 36.0937C15.9691 35.6622 15.619 35.3124 15.1875 35.3124Z" fill="#3D8568"/>
</g>
<defs>
<clipPath id="clip0">
<rect width="40.0589" height="40" fill="white" transform="translate(0.636963)"/>
</clipPath>
</defs>
</svg>
