<svg width="41" height="40" viewBox="0 0 41 40" fill="none" xmlns="http://www.w3.org/2000/svg">
<g clip-path="url(#clip0)">
<path d="M37.3189 5H23.5361C22.5992 3.82991 21.4105 2.88531 20.0583 2.23617C18.7061 1.58703 17.225 1.24999 15.7247 1.25C15.5587 1.25 15.3994 1.31585 15.2821 1.43306C15.1647 1.55027 15.0987 1.70924 15.0987 1.875V5H13.8469V4.375C13.8469 4.20924 13.781 4.05027 13.6636 3.93306C13.5462 3.81585 13.387 3.75 13.221 3.75C11.5155 3.74819 9.83809 4.184 8.34975 5.01562C8.30512 5.00524 8.25944 5 8.21362 5H2.8933C2.31248 5.00064 1.75563 5.23132 1.34493 5.64141C0.934231 6.05151 0.703218 6.60754 0.702576 7.1875V31.5625C0.703218 32.1425 0.934231 32.6985 1.34493 33.1086C1.75563 33.5187 2.31248 33.7494 2.8933 33.75H15.4258L14.6747 35.625H11.9691C11.8031 35.625 11.6439 35.6908 11.5265 35.8081C11.4092 35.9253 11.3432 36.0842 11.3432 36.25V38.125C11.3432 38.2908 11.4092 38.4497 11.5265 38.5669C11.6439 38.6842 11.8031 38.75 11.9691 38.75H28.2431C28.4091 38.75 28.5683 38.6842 28.6857 38.5669C28.803 38.4497 28.869 38.2908 28.869 38.125V36.25C28.869 36.0842 28.803 35.9253 28.6857 35.8081C28.5683 35.6908 28.4091 35.625 28.2431 35.625H25.5375L24.7864 33.75H37.3189C37.8997 33.7494 38.4566 33.5187 38.8673 33.1086C39.278 32.6985 39.509 32.1425 39.5096 31.5625V7.1875C39.509 6.60754 39.278 6.05151 38.8673 5.64141C38.4566 5.23132 37.8997 5.00064 37.3189 5ZM16.3506 2.52187C18.452 2.67519 20.4281 3.57814 21.9179 5.06583C23.4078 6.55352 24.3121 8.52668 24.4656 10.625H16.3506V2.52187ZM13.48 14.375H21.962C21.8457 15.9951 21.2801 17.5508 20.3286 18.8682C19.3771 20.1855 18.0772 21.2124 16.5744 21.8339C15.0716 22.4555 13.4252 22.6471 11.8195 22.3874C10.2139 22.1276 8.71228 21.4268 7.48285 20.3633L13.48 14.375ZM12.5951 5.02187V13.4914L6.59796 19.4797C5.5329 18.2521 4.83102 16.7527 4.5709 15.1494C4.31079 13.5461 4.50269 11.9021 5.12513 10.4015C5.74758 8.90091 6.776 7.60292 8.09527 6.65281C9.41455 5.70271 10.9726 5.13799 12.5951 5.02187ZM27.6171 36.875V37.5H12.5951V36.875H27.6171ZM16.0235 35.625L16.7746 33.75H23.4376L24.1887 35.625H16.0235ZM38.2578 31.5625C38.2576 31.8111 38.1586 32.0494 37.9826 32.2252C37.8065 32.401 37.5678 32.4998 37.3189 32.5H2.8933C2.64435 32.4998 2.40567 32.401 2.22964 32.2252C2.05361 32.0494 1.95462 31.8111 1.95442 31.5625V30.625H38.2578V31.5625ZM38.2578 29.375H1.95442V7.1875C1.95462 6.93892 2.05361 6.70059 2.22964 6.52482C2.40567 6.34905 2.64435 6.25021 2.8933 6.25H6.605C5.34928 7.35452 4.39083 8.7557 3.81726 10.3255C3.2437 11.8952 3.07332 13.5835 3.32169 15.236C3.57006 16.8885 4.22926 18.4524 5.23903 19.7849C6.24881 21.1174 7.57696 22.1759 9.10207 22.8637C10.6272 23.5515 12.3006 23.8466 13.9694 23.7221C15.6382 23.5976 17.2491 23.0574 18.6549 22.1509C20.0607 21.2444 21.2165 20.0005 22.0168 18.533C22.817 17.0654 23.2361 15.421 23.2357 13.75C23.2357 13.5842 23.1698 13.4253 23.0524 13.3081C22.935 13.1908 22.7758 13.125 22.6098 13.125H13.8469V6.25H15.0987V11.25C15.0987 11.4158 15.1647 11.5747 15.2821 11.6919C15.3994 11.8092 15.5587 11.875 15.7247 11.875H25.1135C25.2795 11.875 25.4387 11.8092 25.5561 11.6919C25.6734 11.5747 25.7394 11.4158 25.7394 11.25C25.7415 9.49404 25.2777 7.76886 24.3952 6.25H37.3189C37.5678 6.25021 37.8065 6.34905 37.9826 6.52482C38.1586 6.70059 38.2576 6.93892 38.2578 7.1875V29.375Z" fill="white"/>
<path d="M36.3809 21.25C36.3809 21.4158 36.315 21.5747 36.1976 21.6919C36.0802 21.8092 35.921 21.875 35.755 21.875H27.6181C27.4521 21.875 27.2929 21.8092 27.1755 21.6919C27.0581 21.5747 26.9921 21.4158 26.9921 21.25V13.75C26.9921 13.5842 27.0581 13.4253 27.1755 13.3081C27.2929 13.1908 27.4521 13.125 27.6181 13.125C27.7841 13.125 27.9433 13.1908 28.0607 13.3081C28.178 13.4253 28.244 13.5842 28.244 13.75V20.625H35.755C35.921 20.625 36.0802 20.6908 36.1976 20.8081C36.315 20.9253 36.3809 21.0842 36.3809 21.25Z" fill="white"/>
<path d="M29.1044 19.8631C29.1686 19.9144 29.2423 19.9526 29.3212 19.9755C29.4002 19.9984 29.4829 20.0055 29.5646 19.9964C29.6463 19.9874 29.7255 19.9624 29.7975 19.9228C29.8695 19.8832 29.933 19.8298 29.9844 19.7657L31.3734 18.0318V18.7501C31.3734 18.8778 31.4125 19.0024 31.4856 19.1072C31.5587 19.212 31.6622 19.292 31.7821 19.3363C31.9021 19.3806 32.0327 19.3872 32.1565 19.3551C32.2803 19.323 32.3913 19.2538 32.4745 19.1569L36.2301 14.7819C36.2836 14.7196 36.3242 14.6473 36.3498 14.5693C36.3753 14.4913 36.3852 14.409 36.3789 14.3272C36.3726 14.2453 36.3503 14.1655 36.3131 14.0923C36.2759 14.0191 36.2246 13.954 36.1622 13.9005C36.0998 13.8471 36.0275 13.8065 35.9494 13.781C35.8712 13.7555 35.7888 13.7456 35.7069 13.7519C35.6249 13.7582 35.545 13.7805 35.4717 13.8177C35.3984 13.8548 35.3331 13.906 35.2796 13.9683L32.6252 17.0605V16.2501C32.6253 16.1205 32.585 15.9942 32.51 15.8885C32.435 15.7828 32.329 15.703 32.2066 15.6601C32.0842 15.6173 31.9515 15.6134 31.8268 15.6491C31.7021 15.6848 31.5916 15.7583 31.5105 15.8595L29.0069 18.9845C28.9555 19.0485 28.9172 19.1221 28.8943 19.2009C28.8714 19.2798 28.8643 19.3624 28.8733 19.444C28.8824 19.5256 28.9075 19.6046 28.9471 19.6765C28.9868 19.7484 29.0402 19.8118 29.1044 19.8631Z" fill="white"/>
<path d="M27.6181 23.75H35.755C35.921 23.75 36.0802 23.6842 36.1976 23.5669C36.315 23.4497 36.3809 23.2908 36.3809 23.125C36.3809 22.9592 36.315 22.8003 36.1976 22.6831C36.0802 22.5658 35.921 22.5 35.755 22.5H27.6181C27.4521 22.5 27.2929 22.5658 27.1755 22.6831C27.0581 22.8003 26.9921 22.9592 26.9921 23.125C26.9921 23.2908 27.0581 23.4497 27.1755 23.5669C27.2929 23.6842 27.4521 23.75 27.6181 23.75Z" fill="white"/>
<path d="M27.6181 25.625H35.755C35.921 25.625 36.0802 25.5592 36.1976 25.4419C36.315 25.3247 36.3809 25.1658 36.3809 25C36.3809 24.8342 36.315 24.6753 36.1976 24.5581C36.0802 24.4408 35.921 24.375 35.755 24.375H27.6181C27.4521 24.375 27.2929 24.4408 27.1755 24.5581C27.0581 24.6753 26.9921 24.8342 26.9921 25C26.9921 25.1658 27.0581 25.3247 27.1755 25.4419C27.2929 25.5592 27.4521 25.625 27.6181 25.625Z" fill="white"/>
<path d="M27.6181 27.5H35.755C35.921 27.5 36.0802 27.4342 36.1976 27.3169C36.315 27.1997 36.3809 27.0408 36.3809 26.875C36.3809 26.7092 36.315 26.5503 36.1976 26.4331C36.0802 26.3158 35.921 26.25 35.755 26.25H27.6181C27.4521 26.25 27.2929 26.3158 27.1755 26.4331C27.0581 26.5503 26.9921 26.7092 26.9921 26.875C26.9921 27.0408 27.0581 27.1997 27.1755 27.3169C27.2929 27.4342 27.4521 27.5 27.6181 27.5Z" fill="white"/>
</g>
<defs>
<clipPath id="clip0">
<rect width="40.0589" height="40" fill="white" transform="translate(0.0775757)"/>
</clipPath>
</defs>
</svg>
