<svg width="41" height="40" viewBox="0 0 41 40" fill="none" xmlns="http://www.w3.org/2000/svg">
<g clip-path="url(#clip0)">
<path d="M11.8421 20.5728C11.6788 19.079 10.7868 17.7601 9.49846 17.035C9.87268 16.4428 10.0731 15.7564 10.0731 15.0406C10.0731 12.974 8.37908 11.2928 6.2968 11.2928C4.21444 11.2928 2.52047 12.974 2.52047 15.0406C2.52047 15.7563 2.72092 16.4428 3.09506 17.0349C1.80676 17.7601 0.914748 19.0789 0.751539 20.5728L0.571509 22.221C0.536301 22.5433 0.769456 22.8332 1.09227 22.8683C1.41541 22.9036 1.70536 22.6707 1.74057 22.3483L1.9206 20.7001C2.06425 19.3849 2.96464 18.2514 4.21436 17.8123C4.40425 17.7456 4.54673 17.5866 4.59203 17.3908C4.63741 17.195 4.57935 16.9897 4.43805 16.8465C3.95977 16.3618 3.69641 15.7204 3.69641 15.0406C3.69641 13.6215 4.86297 12.467 6.29688 12.467C7.73078 12.467 8.89734 13.6215 8.89734 15.0406C8.89734 15.7204 8.63391 16.3616 8.1557 16.8465C8.01448 16.9897 7.95635 17.195 8.00165 17.3908C8.04703 17.5866 8.1895 17.7456 8.37939 17.8123C9.6292 18.2514 10.5296 19.385 10.6732 20.7001L11.3369 26.7766C11.3543 26.9351 11.3051 27.0879 11.1985 27.2066C11.0918 27.3254 10.9451 27.3908 10.7854 27.3908C10.5017 27.3908 10.2645 27.1784 10.2338 26.8968L9.57505 20.8666C9.53985 20.5443 9.24997 20.3112 8.92676 20.3466C8.60402 20.3818 8.37078 20.6715 8.40599 20.994L9.37734 29.8851H8.99052C8.66575 29.8851 8.40255 30.1479 8.40255 30.4722V34.8836C8.40255 35.3014 8.06213 35.6414 7.64362 35.6414C7.22519 35.6414 6.88469 35.3015 6.88469 34.8836V30.4722C6.88469 30.1479 6.62149 29.8851 6.29672 29.8851C5.97195 29.8851 5.70875 30.1479 5.70875 30.4722V34.8836C5.70875 35.3014 5.36832 35.6414 4.94974 35.6414C4.53131 35.6414 4.19081 35.3015 4.19081 34.8836V30.4722C4.19081 30.1479 3.92761 29.8851 3.60284 29.8851H3.21602L4.18737 20.994C4.22258 20.6716 3.98942 20.3818 3.6666 20.3466C3.34347 20.3117 3.05352 20.5443 3.01831 20.8666L2.35953 26.8968C2.32878 27.1784 2.09163 27.3908 1.80801 27.3908C1.64825 27.3908 1.50155 27.3254 1.39491 27.2066C1.28827 27.0879 1.23905 26.9351 1.25642 26.7766L1.48449 24.689C1.5197 24.3667 1.28654 24.0768 0.963726 24.0417C0.640908 24.0066 0.350637 24.2393 0.315429 24.5617L0.0875163 26.6493C0.0342348 27.1367 0.191732 27.6255 0.519557 27.9905C0.847461 28.3555 1.31714 28.5649 1.80817 28.5649C1.93625 28.5649 2.06135 28.551 2.18184 28.5246L1.97607 30.4084C1.958 30.5742 2.01136 30.7399 2.12293 30.8641C2.23442 30.9883 2.39356 31.0592 2.5606 31.0592H3.01502V34.8835C3.01502 35.9488 3.88294 36.8154 4.94982 36.8154C5.47293 36.8154 5.94808 36.6072 6.29672 36.2693C6.64528 36.6072 7.12043 36.8154 7.64354 36.8154C8.71042 36.8154 9.57834 35.9488 9.57834 34.8835V31.0592H10.0328C10.1998 31.0592 10.3589 30.9883 10.4704 30.8641C10.582 30.7399 10.6354 30.5743 10.6173 30.4084L10.4114 28.5246C10.532 28.551 10.6571 28.5649 10.7853 28.5649C11.2763 28.5649 11.7459 28.3555 12.0737 27.9905C12.4016 27.6255 12.5591 27.1366 12.5058 26.6493L11.8421 20.5728Z" fill="#3D8568"/>
<path d="M40.1363 21.4655V21.343C40.1363 21.2959 40.1301 21.2502 40.1196 21.2063L39.6903 16.8277C39.5306 15.1979 38.5595 13.7723 37.1442 13.0124C37.6101 12.2933 37.8431 11.4369 37.7962 10.5683C37.6835 8.48772 35.961 6.79608 33.8747 6.71725C32.7532 6.67491 31.6904 7.07889 30.8832 7.85491C30.0758 8.63124 29.6312 9.67499 29.6312 10.7939C29.6312 11.6086 29.8697 12.3883 30.3135 13.0522C28.0548 14.4062 27.7441 16.803 27.731 16.9134C27.7306 16.9174 27.7301 16.9215 27.7297 16.9255L27.6097 18.1542C27.5781 18.4769 27.8146 18.7641 28.1378 18.7956C28.4616 18.8257 28.7486 18.591 28.7801 18.2683L28.8992 17.0477C28.9135 16.9416 29.2393 14.7374 31.4578 13.7838C31.6362 13.7072 31.7652 13.5476 31.8024 13.3573C31.8397 13.1671 31.7805 12.9707 31.6442 12.8326C31.1043 12.2854 30.807 11.5614 30.807 10.794C30.807 9.99702 31.1237 9.25374 31.6987 8.70069C32.2734 8.14811 33.0303 7.86116 33.8301 7.89061C35.3154 7.94671 36.5418 9.15077 36.6219 10.6318C36.6668 11.4611 36.3711 12.2426 35.789 12.8325C35.6469 12.9766 35.589 13.1837 35.6359 13.3805C35.6829 13.5774 35.8279 13.7362 36.0199 13.8008C37.3971 14.2647 38.3784 15.4977 38.52 16.9421L38.9571 21.4003C38.9743 21.5755 38.9221 21.7469 38.81 21.8829C38.6982 22.0189 38.5398 22.1032 38.3643 22.1202C38.1878 22.1373 38.016 22.0847 37.8796 21.972C37.7836 21.8926 37.7136 21.7903 37.6749 21.6753L37.2528 17.2462C37.2222 16.924 36.936 16.6881 36.6131 16.7173C36.2902 16.7474 36.0525 17.0327 36.082 17.3551L37.2236 29.3351H36.7184C36.3937 29.3351 36.1305 29.598 36.1305 29.9223V34.7066C36.1305 35.2047 35.7415 35.6237 35.2635 35.6407C35.0187 35.6503 34.7825 35.5602 34.6051 35.3893C34.4277 35.2183 34.3299 34.9885 34.3299 34.7423V29.9223C34.3299 29.598 34.0667 29.3351 33.7419 29.3351C33.4171 29.3351 33.1539 29.598 33.1539 29.9223V34.7422C33.1539 34.9884 33.0561 35.2182 32.8787 35.3892C32.7013 35.5601 32.4677 35.6485 32.2202 35.6406C31.7422 35.6237 31.3533 35.2046 31.3533 34.7066V29.9222C31.3533 29.5979 31.0901 29.3351 30.7653 29.3351H30.2576L31.3464 17.4042L31.3509 17.3551C31.3804 17.0322 31.1421 16.7466 30.8188 16.7172C30.4963 16.6871 30.2093 16.9255 30.1799 17.2485L29.6134 23.4526C29.5972 23.6301 29.5126 23.7905 29.3752 23.9044C29.238 24.0183 29.0647 24.0718 28.8866 24.0551C28.7089 24.0384 28.5486 23.9534 28.435 23.8159C28.3213 23.6784 28.2684 23.505 28.2857 23.3276L28.5513 20.6077C28.5827 20.2851 28.3464 19.998 28.0231 19.9664C27.6998 19.9355 27.4124 20.1711 27.3809 20.4938L27.1153 23.2137C27.0674 23.7039 27.2139 24.1832 27.5279 24.5631C27.8418 24.9431 28.2851 25.1778 28.7762 25.2241C29.009 25.246 29.2394 25.2243 29.4576 25.1619L29.0281 29.869C29.0131 30.0333 29.068 30.1963 29.1793 30.3181C29.2907 30.44 29.4483 30.5094 29.6136 30.5094H30.1774V34.7066C30.1774 35.8485 31.0563 36.7742 32.1784 36.8141C32.748 36.835 33.2863 36.6284 33.6953 36.2341C33.7111 36.2189 33.7266 36.2035 33.7419 36.1879C33.7571 36.2035 33.7726 36.2189 33.7885 36.2342C34.1792 36.6107 34.6881 36.8155 35.2289 36.8155C35.2543 36.8155 35.2798 36.815 35.3052 36.8141C36.4273 36.7741 37.3063 35.8485 37.3063 34.7066V30.5093H37.8701C38.0357 30.5093 38.1937 30.4396 38.3052 30.3172C38.4166 30.1948 38.4711 30.0312 38.4555 29.8666L37.8236 23.2357C38.0339 23.2919 38.2547 23.3106 38.4781 23.2889C38.6457 23.2726 38.8071 23.2327 38.9603 23.1741V36.2283C38.9603 36.5526 39.2235 36.8154 39.5482 36.8154C39.873 36.8154 40.1362 36.5526 40.1362 36.2283V21.4705C40.1363 21.4688 40.1363 21.4672 40.1363 21.4655Z" fill="#3D8568"/>
<path d="M25.5429 13.3979C25.3941 11.7374 24.4156 10.2746 22.98 9.4877C23.4102 8.83082 23.641 8.06309 23.641 7.2616C23.641 6.14723 23.2225 5.11691 22.4624 4.36059C21.7002 3.6023 20.6589 3.18457 19.5299 3.18457C17.2247 3.18457 15.4189 4.97543 15.4189 7.2616C15.4189 8.06309 15.6498 8.8309 16.0799 9.4877C14.6444 10.2745 13.666 11.7368 13.5174 13.3932L12.6611 22.1622C12.6041 22.6834 12.7726 23.2062 13.1231 23.5964C13.4738 23.9868 13.9759 24.2106 14.5009 24.2105C14.6796 24.2105 14.8527 24.1853 15.0168 24.1379L14.8162 26.3364C14.8012 26.5007 14.8561 26.6638 14.9674 26.7856C15.0789 26.9075 15.2364 26.9768 15.4017 26.9768H15.9655V34.6967C15.9655 35.8386 16.8444 36.7643 17.9665 36.8041C18.5347 36.8235 19.0743 36.6184 19.4833 36.2243C19.4991 36.209 19.5147 36.1936 19.5299 36.1779C19.5452 36.1936 19.5608 36.209 19.5766 36.2243C19.9673 36.6007 20.4762 36.8054 21.0168 36.8054C21.0422 36.8054 21.0678 36.805 21.0932 36.804C22.2154 36.7643 23.0943 35.8386 23.0943 34.6966V31.9318C23.0943 31.6075 22.8311 31.3446 22.5063 31.3446C22.1816 31.3446 21.9184 31.6075 21.9184 31.9318V34.6966C21.9184 35.1946 21.5294 35.6136 21.0515 35.6306C20.8045 35.64 20.5704 35.5502 20.393 35.3793C20.2155 35.2082 20.1177 34.9785 20.1177 34.7322V26.3898C20.1177 26.0655 19.8545 25.8027 19.5298 25.8027C19.205 25.8027 18.9418 26.0655 18.9418 26.3898V34.7324C18.9418 34.9786 18.8441 35.2084 18.6666 35.3794C18.4892 35.5504 18.2547 35.6391 18.0081 35.6307C17.53 35.6138 17.1412 35.1948 17.1412 34.6968V26.3898C17.1412 26.0655 16.878 25.8027 16.5532 25.8027H16.0454L17.1336 13.8794L17.1387 13.8228C17.1682 13.4999 16.9299 13.2143 16.6066 13.1849C16.2841 13.1556 15.9972 13.3933 15.9677 13.7162L15.1711 22.44C15.1317 22.7803 14.8442 23.0364 14.5006 23.0364C14.3064 23.0364 14.128 22.9568 13.9983 22.8125C13.8686 22.6682 13.8087 22.4824 13.8305 22.2829L14.688 13.5025C14.8203 12.0279 15.8095 10.7575 17.2081 10.266C17.398 10.1993 17.5404 10.0402 17.5858 9.84441C17.6311 9.64863 17.5731 9.44324 17.4318 9.30012C16.8919 8.75301 16.5945 8.02902 16.5945 7.26152C16.5945 5.6066 17.8564 4.35863 19.5297 4.35863C21.203 4.35863 22.4649 5.6066 22.4649 7.26152C22.4649 8.02894 22.1675 8.75293 21.6276 9.30012C21.4864 9.44332 21.4283 9.64863 21.4736 9.84441C21.5189 10.0403 21.6614 10.1993 21.8513 10.266C23.2499 10.7575 24.2391 12.0279 24.3717 13.5071L25.2295 22.2895C25.2506 22.4823 25.1907 22.668 25.061 22.8124C24.9313 22.9568 24.753 23.0363 24.5586 23.0363H24.5586C24.215 23.0363 23.9275 22.7801 23.8882 22.4398L23.0916 13.7161C23.0621 13.3932 22.7761 13.1545 22.4527 13.1848C22.1294 13.2143 21.8911 13.4998 21.9206 13.8227L23.014 25.8026H22.5062C22.1814 25.8026 21.9182 26.0654 21.9182 26.3897V29.5836C21.9182 29.9079 22.1814 30.1707 22.5062 30.1707C22.831 30.1707 23.0942 29.9079 23.0942 29.5836V26.9768H23.658C23.8233 26.9768 23.9808 26.9075 24.0923 26.7856C24.2037 26.6638 24.2585 26.5007 24.2436 26.3364L24.0429 24.1379C24.2069 24.1853 24.38 24.2105 24.5586 24.2105H24.5589C25.0838 24.2105 25.586 23.9867 25.9366 23.5964C26.2871 23.2061 26.4556 22.6834 26.3993 22.1689L25.5429 13.3979Z" fill="#3D8568"/>
</g>
<defs>
<clipPath id="clip0">
<rect width="40.0589" height="40" fill="white" transform="translate(0.0774994)"/>
</clipPath>
</defs>
</svg>
