<svg xmlns="http://www.w3.org/2000/svg" style="display: none;">

    <symbol viewBox="0 0 31 27" id="Data" fill="none" xmlns="http://www.w3.org/2000/symbol">
        <path fill-rule="evenodd" clip-rule="evenodd" d="M13.2857 24.5H2V2H29V13.2732H31V2.21221C31 1.62549 30.7667 1.06281 30.3514 0.647941C29.9362 0.233071 29.373 0 28.7857 0H2.21429C1.62702 0 1.06381 0.233071 0.648549 0.647941C0.23329 1.06281 0 1.62549 0 2.21221V24.3343C0 24.921 0.23329 25.4837 0.648549 25.8986C1.06381 26.3134 1.62702 26.5465 2.21429 26.5465H13.2857V24.5ZM15.5 4.42437H4.42859V6.42437H15.4999L15.5 4.42437ZM4.42859 8.84887H15.5L15.4999 10.8489H4.42859V8.84887ZM4.42859 13.2733H11.0714V15.2733H4.42859V13.2733ZM19.2754 21.016L22.1429 23.8808L29.4389 16.5916L31 18.1512L22.1429 27L17.7143 22.5756L19.2754 21.016Z" fill="#3D8568"/>
    </symbol>

    <symbol viewBox="0 0 33 33" id="Staff">
        <path d="M17.0833 0H18.7917C22.4163 0 25.8925 1.43988 28.4555 4.00287C31.0185 6.56587 32.4583 10.042 32.4583 13.6667V15.375H17.0833V0ZM18.7917 13.6667H30.75C30.75 10.4951 29.4901 7.45347 27.2475 5.21085C25.0049 2.96823 21.9632 1.70833 18.7917 1.70833V13.6667ZM13.6667 18.7917H27.3333C27.3333 21.4947 26.5318 24.137 25.0301 26.3845C23.5284 28.6319 21.3939 30.3836 18.8967 31.418C16.3994 32.4524 13.6515 32.7231 11.0004 32.1957C8.34937 31.6684 5.9142 30.3668 4.00288 28.4555C2.09156 26.5441 0.789939 24.109 0.262607 21.4579C-0.264724 18.8068 0.00592151 16.0589 1.04032 13.5617C2.07472 11.0644 3.82641 8.92996 6.07388 7.42825C8.32135 5.92654 10.9637 5.125 13.6667 5.125V18.7917ZM11.9583 20.5V6.95292C8.97054 7.39073 6.25887 8.94238 4.36758 11.2965C2.47629 13.6505 1.54534 16.6328 1.76156 19.6448C1.97778 22.6567 3.32518 25.4755 5.53333 27.5353C7.74148 29.595 10.647 30.7435 13.6667 30.75C16.5427 30.7504 19.3225 29.7144 21.4968 27.8319C23.6711 25.9494 25.0942 23.3464 25.5054 20.5H11.9583Z" fill="#3D8568"/>
    </symbol>

    <symbol viewBox="0 0 12 16" id="Adress">
       <path d="M5.38338 15.6772C0.842813 9.09472 0 8.41916 0 6C0 2.68628 2.68628 0 6 0C9.31372 0 12 2.68628 12 6C12 8.41916 11.1572 9.09472 6.61662 15.6772C6.31866 16.1076 5.68131 16.1076 5.38338 15.6772ZM6 8.5C7.38072 8.5 8.5 7.38072 8.5 6C8.5 4.61928 7.38072 3.5 6 3.5C4.61928 3.5 3.5 4.61928 3.5 6C3.5 7.38072 4.61928 8.5 6 8.5Z" fill="#3D8568"/>
    </symbol>

    <symbol width="14" height="12" viewBox="0 0 14 12" id='Mail' fill="none" xmlns="http://www.w3.org/2000/symbol">
        <path d="M14 3.2256V8.925C14 9.50609 13.7777 10.0652 13.3786 10.4876C12.9795 10.9099 12.434 11.1636 11.8538 11.1965L11.725 11.2H2.275C1.6939 11.2 1.13482 10.9777 0.712438 10.5786C0.290057 10.1795 0.0363991 9.63396 0.00350008 9.0538L0 8.925V3.2256L6.7564 6.7648C6.83156 6.80417 6.91515 6.82474 7 6.82474C7.08485 6.82474 7.16844 6.80417 7.2436 6.7648L14 3.2256ZM2.275 1.65236e-08H11.725C12.2889 -6.79103e-05 12.8327 0.209297 13.251 0.587487C13.6693 0.965677 13.9322 1.48574 13.9888 2.0468L7 5.7078L0.0112 2.0468C0.0654664 1.50802 0.310135 1.00626 0.701225 0.631724C1.09231 0.257186 1.60418 0.0344309 2.1448 0.0035001L2.275 1.65236e-08H11.725H2.275Z" fill="#3D8568"/>
    </symbol>

<symbol width="14" height="14" viewBox="0 0 14 14" id='Phone' fill="none" xmlns="http://www.w3.org/2000/symbol">
<path d="M13.3474 2.21214L11.5379 0.404369C11.4103 0.276166 11.2586 0.174446 11.0915 0.105052C10.9244 0.0356575 10.7453 -4.33586e-05 10.5644 3.95186e-08C10.1957 3.95186e-08 9.84912 0.144418 9.58918 0.404369L7.64212 2.35146C7.51392 2.4791 7.4122 2.63081 7.34281 2.79788C7.27341 2.96495 7.23771 3.14409 7.23776 3.325C7.23776 3.69369 7.38217 4.04029 7.64212 4.30024L9.06588 5.72403C8.73261 6.45862 8.26926 7.1269 7.69819 7.6966C7.12855 8.26907 6.46034 8.73412 5.72564 9.06942L4.30188 7.64563C4.17424 7.51743 4.02253 7.41571 3.85546 7.34631C3.68839 7.27692 3.50926 7.24122 3.32835 7.24126C2.95967 7.24126 2.61307 7.38568 2.35312 7.64563L0.404364 9.59102C0.276006 9.7189 0.174199 9.87089 0.104803 10.0383C0.0354065 10.2056 -0.000210539 10.3851 9.36213e-07 10.5663C9.36213e-07 10.935 0.144416 11.2816 0.404364 11.5415L2.2104 13.3476C2.62496 13.7638 3.19753 14 3.78538 14C3.90941 14 4.02834 13.9898 4.14557 13.9694C6.43583 13.5922 8.70739 12.374 10.5406 10.5425C12.3721 8.71262 13.5886 6.44272 13.9709 4.14563C14.0864 3.44393 13.8537 2.72184 13.3474 2.21214Z" fill="#3D8568"/>
</symbol>

<symbol width="125" height="20" viewBox="0 0 125 20" id='logoMenu' fill="none" xmlns="http://www.w3.org/2000/symbol">
<path d="M11.7776 9.35418H4.75277V6.2696H11.6743C11.3643 5.27458 10.8478 4.57806 10.0214 4.08055C9.19491 3.58304 8.26516 3.38403 7.2321 3.38403C6.30235 3.38403 5.47591 3.58304 4.64946 3.88154C3.82301 4.18005 3.09987 4.67756 2.58334 5.27458L0.310616 3.08552C1.03376 2.0905 2.06681 1.39398 3.30648 0.896469C4.54615 0.398956 5.88913 0.199951 7.33541 0.199951C9.81475 0.199951 11.7776 0.896469 13.2238 2.2895C14.6701 3.68254 15.3933 5.57309 15.3933 7.96115C15.3933 10.3492 14.6701 12.2398 13.1205 13.7323C11.5709 15.1253 9.60814 15.8218 7.1288 15.8218C5.68252 15.8218 4.33954 15.5233 3.09987 15.0258C1.8602 14.4288 0.827145 13.6328 0.104004 12.6378L2.48004 10.7472C3.5131 12.1403 5.06268 12.7373 7.33541 12.7373C8.47177 12.7373 9.50483 12.4388 10.3313 11.9412C11.0544 11.2447 11.5709 10.4487 11.7776 9.35418Z" fill="#C7C7C7"/>
<path d="M27.2725 15.6218H23.9668V7.16414H20.7643V7.46264C20.7643 8.05966 20.7643 8.65667 20.7643 9.15419C20.7643 9.6517 20.661 10.2487 20.5577 10.9452C20.4544 11.6417 20.351 12.2388 20.1444 12.7363C19.9378 13.2338 19.7312 13.7313 19.4213 14.2288C19.1114 14.7263 18.6982 15.0248 18.1816 15.3233C17.6651 15.6218 17.0453 15.7213 16.4254 15.7213C16.0122 15.7213 15.599 15.7213 15.2891 15.6218V12.8358C15.3924 12.8358 15.4957 12.8358 15.7023 12.8358C16.2188 12.8358 16.632 12.6368 16.8386 12.3383C17.0453 12.0398 17.2519 11.5422 17.4585 10.9452C17.6651 10.0497 17.7684 8.65667 17.7684 6.76613V4.27856H27.3758V15.6218H27.2725Z" fill="#C7C7C7"/>
<path d="M38.1196 11.5422L40.0824 13.4327C38.8427 14.9253 37.1898 15.7213 35.0204 15.7213C33.1609 15.7213 31.6113 15.2238 30.4749 14.1292C29.3386 13.0347 28.7188 11.6417 28.7188 9.85063C28.7188 8.05958 29.2353 6.66655 30.3716 5.57202C31.508 4.47749 32.9543 3.97998 34.8138 3.97998C36.4667 3.97998 37.8097 4.47749 38.8427 5.37302C39.8758 6.36804 40.3923 7.56207 40.3923 9.15411C40.3923 9.55212 40.289 10.1491 40.1857 10.9452H32.1278C32.2311 11.5422 32.6444 11.9402 33.1609 12.2387C33.6774 12.5372 34.4006 12.6367 35.0204 12.6367C36.3634 12.8357 37.3964 12.4377 38.1196 11.5422ZM34.7105 6.86555C33.4708 6.86555 32.6444 7.36306 32.2311 8.35809H37.0865C36.7766 7.36306 35.9502 6.86555 34.7105 6.86555Z" fill="#C7C7C7"/>
<path d="M45.1447 15.6218H41.8389V4.27856H44.7314L48.3471 8.75618L52.0661 4.27856H54.7521V15.6218H51.4463V9.7512L48.3471 13.5323L45.0413 9.7512V15.6218H45.1447Z" fill="#C7C7C7"/>
<path d="M65.7026 11.5422L67.6654 13.4327C66.4257 14.9253 64.7728 15.7213 62.6034 15.7213C60.7439 15.7213 59.1943 15.2238 58.058 14.1292C56.9216 13.0347 56.3018 11.6417 56.3018 9.85063C56.3018 8.05958 56.8183 6.66655 57.9546 5.57202C59.091 4.47749 60.5373 3.97998 62.3968 3.97998C64.0497 3.97998 65.3927 4.47749 66.4257 5.37302C67.4588 6.36804 67.9753 7.56207 67.9753 9.15411C67.9753 9.55212 67.872 10.1491 67.7687 10.9452H59.7108C59.8142 11.5422 60.2274 11.9402 60.7439 12.2387C61.2604 12.5372 61.9836 12.6367 62.6034 12.6367C64.0497 12.8357 64.9794 12.4377 65.7026 11.5422ZM62.2935 6.86555C61.0538 6.86555 60.2274 7.36306 59.8142 8.35809H64.6695C64.3596 7.36306 63.5332 6.86555 62.2935 6.86555Z" fill="#C7C7C7"/>
<path d="M80.4749 15.6218H77.1691V11.3432H72.6237V15.6218H69.3179V4.27856H72.6237V8.45767H77.1691V4.27856H80.4749V15.6218Z" fill="#C7C7C7"/>
<path d="M85.6403 7.16403H81.6113V4.17896H92.975V7.16403H88.8427V15.5222H85.537V7.16403H85.6403Z" fill="#C7C7C7"/>
<path d="M116.322 19.9005H113.017V4.2786H116.322V4.87561C116.632 4.5771 117.046 4.3781 117.562 4.2786C118.079 4.17909 118.595 4.07959 119.008 4.07959C120.765 4.07959 122.211 4.5771 123.244 5.67163C124.277 6.76616 124.793 8.15919 124.793 9.75123C124.793 11.4428 124.277 12.9353 123.141 14.0298C122.108 15.1244 120.661 15.7214 118.905 15.7214C117.562 15.7214 116.632 15.5224 116.426 15.1244V19.9005H116.322ZM118.595 6.96516C117.562 6.96516 116.839 7.36317 116.322 8.25869V11.8408C116.529 12.1393 116.839 12.3383 117.252 12.5373C117.665 12.7363 118.079 12.8358 118.492 12.8358C119.422 12.8358 120.041 12.5373 120.661 12.0398C121.178 11.5423 121.488 10.8458 121.488 9.95024C121.488 9.05471 121.281 8.25869 120.765 7.76118C120.248 7.26367 119.525 6.96516 118.595 6.96516Z" fill="#C7C7C7"/>
<path d="M95.0415 7.96031C95.0415 5.77125 95.868 3.8807 97.4175 2.38817C98.9671 0.89563 100.93 0.0996094 103.203 0.0996094C104.752 0.0996094 106.302 0.497619 107.645 1.29364C108.988 2.08966 110.021 3.18419 110.641 4.57722C111.157 5.67175 111.364 6.76628 111.364 7.8608C111.364 10.0499 110.537 11.9404 108.988 13.4329C107.438 14.9255 105.475 15.7215 103.203 15.7215C100.93 15.7215 98.9671 14.9255 97.4175 13.4329C95.868 12.0399 95.0415 10.1494 95.0415 7.96031ZM100 4.67672C99.1737 5.57225 98.7605 6.66677 98.7605 7.96031C98.7605 9.25384 99.1737 10.3484 100 11.2439C100.827 12.1394 101.963 12.6369 103.203 12.6369C104.546 12.6369 105.682 12.2389 106.508 11.3434C107.335 10.4479 107.748 9.35334 107.748 8.05981C107.748 6.76628 107.335 5.67175 106.508 4.77623C105.682 3.8807 104.546 3.38319 103.306 3.38319C101.86 3.38319 100.827 3.7812 100 4.67672Z" fill="#C7C7C7"/>
<path d="M97.454 15.6958L95.0435 13.374L91.4641 16.8216L93.8747 19.1434L97.454 15.6958Z" fill="#C7C7C7"/>
</symbol>

<symbol width="160" height="26" viewBox="0 0 160 26" id='Logo' fill="none" xmlns="http://www.w3.org/2000/symbol">
<path d="M15.0755 12.1605H6.08378V8.15056H14.9433C14.5466 6.85702 13.8854 5.95155 12.8276 5.30479C11.7697 4.65802 10.5796 4.39931 9.25733 4.39931C8.06725 4.39931 7.0094 4.65802 5.95155 5.04608C4.89369 5.43414 3.96807 6.08091 3.30692 6.85702L0.397825 4.01125C1.32344 2.71772 2.64576 1.81225 4.23254 1.16548C5.81931 0.518716 7.53832 0.26001 9.38956 0.26001C12.5631 0.26001 15.0755 1.16548 16.9268 2.97643C18.778 4.78737 19.7036 7.24508 19.7036 10.3496C19.7036 13.454 18.778 15.9118 16.7945 17.852C14.8111 19.663 12.2987 20.5685 9.1251 20.5685C7.27386 20.5685 5.55485 20.1804 3.96807 19.5336C2.3813 18.7575 1.05898 17.7227 0.133362 16.4292L3.17469 13.9715C4.497 15.7824 6.48047 16.5585 9.38956 16.5585C10.8441 16.5585 12.1664 16.1705 13.2243 15.5237C14.1499 14.6182 14.8111 13.5834 15.0755 12.1605Z" fill="#010000"/>
<path d="M34.9091 20.3085H30.6777V9.3135H26.5785V9.70156C26.5785 10.4777 26.5785 11.2538 26.5785 11.9006C26.5785 12.5473 26.4463 13.3235 26.3141 14.2289C26.1818 15.1344 26.0496 15.9105 25.7851 16.5573C25.5207 17.204 25.2562 17.8508 24.8595 18.4976C24.4628 19.1443 23.9339 19.5324 23.2727 19.9205C22.6116 20.3085 21.8182 20.4379 21.0248 20.4379C20.4959 20.4379 19.9669 20.4379 19.5703 20.3085V16.6866C19.7025 16.6866 19.8347 16.6866 20.0992 16.6866C20.7603 16.6866 21.2893 16.4279 21.5537 16.0399C21.8182 15.6518 22.0826 15.005 22.3471 14.2289C22.6116 13.0647 22.7438 11.2538 22.7438 8.79609V5.56226H35.0413V20.3085H34.9091Z" fill="#010000"/>
<path d="M48.7934 15.0049L51.3058 17.4626C49.7191 19.4029 47.6034 20.4378 44.8265 20.4378C42.4463 20.4378 40.4629 19.791 39.0083 18.3681C37.5538 16.9452 36.7604 15.1343 36.7604 12.8059C36.7604 10.4776 37.4215 8.66661 38.8761 7.24372C40.3306 5.82084 42.1819 5.17407 44.562 5.17407C46.6777 5.17407 48.3967 5.82084 49.7191 6.98502C51.0414 8.27855 51.7025 9.83079 51.7025 11.9004C51.7025 12.4179 51.5703 13.194 51.4381 14.2288H41.124C41.2562 15.0049 41.7852 15.5223 42.4463 15.9104C43.1075 16.2984 44.0331 16.4278 44.8265 16.4278C46.5455 16.6865 47.8678 16.1691 48.7934 15.0049ZM44.4298 8.92532C42.843 8.92532 41.7852 9.57208 41.2562 10.8656H47.4711C47.0744 9.57208 46.0166 8.92532 44.4298 8.92532Z" fill="#010000"/>
<path d="M57.7851 20.3085H53.5537V5.56226H57.2562L61.8843 11.3832L66.6446 5.56226H70.0827V20.3085H65.8513V12.6767L61.8843 17.5921L57.6529 12.6767V20.3085H57.7851Z" fill="#010000"/>
<path d="M84.0992 15.0049L86.6116 17.4626C85.0248 19.4029 82.9091 20.4378 80.1323 20.4378C77.7521 20.4378 75.7686 19.791 74.3141 18.3681C72.8596 16.9452 72.0662 15.1343 72.0662 12.8059C72.0662 10.4776 72.7273 8.66661 74.1819 7.24372C75.6364 5.82084 77.4876 5.17407 79.8678 5.17407C81.9835 5.17407 83.7025 5.82084 85.0248 6.98502C86.3471 8.27855 87.0083 9.83079 87.0083 11.9004C87.0083 12.4179 86.8761 13.194 86.7438 14.2288H76.4298C76.562 15.0049 77.091 15.5223 77.7521 15.9104C78.4133 16.2984 79.3389 16.4278 80.1323 16.4278C81.9835 16.6865 83.1736 16.1691 84.0992 15.0049ZM79.7356 8.92532C78.1488 8.92532 77.091 9.57208 76.562 10.8656H82.7769C82.3802 9.57208 81.3224 8.92532 79.7356 8.92532Z" fill="#010000"/>
<path d="M103.008 20.3085H98.7769V14.7463H92.9587V20.3085H88.7273V5.56226H92.9587V10.9951H98.7769V5.56226H103.008V20.3085Z" fill="#010000"/>
<path d="M109.62 9.31346H104.463V5.43286H119.008V9.31346H113.719V20.1791H109.488V9.31346H109.62Z" fill="#010000"/>
<path d="M148.893 25.8706H144.661V5.56217H148.893V6.33829C149.289 5.95023 149.818 5.69153 150.479 5.56217C151.141 5.43282 151.802 5.30347 152.331 5.30347C154.579 5.30347 156.43 5.95023 157.752 7.37312C159.074 8.796 159.736 10.607 159.736 12.6766C159.736 14.8756 159.074 16.8159 157.62 18.2388C156.298 19.6617 154.446 20.4378 152.198 20.4378C150.479 20.4378 149.289 20.1791 149.025 19.6617V25.8706H148.893ZM151.802 9.05471C150.479 9.05471 149.554 9.57212 148.893 10.7363V15.393C149.157 15.7811 149.554 16.0398 150.083 16.2985C150.612 16.5572 151.141 16.6866 151.669 16.6866C152.86 16.6866 153.653 16.2985 154.446 15.6517C155.107 15.005 155.504 14.0995 155.504 12.9353C155.504 11.7711 155.24 10.7363 154.579 10.0895C153.917 9.44277 152.992 9.05471 151.802 9.05471Z" fill="#010000"/>
<path d="M121.653 10.3483C121.653 7.50253 122.711 5.04482 124.694 3.10452C126.678 1.16422 129.19 0.129395 132.099 0.129395C134.083 0.129395 136.066 0.646807 137.785 1.68163C139.504 2.71646 140.826 4.13934 141.62 5.95029C142.281 7.37318 142.545 8.79606 142.545 10.2189C142.545 13.0647 141.488 15.5224 139.504 17.4627C137.521 19.403 135.008 20.4379 132.099 20.4379C129.19 20.4379 126.678 19.403 124.694 17.4627C122.711 15.6518 121.653 13.1941 121.653 10.3483ZM128 6.07964C126.942 7.24382 126.413 8.66671 126.413 10.3483C126.413 12.0299 126.942 13.4528 128 14.617C129.058 15.7811 130.512 16.4279 132.099 16.4279C133.818 16.4279 135.273 15.9105 136.331 14.7463C137.388 13.5821 137.917 12.1592 137.917 10.4777C137.917 8.79606 137.388 7.37318 136.331 6.209C135.273 5.04482 133.818 4.39805 132.231 4.39805C130.38 4.39805 129.058 4.91546 128 6.07964Z" fill="#3D8468"/>
<path d="M124.741 20.4044L121.656 17.386L117.074 21.8678L120.16 24.8862L124.741 20.4044Z" fill="#3D8668"/>
</symbol>

<symbol width="18" height="14" viewBox="0 0 18 14" id='menuOpen' fill="none" xmlns="http://www.w3.org/2000/symbol">
<rect width="17.9997" height="2" rx="1" fill="#3D8568"/>
<rect y="6" width="17.9997" height="2" rx="1" fill="#3D8568"/>
<rect y="12" width="10.1998" height="2" rx="1" fill="#3D8568"/>
</symbol>

<symbol width="14" height="14" viewBox="0 0 14 14" id='menuClosed' fill="none" xmlns="http://www.w3.org/2000/symbol">
<path d="M0.308092 0.308011C0.71875 -0.102649 1.38456 -0.102649 1.79522 0.308011L13.692 12.2049C14.1027 12.6155 14.1027 13.2813 13.692 13.692C13.2813 14.1027 12.6155 14.1027 12.2049 13.692L0.308092 1.79515C-0.102566 1.38448 -0.102567 0.718672 0.308092 0.308011Z" fill="white"/>
<path d="M0.307994 13.692C-0.102665 13.2813 -0.102665 12.6155 0.307994 12.2049L12.2048 0.307996C12.6154 -0.102665 13.2813 -0.102665 13.6919 0.307995C14.1026 0.718656 14.1026 1.38447 13.6919 1.79513L1.79512 13.692C1.38446 14.1026 0.718652 14.1026 0.307994 13.692Z" fill="white"/>
</symbol>

<symbol width="41" height="40" viewBox="0 0 41 40" id='itemCJM' fill="none" xmlns="http://www.w3.org/2000/symbol">
<g clip-path="url(#clip0)">
<path d="M3.48412 10.8497C3.48412 13.4405 5.59503 15.5483 8.1897 15.5483C10.7844 15.5483 12.8953 13.4404 12.8953 10.8497C12.8953 8.25873 10.7844 6.151 8.1897 6.151C5.59503 6.151 3.48412 8.25881 3.48412 10.8497ZM11.7216 10.8497C11.7216 12.7943 10.1372 14.3764 8.1897 14.3764C6.24223 14.3764 4.65779 12.7943 4.65779 10.8497C4.65779 8.90498 6.24223 7.32288 8.1897 7.32288C10.1372 7.32288 11.7216 8.90506 11.7216 10.8497Z" fill="#3D8568"/>
<path d="M32.0755 11.668C32.0647 11.6673 32.0539 11.667 32.0429 11.667C27.5814 11.667 23.9517 15.2921 23.9517 19.748C23.9517 22.1894 25.2053 24.0999 26.6019 26.0031C26.6057 26.0083 26.6096 26.0134 26.6135 26.0184L30.3005 30.7113C29.4126 31.2226 28.7694 32.1109 28.5921 33.1561H2.59769C1.85527 33.1561 1.25125 32.553 1.25125 31.8116C1.25125 31.0702 1.85527 30.4671 2.59769 30.4671H21.9266C23.6792 30.4671 25.1052 29.0433 25.1052 27.2931C25.1052 25.543 23.6793 24.1191 21.9266 24.1191H11.6414C11.4687 23.1016 10.8551 22.2318 10.0033 21.7148L13.473 17.298L13.6194 17.1121C13.8196 16.8577 13.7754 16.4893 13.5205 16.2893C13.2657 16.0895 12.8969 16.1336 12.6966 16.388L8.85869 21.2731C8.64204 21.2311 8.41851 21.2084 8.18966 21.2084C7.96072 21.2084 7.73711 21.2311 7.52039 21.2732L3.68866 16.3959C2.36547 14.593 1.27121 12.9298 1.27121 10.8412C1.27121 7.03211 4.37436 3.93312 8.1895 3.93312C12.0047 3.93312 15.1086 7.03211 15.1086 10.8412C15.1086 11.92 14.8221 12.9541 14.2069 14.0958C14.0533 14.3808 14.1601 14.7361 14.4456 14.8895C14.7309 15.0428 15.0868 14.9362 15.2404 14.6511C15.9512 13.332 16.2823 12.1215 16.2823 10.8412C16.2823 6.38586 12.6518 2.76117 8.18872 2.76117C3.72732 2.76125 0.0976051 6.38593 0.0976051 10.8413C0.0976051 13.2843 1.35117 15.1941 2.74783 17.0966C2.75158 17.1017 2.7555 17.1069 2.75941 17.1118L6.3759 21.7151C5.36472 22.329 4.68795 23.4396 4.68795 24.7052C4.68795 26.6333 6.25885 28.2019 8.18973 28.2019C9.92064 28.2019 11.3613 26.9411 11.6414 25.2911H21.9266C23.0322 25.2911 23.9315 26.1892 23.9315 27.2931C23.9315 28.397 23.0321 29.2952 21.9266 29.2952H2.59769C1.20807 29.2952 0.0775757 30.424 0.0775757 31.8116C0.0775757 33.1991 1.20807 34.328 2.59769 34.328H28.5921C28.8722 35.9779 30.3129 37.2387 32.0438 37.2387C33.9747 37.2387 35.5456 35.6701 35.5456 33.742C35.5456 32.4474 34.8369 31.3158 33.787 30.7113L37.4737 26.0187C37.6739 25.7642 37.6295 25.3959 37.3747 25.1959C37.1198 24.996 36.7509 25.0403 36.5506 25.2948L32.6231 30.2941C32.4345 30.2626 32.2411 30.2453 32.0437 30.2453C31.8463 30.2453 31.6529 30.2625 31.4643 30.2941L27.5428 25.3027C26.2197 23.4991 25.1253 21.8351 25.1253 19.748C25.1253 15.9481 28.2124 12.8548 32.0133 12.8391C32.0234 12.8396 32.0335 12.8398 32.0436 12.8398C35.8588 12.8398 38.9628 15.9388 38.9628 19.748C38.9628 20.8274 38.676 21.8614 38.0604 23.0022C37.9066 23.2871 38.0133 23.6425 38.2986 23.796C38.5838 23.9494 38.9399 23.843 39.0936 23.5581C39.805 22.2398 40.1365 21.0291 40.1365 19.748C40.1365 15.3032 36.5233 11.6852 32.0755 11.668ZM8.18973 27.03C6.90597 27.03 5.86155 25.9871 5.86155 24.7052C5.86155 23.4234 6.90597 22.3805 8.18973 22.3805C9.45863 22.3805 10.493 23.3995 10.5167 24.661C10.5157 24.6757 10.5145 24.6903 10.5145 24.7052C10.5145 24.7202 10.5157 24.7348 10.5167 24.7495C10.493 26.0109 9.45863 27.03 8.18973 27.03ZM34.372 33.7421C34.372 35.024 33.3275 36.0668 32.0438 36.0668C30.76 36.0668 29.7156 35.024 29.7156 33.7421C29.7156 32.4602 30.76 31.4173 32.0438 31.4173C33.3275 31.4173 34.372 32.4602 34.372 33.7421Z" fill="#3D8568"/>
<path d="M27.3383 19.756C27.3383 22.3469 29.4492 24.4546 32.0438 24.4546C34.6386 24.4546 36.7494 22.3468 36.7494 19.756C36.7494 17.1651 34.6385 15.0573 32.0438 15.0573C29.4492 15.0573 27.3383 17.1651 27.3383 19.756ZM35.5758 19.756C35.5758 21.7006 33.9914 23.2827 32.0438 23.2827C30.0964 23.2827 28.5119 21.7006 28.5119 19.756C28.5119 17.8113 30.0964 16.2292 32.0438 16.2292C33.9914 16.2292 35.5758 17.8113 35.5758 19.756Z" fill="#3D8568"/>
</g>
<defs>
<clipPath id="clip0">
<rect width="40.0589" height="40" fill="white" transform="translate(0.0775757)"/>
</clipPath>
</defs>
</symbol>

<symbol width="41" height="40" viewBox="0 0 41 40" id='itemDR' fill="none" xmlns="http://www.w3.org/2000/symbol">
<g clip-path="url(#clip0)">
<path d="M37.3189 5H23.5361C22.5992 3.82991 21.4105 2.88531 20.0583 2.23617C18.7061 1.58703 17.225 1.24999 15.7247 1.25C15.5587 1.25 15.3994 1.31585 15.2821 1.43306C15.1647 1.55027 15.0987 1.70924 15.0987 1.875V5H13.8469V4.375C13.8469 4.20924 13.781 4.05027 13.6636 3.93306C13.5462 3.81585 13.387 3.75 13.221 3.75C11.5155 3.74819 9.83809 4.184 8.34975 5.01562C8.30512 5.00524 8.25944 5 8.21362 5H2.8933C2.31248 5.00064 1.75563 5.23132 1.34493 5.64141C0.934231 6.05151 0.703218 6.60754 0.702576 7.1875V31.5625C0.703218 32.1425 0.934231 32.6985 1.34493 33.1086C1.75563 33.5187 2.31248 33.7494 2.8933 33.75H15.4258L14.6747 35.625H11.9691C11.8031 35.625 11.6439 35.6908 11.5265 35.8081C11.4092 35.9253 11.3432 36.0842 11.3432 36.25V38.125C11.3432 38.2908 11.4092 38.4497 11.5265 38.5669C11.6439 38.6842 11.8031 38.75 11.9691 38.75H28.2431C28.4091 38.75 28.5683 38.6842 28.6857 38.5669C28.803 38.4497 28.869 38.2908 28.869 38.125V36.25C28.869 36.0842 28.803 35.9253 28.6857 35.8081C28.5683 35.6908 28.4091 35.625 28.2431 35.625H25.5375L24.7864 33.75H37.3189C37.8997 33.7494 38.4566 33.5187 38.8673 33.1086C39.278 32.6985 39.509 32.1425 39.5096 31.5625V7.1875C39.509 6.60754 39.278 6.05151 38.8673 5.64141C38.4566 5.23132 37.8997 5.00064 37.3189 5ZM16.3506 2.52187C18.452 2.67519 20.4281 3.57814 21.9179 5.06583C23.4078 6.55352 24.3121 8.52668 24.4656 10.625H16.3506V2.52187ZM13.48 14.375H21.962C21.8457 15.9951 21.2801 17.5508 20.3286 18.8682C19.3771 20.1855 18.0772 21.2124 16.5744 21.8339C15.0716 22.4555 13.4252 22.6471 11.8195 22.3874C10.2139 22.1276 8.71228 21.4268 7.48285 20.3633L13.48 14.375ZM12.5951 5.02187V13.4914L6.59796 19.4797C5.5329 18.2521 4.83102 16.7527 4.5709 15.1494C4.31079 13.5461 4.50269 11.9021 5.12513 10.4015C5.74758 8.90091 6.776 7.60292 8.09527 6.65281C9.41455 5.70271 10.9726 5.13799 12.5951 5.02187ZM27.6171 36.875V37.5H12.5951V36.875H27.6171ZM16.0235 35.625L16.7746 33.75H23.4376L24.1887 35.625H16.0235ZM38.2578 31.5625C38.2576 31.8111 38.1586 32.0494 37.9826 32.2252C37.8065 32.401 37.5678 32.4998 37.3189 32.5H2.8933C2.64435 32.4998 2.40567 32.401 2.22964 32.2252C2.05361 32.0494 1.95462 31.8111 1.95442 31.5625V30.625H38.2578V31.5625ZM38.2578 29.375H1.95442V7.1875C1.95462 6.93892 2.05361 6.70059 2.22964 6.52482C2.40567 6.34905 2.64435 6.25021 2.8933 6.25H6.605C5.34928 7.35452 4.39083 8.7557 3.81726 10.3255C3.2437 11.8952 3.07332 13.5835 3.32169 15.236C3.57006 16.8885 4.22926 18.4524 5.23903 19.7849C6.24881 21.1174 7.57696 22.1759 9.10207 22.8637C10.6272 23.5515 12.3006 23.8466 13.9694 23.7221C15.6382 23.5976 17.2491 23.0574 18.6549 22.1509C20.0607 21.2444 21.2165 20.0005 22.0168 18.533C22.817 17.0654 23.2361 15.421 23.2357 13.75C23.2357 13.5842 23.1698 13.4253 23.0524 13.3081C22.935 13.1908 22.7758 13.125 22.6098 13.125H13.8469V6.25H15.0987V11.25C15.0987 11.4158 15.1647 11.5747 15.2821 11.6919C15.3994 11.8092 15.5587 11.875 15.7247 11.875H25.1135C25.2795 11.875 25.4387 11.8092 25.5561 11.6919C25.6734 11.5747 25.7394 11.4158 25.7394 11.25C25.7415 9.49404 25.2777 7.76886 24.3952 6.25H37.3189C37.5678 6.25021 37.8065 6.34905 37.9826 6.52482C38.1586 6.70059 38.2576 6.93892 38.2578 7.1875V29.375Z" fill="white"/>
<path d="M36.3809 21.25C36.3809 21.4158 36.315 21.5747 36.1976 21.6919C36.0802 21.8092 35.921 21.875 35.755 21.875H27.6181C27.4521 21.875 27.2929 21.8092 27.1755 21.6919C27.0581 21.5747 26.9921 21.4158 26.9921 21.25V13.75C26.9921 13.5842 27.0581 13.4253 27.1755 13.3081C27.2929 13.1908 27.4521 13.125 27.6181 13.125C27.7841 13.125 27.9433 13.1908 28.0607 13.3081C28.178 13.4253 28.244 13.5842 28.244 13.75V20.625H35.755C35.921 20.625 36.0802 20.6908 36.1976 20.8081C36.315 20.9253 36.3809 21.0842 36.3809 21.25Z" fill="white"/>
<path d="M29.1044 19.8631C29.1686 19.9144 29.2423 19.9526 29.3212 19.9755C29.4002 19.9984 29.4829 20.0055 29.5646 19.9964C29.6463 19.9874 29.7255 19.9624 29.7975 19.9228C29.8695 19.8832 29.933 19.8298 29.9844 19.7657L31.3734 18.0318V18.7501C31.3734 18.8778 31.4125 19.0024 31.4856 19.1072C31.5587 19.212 31.6622 19.292 31.7821 19.3363C31.9021 19.3806 32.0327 19.3872 32.1565 19.3551C32.2803 19.323 32.3913 19.2538 32.4745 19.1569L36.2301 14.7819C36.2836 14.7196 36.3242 14.6473 36.3498 14.5693C36.3753 14.4913 36.3852 14.409 36.3789 14.3272C36.3726 14.2453 36.3503 14.1655 36.3131 14.0923C36.2759 14.0191 36.2246 13.954 36.1622 13.9005C36.0998 13.8471 36.0275 13.8065 35.9494 13.781C35.8712 13.7555 35.7888 13.7456 35.7069 13.7519C35.6249 13.7582 35.545 13.7805 35.4717 13.8177C35.3984 13.8548 35.3331 13.906 35.2796 13.9683L32.6252 17.0605V16.2501C32.6253 16.1205 32.585 15.9942 32.51 15.8885C32.435 15.7828 32.329 15.703 32.2066 15.6601C32.0842 15.6173 31.9515 15.6134 31.8268 15.6491C31.7021 15.6848 31.5916 15.7583 31.5105 15.8595L29.0069 18.9845C28.9555 19.0485 28.9172 19.1221 28.8943 19.2009C28.8714 19.2798 28.8643 19.3624 28.8733 19.444C28.8824 19.5256 28.9075 19.6046 28.9471 19.6765C28.9868 19.7484 29.0402 19.8118 29.1044 19.8631Z" fill="white"/>
<path d="M27.6181 23.75H35.755C35.921 23.75 36.0802 23.6842 36.1976 23.5669C36.315 23.4497 36.3809 23.2908 36.3809 23.125C36.3809 22.9592 36.315 22.8003 36.1976 22.6831C36.0802 22.5658 35.921 22.5 35.755 22.5H27.6181C27.4521 22.5 27.2929 22.5658 27.1755 22.6831C27.0581 22.8003 26.9921 22.9592 26.9921 23.125C26.9921 23.2908 27.0581 23.4497 27.1755 23.5669C27.2929 23.6842 27.4521 23.75 27.6181 23.75Z" fill="white"/>
<path d="M27.6181 25.625H35.755C35.921 25.625 36.0802 25.5592 36.1976 25.4419C36.315 25.3247 36.3809 25.1658 36.3809 25C36.3809 24.8342 36.315 24.6753 36.1976 24.5581C36.0802 24.4408 35.921 24.375 35.755 24.375H27.6181C27.4521 24.375 27.2929 24.4408 27.1755 24.5581C27.0581 24.6753 26.9921 24.8342 26.9921 25C26.9921 25.1658 27.0581 25.3247 27.1755 25.4419C27.2929 25.5592 27.4521 25.625 27.6181 25.625Z" fill="white"/>
<path d="M27.6181 27.5H35.755C35.921 27.5 36.0802 27.4342 36.1976 27.3169C36.315 27.1997 36.3809 27.0408 36.3809 26.875C36.3809 26.7092 36.315 26.5503 36.1976 26.4331C36.0802 26.3158 35.921 26.25 35.755 26.25H27.6181C27.4521 26.25 27.2929 26.3158 27.1755 26.4331C27.0581 26.5503 26.9921 26.7092 26.9921 26.875C26.9921 27.0408 27.0581 27.1997 27.1755 27.3169C27.2929 27.4342 27.4521 27.5 27.6181 27.5Z" fill="white"/>
</g>
<defs>
<clipPath id="clip0">
<rect width="40.0589" height="40" fill="white" transform="translate(0.0775757)"/>
</clipPath>
</defs>
</symbol>

<symbol width="41" height="40" viewBox="0 0 41 40" id='itemFGD' fill="none" xmlns="http://www.w3.org/2000/symbol">
<g clip-path="url(#clip0)">
<path d="M11.8421 20.5728C11.6788 19.079 10.7868 17.7601 9.49846 17.035C9.87268 16.4428 10.0731 15.7564 10.0731 15.0406C10.0731 12.974 8.37908 11.2928 6.2968 11.2928C4.21444 11.2928 2.52047 12.974 2.52047 15.0406C2.52047 15.7563 2.72092 16.4428 3.09506 17.0349C1.80676 17.7601 0.914748 19.0789 0.751539 20.5728L0.571509 22.221C0.536301 22.5433 0.769456 22.8332 1.09227 22.8683C1.41541 22.9036 1.70536 22.6707 1.74057 22.3483L1.9206 20.7001C2.06425 19.3849 2.96464 18.2514 4.21436 17.8123C4.40425 17.7456 4.54673 17.5866 4.59203 17.3908C4.63741 17.195 4.57935 16.9897 4.43805 16.8465C3.95977 16.3618 3.69641 15.7204 3.69641 15.0406C3.69641 13.6215 4.86297 12.467 6.29688 12.467C7.73078 12.467 8.89734 13.6215 8.89734 15.0406C8.89734 15.7204 8.63391 16.3616 8.1557 16.8465C8.01448 16.9897 7.95635 17.195 8.00165 17.3908C8.04703 17.5866 8.1895 17.7456 8.37939 17.8123C9.6292 18.2514 10.5296 19.385 10.6732 20.7001L11.3369 26.7766C11.3543 26.9351 11.3051 27.0879 11.1985 27.2066C11.0918 27.3254 10.9451 27.3908 10.7854 27.3908C10.5017 27.3908 10.2645 27.1784 10.2338 26.8968L9.57505 20.8666C9.53985 20.5443 9.24997 20.3112 8.92676 20.3466C8.60402 20.3818 8.37078 20.6715 8.40599 20.994L9.37734 29.8851H8.99052C8.66575 29.8851 8.40255 30.1479 8.40255 30.4722V34.8836C8.40255 35.3014 8.06213 35.6414 7.64362 35.6414C7.22519 35.6414 6.88469 35.3015 6.88469 34.8836V30.4722C6.88469 30.1479 6.62149 29.8851 6.29672 29.8851C5.97195 29.8851 5.70875 30.1479 5.70875 30.4722V34.8836C5.70875 35.3014 5.36832 35.6414 4.94974 35.6414C4.53131 35.6414 4.19081 35.3015 4.19081 34.8836V30.4722C4.19081 30.1479 3.92761 29.8851 3.60284 29.8851H3.21602L4.18737 20.994C4.22258 20.6716 3.98942 20.3818 3.6666 20.3466C3.34347 20.3117 3.05352 20.5443 3.01831 20.8666L2.35953 26.8968C2.32878 27.1784 2.09163 27.3908 1.80801 27.3908C1.64825 27.3908 1.50155 27.3254 1.39491 27.2066C1.28827 27.0879 1.23905 26.9351 1.25642 26.7766L1.48449 24.689C1.5197 24.3667 1.28654 24.0768 0.963726 24.0417C0.640908 24.0066 0.350637 24.2393 0.315429 24.5617L0.0875163 26.6493C0.0342348 27.1367 0.191732 27.6255 0.519557 27.9905C0.847461 28.3555 1.31714 28.5649 1.80817 28.5649C1.93625 28.5649 2.06135 28.551 2.18184 28.5246L1.97607 30.4084C1.958 30.5742 2.01136 30.7399 2.12293 30.8641C2.23442 30.9883 2.39356 31.0592 2.5606 31.0592H3.01502V34.8835C3.01502 35.9488 3.88294 36.8154 4.94982 36.8154C5.47293 36.8154 5.94808 36.6072 6.29672 36.2693C6.64528 36.6072 7.12043 36.8154 7.64354 36.8154C8.71042 36.8154 9.57834 35.9488 9.57834 34.8835V31.0592H10.0328C10.1998 31.0592 10.3589 30.9883 10.4704 30.8641C10.582 30.7399 10.6354 30.5743 10.6173 30.4084L10.4114 28.5246C10.532 28.551 10.6571 28.5649 10.7853 28.5649C11.2763 28.5649 11.7459 28.3555 12.0737 27.9905C12.4016 27.6255 12.5591 27.1366 12.5058 26.6493L11.8421 20.5728Z" fill="#3D8568"/>
<path d="M40.1363 21.4655V21.343C40.1363 21.2959 40.1301 21.2502 40.1196 21.2063L39.6903 16.8277C39.5306 15.1979 38.5595 13.7723 37.1442 13.0124C37.6101 12.2933 37.8431 11.4369 37.7962 10.5683C37.6835 8.48772 35.961 6.79608 33.8747 6.71725C32.7532 6.67491 31.6904 7.07889 30.8832 7.85491C30.0758 8.63124 29.6312 9.67499 29.6312 10.7939C29.6312 11.6086 29.8697 12.3883 30.3135 13.0522C28.0548 14.4062 27.7441 16.803 27.731 16.9134C27.7306 16.9174 27.7301 16.9215 27.7297 16.9255L27.6097 18.1542C27.5781 18.4769 27.8146 18.7641 28.1378 18.7956C28.4616 18.8257 28.7486 18.591 28.7801 18.2683L28.8992 17.0477C28.9135 16.9416 29.2393 14.7374 31.4578 13.7838C31.6362 13.7072 31.7652 13.5476 31.8024 13.3573C31.8397 13.1671 31.7805 12.9707 31.6442 12.8326C31.1043 12.2854 30.807 11.5614 30.807 10.794C30.807 9.99702 31.1237 9.25374 31.6987 8.70069C32.2734 8.14811 33.0303 7.86116 33.8301 7.89061C35.3154 7.94671 36.5418 9.15077 36.6219 10.6318C36.6668 11.4611 36.3711 12.2426 35.789 12.8325C35.6469 12.9766 35.589 13.1837 35.6359 13.3805C35.6829 13.5774 35.8279 13.7362 36.0199 13.8008C37.3971 14.2647 38.3784 15.4977 38.52 16.9421L38.9571 21.4003C38.9743 21.5755 38.9221 21.7469 38.81 21.8829C38.6982 22.0189 38.5398 22.1032 38.3643 22.1202C38.1878 22.1373 38.016 22.0847 37.8796 21.972C37.7836 21.8926 37.7136 21.7903 37.6749 21.6753L37.2528 17.2462C37.2222 16.924 36.936 16.6881 36.6131 16.7173C36.2902 16.7474 36.0525 17.0327 36.082 17.3551L37.2236 29.3351H36.7184C36.3937 29.3351 36.1305 29.598 36.1305 29.9223V34.7066C36.1305 35.2047 35.7415 35.6237 35.2635 35.6407C35.0187 35.6503 34.7825 35.5602 34.6051 35.3893C34.4277 35.2183 34.3299 34.9885 34.3299 34.7423V29.9223C34.3299 29.598 34.0667 29.3351 33.7419 29.3351C33.4171 29.3351 33.1539 29.598 33.1539 29.9223V34.7422C33.1539 34.9884 33.0561 35.2182 32.8787 35.3892C32.7013 35.5601 32.4677 35.6485 32.2202 35.6406C31.7422 35.6237 31.3533 35.2046 31.3533 34.7066V29.9222C31.3533 29.5979 31.0901 29.3351 30.7653 29.3351H30.2576L31.3464 17.4042L31.3509 17.3551C31.3804 17.0322 31.1421 16.7466 30.8188 16.7172C30.4963 16.6871 30.2093 16.9255 30.1799 17.2485L29.6134 23.4526C29.5972 23.6301 29.5126 23.7905 29.3752 23.9044C29.238 24.0183 29.0647 24.0718 28.8866 24.0551C28.7089 24.0384 28.5486 23.9534 28.435 23.8159C28.3213 23.6784 28.2684 23.505 28.2857 23.3276L28.5513 20.6077C28.5827 20.2851 28.3464 19.998 28.0231 19.9664C27.6998 19.9355 27.4124 20.1711 27.3809 20.4938L27.1153 23.2137C27.0674 23.7039 27.2139 24.1832 27.5279 24.5631C27.8418 24.9431 28.2851 25.1778 28.7762 25.2241C29.009 25.246 29.2394 25.2243 29.4576 25.1619L29.0281 29.869C29.0131 30.0333 29.068 30.1963 29.1793 30.3181C29.2907 30.44 29.4483 30.5094 29.6136 30.5094H30.1774V34.7066C30.1774 35.8485 31.0563 36.7742 32.1784 36.8141C32.748 36.835 33.2863 36.6284 33.6953 36.2341C33.7111 36.2189 33.7266 36.2035 33.7419 36.1879C33.7571 36.2035 33.7726 36.2189 33.7885 36.2342C34.1792 36.6107 34.6881 36.8155 35.2289 36.8155C35.2543 36.8155 35.2798 36.815 35.3052 36.8141C36.4273 36.7741 37.3063 35.8485 37.3063 34.7066V30.5093H37.8701C38.0357 30.5093 38.1937 30.4396 38.3052 30.3172C38.4166 30.1948 38.4711 30.0312 38.4555 29.8666L37.8236 23.2357C38.0339 23.2919 38.2547 23.3106 38.4781 23.2889C38.6457 23.2726 38.8071 23.2327 38.9603 23.1741V36.2283C38.9603 36.5526 39.2235 36.8154 39.5482 36.8154C39.873 36.8154 40.1362 36.5526 40.1362 36.2283V21.4705C40.1363 21.4688 40.1363 21.4672 40.1363 21.4655Z" fill="#3D8568"/>
<path d="M25.5429 13.3979C25.3941 11.7374 24.4156 10.2746 22.98 9.4877C23.4102 8.83082 23.641 8.06309 23.641 7.2616C23.641 6.14723 23.2225 5.11691 22.4624 4.36059C21.7002 3.6023 20.6589 3.18457 19.5299 3.18457C17.2247 3.18457 15.4189 4.97543 15.4189 7.2616C15.4189 8.06309 15.6498 8.8309 16.0799 9.4877C14.6444 10.2745 13.666 11.7368 13.5174 13.3932L12.6611 22.1622C12.6041 22.6834 12.7726 23.2062 13.1231 23.5964C13.4738 23.9868 13.9759 24.2106 14.5009 24.2105C14.6796 24.2105 14.8527 24.1853 15.0168 24.1379L14.8162 26.3364C14.8012 26.5007 14.8561 26.6638 14.9674 26.7856C15.0789 26.9075 15.2364 26.9768 15.4017 26.9768H15.9655V34.6967C15.9655 35.8386 16.8444 36.7643 17.9665 36.8041C18.5347 36.8235 19.0743 36.6184 19.4833 36.2243C19.4991 36.209 19.5147 36.1936 19.5299 36.1779C19.5452 36.1936 19.5608 36.209 19.5766 36.2243C19.9673 36.6007 20.4762 36.8054 21.0168 36.8054C21.0422 36.8054 21.0678 36.805 21.0932 36.804C22.2154 36.7643 23.0943 35.8386 23.0943 34.6966V31.9318C23.0943 31.6075 22.8311 31.3446 22.5063 31.3446C22.1816 31.3446 21.9184 31.6075 21.9184 31.9318V34.6966C21.9184 35.1946 21.5294 35.6136 21.0515 35.6306C20.8045 35.64 20.5704 35.5502 20.393 35.3793C20.2155 35.2082 20.1177 34.9785 20.1177 34.7322V26.3898C20.1177 26.0655 19.8545 25.8027 19.5298 25.8027C19.205 25.8027 18.9418 26.0655 18.9418 26.3898V34.7324C18.9418 34.9786 18.8441 35.2084 18.6666 35.3794C18.4892 35.5504 18.2547 35.6391 18.0081 35.6307C17.53 35.6138 17.1412 35.1948 17.1412 34.6968V26.3898C17.1412 26.0655 16.878 25.8027 16.5532 25.8027H16.0454L17.1336 13.8794L17.1387 13.8228C17.1682 13.4999 16.9299 13.2143 16.6066 13.1849C16.2841 13.1556 15.9972 13.3933 15.9677 13.7162L15.1711 22.44C15.1317 22.7803 14.8442 23.0364 14.5006 23.0364C14.3064 23.0364 14.128 22.9568 13.9983 22.8125C13.8686 22.6682 13.8087 22.4824 13.8305 22.2829L14.688 13.5025C14.8203 12.0279 15.8095 10.7575 17.2081 10.266C17.398 10.1993 17.5404 10.0402 17.5858 9.84441C17.6311 9.64863 17.5731 9.44324 17.4318 9.30012C16.8919 8.75301 16.5945 8.02902 16.5945 7.26152C16.5945 5.6066 17.8564 4.35863 19.5297 4.35863C21.203 4.35863 22.4649 5.6066 22.4649 7.26152C22.4649 8.02894 22.1675 8.75293 21.6276 9.30012C21.4864 9.44332 21.4283 9.64863 21.4736 9.84441C21.5189 10.0403 21.6614 10.1993 21.8513 10.266C23.2499 10.7575 24.2391 12.0279 24.3717 13.5071L25.2295 22.2895C25.2506 22.4823 25.1907 22.668 25.061 22.8124C24.9313 22.9568 24.753 23.0363 24.5586 23.0363H24.5586C24.215 23.0363 23.9275 22.7801 23.8882 22.4398L23.0916 13.7161C23.0621 13.3932 22.7761 13.1545 22.4527 13.1848C22.1294 13.2143 21.8911 13.4998 21.9206 13.8227L23.014 25.8026H22.5062C22.1814 25.8026 21.9182 26.0654 21.9182 26.3897V29.5836C21.9182 29.9079 22.1814 30.1707 22.5062 30.1707C22.831 30.1707 23.0942 29.9079 23.0942 29.5836V26.9768H23.658C23.8233 26.9768 23.9808 26.9075 24.0923 26.7856C24.2037 26.6638 24.2585 26.5007 24.2436 26.3364L24.0429 24.1379C24.2069 24.1853 24.38 24.2105 24.5586 24.2105H24.5589C25.0838 24.2105 25.586 23.9867 25.9366 23.5964C26.2871 23.2061 26.4556 22.6834 26.3993 22.1689L25.5429 13.3979Z" fill="#3D8568"/>
</g>
<defs>
<clipPath id="clip0">
<rect width="40.0589" height="40" fill="white" transform="translate(0.0774994)"/>
</clipPath>
</defs>
</symbol>

<symbol width="41" height="40" viewBox="0 0 41 40" id='itemHT' fill="none" xmlns="http://www.w3.org/2000/symbol">
<g clip-path="url(#clip0)">
<path d="M29.647 32.4321C29.3226 32.4364 29.0632 32.7024 29.0675 33.0262C29.085 34.349 28.4767 35.631 27.4406 36.4554C27.3007 36.5666 27.2193 36.7355 27.2193 36.9141V39.4371C27.2193 40.171 28.3939 40.2044 28.3939 39.4371V37.1867C29.5767 36.137 30.263 34.597 30.2421 33.0109C30.2377 32.6869 29.9704 32.4251 29.647 32.4321Z" fill="white"/>
<path d="M27.5243 28.1218V26.8299C28.3481 26.8995 29.006 27.5907 29.0171 28.4303L29.0376 29.8701C29.0485 30.6362 30.2231 30.6198 30.2121 29.8534L30.1916 28.4143C30.1715 26.8934 28.9161 25.6538 27.3931 25.6508L22.5612 25.6415V24.2863C24.5732 23.5424 25.993 21.676 26.1463 19.5119C26.4855 15.2452 21.8117 12.2203 18.055 14.2679C17.4069 14.614 17.9314 15.664 18.609 15.3023C19.3271 14.9188 20.1382 14.7466 20.9554 14.8044C23.3402 14.9728 25.1433 17.0476 24.9746 19.4292C24.8646 20.982 23.926 22.3401 22.5612 23.0112V19.9847C22.5612 18.8995 21.6947 17.9876 20.6296 17.9521C19.5139 17.9129 18.5623 18.8339 18.5623 19.9478V22.9222C17.0971 22.1232 16.2029 20.536 16.3245 18.8183C16.3634 18.268 16.5034 17.7394 16.7405 17.2473C17.0592 16.5859 16.015 16.0474 15.6819 16.7388C14.2902 19.5157 15.679 23.1121 18.5622 24.2184V30.1521L16.9609 28.2132C16.2748 27.3701 14.9517 27.2874 14.136 27.9815C13.2969 28.6957 13.1962 29.9584 13.908 30.7924L18.7109 36.5205V39.4371C18.7109 40.171 19.8856 40.2044 19.8856 39.4371V36.3075C19.8856 36.1698 19.8371 36.0365 19.7486 35.931L14.8054 30.0355C14.5103 29.6898 14.5519 29.1688 14.8981 28.8741C15.2394 28.5837 15.7657 28.6242 16.0581 28.9636L18.6964 32.1583C19.0396 32.5739 19.7368 32.3239 19.7368 31.7852V19.9477C19.7368 19.4863 20.1295 19.1096 20.5903 19.1244C21.0293 19.1391 21.3865 19.525 21.3865 19.9847V28.1218C21.3865 28.8557 22.5611 28.8891 22.5611 28.1218V26.8144L23.868 26.8169V28.1218C23.868 28.8557 25.0426 28.8891 25.0426 28.1218V26.8192L26.3495 26.8217V28.1218C26.3496 28.8557 27.5243 28.8891 27.5243 28.1218Z" fill="white"/>
<path d="M37.5415 17.0462C36.5983 17.0462 35.8001 17.6766 35.5459 18.5375H29.271C29.1527 16.7845 28.5027 15.1589 27.472 13.8343L29.4027 11.9062H32.4195C32.6839 12.9875 33.662 13.7925 34.825 13.7925C38.11 13.6566 38.1089 8.98233 34.825 8.84705C33.662 8.84705 32.6839 9.652 32.4195 10.7333H29.7467V7.42061C30.6088 7.16678 31.2399 6.36966 31.2399 5.42771C31.1256 2.67123 27.1926 2.67209 27.0787 5.42771C27.0787 6.36966 27.71 7.16678 28.572 7.42061V11.0769L26.689 12.9575C25.275 11.5741 23.3824 10.6646 21.2577 10.5146C21.2503 10.514 21.2428 10.5137 21.2353 10.5132V4.86243C22.3181 4.59837 23.124 3.62162 23.124 2.46018C22.988 -0.820283 18.3074 -0.819188 18.1719 2.46018C18.1719 3.62162 18.9779 4.59837 20.0607 4.86243V10.5125C18.019 10.6493 16.0667 11.5265 14.604 12.9544L12.7239 11.0769V7.42061C13.5859 7.16678 14.2171 6.36966 14.2171 5.42771C14.1028 2.67123 10.1698 2.67209 10.0559 5.42771C10.0559 6.36966 10.6871 7.16678 11.5491 7.42061V10.7333H8.88266C8.61829 9.652 7.64018 8.84705 6.47719 8.84705C3.19221 8.98288 3.1933 13.6572 6.47719 13.7925C7.64018 13.7925 8.61829 12.9875 8.88266 11.9062H11.8932L13.8202 13.8306C12.7754 15.1715 12.1484 16.7933 12.0265 18.515C12.0259 18.5225 12.0257 18.53 12.0251 18.5375H5.77317C5.51906 17.6766 4.72083 17.0463 3.7775 17.0463C1.01728 17.1604 1.01814 21.088 3.7775 21.2018C4.72075 21.2018 5.51898 20.5714 5.7731 19.7105H12.0239C12.1474 21.577 12.8714 23.3441 14.1204 24.7812C14.5591 25.286 15.0534 25.7385 15.5896 26.1262C16.1949 26.5639 16.8943 25.6214 16.2785 25.1762C15.8151 24.841 15.3875 24.4496 15.0076 24.0125C10.81 19.2563 14.3325 11.6728 20.643 11.6659C24.9131 11.6659 28.399 15.3956 28.0977 19.6502C28.0016 21.0059 27.5395 22.3063 26.7613 23.4107C26.3383 24.0109 27.2798 24.7134 27.722 24.0857C28.6233 22.8067 29.1584 21.3015 29.2696 19.7329C29.2701 19.7255 29.2703 19.7181 29.2709 19.7105H35.546C36.2655 21.9813 39.5641 21.5316 39.6223 19.1241C39.6222 17.9783 38.6888 17.0462 37.5415 17.0462ZM11.2307 5.42763C11.2307 4.92874 11.637 4.52283 12.1366 4.52283C13.3384 4.57256 13.3381 6.28294 12.1366 6.33251C11.6371 6.33251 11.2307 5.9266 11.2307 5.42763ZM6.47727 12.6195C5.75963 12.6195 5.17582 12.0364 5.17582 11.3198C5.24732 9.59546 7.70745 9.59586 7.77864 11.3198C7.77864 12.0364 7.19483 12.6195 6.47727 12.6195ZM3.77758 20.0288C3.27803 20.0288 2.87168 19.6229 2.87168 19.124C2.92141 17.9236 4.63399 17.924 4.68356 19.124C4.68348 19.6229 4.27712 20.0288 3.77758 20.0288ZM19.3466 2.46018C19.3466 1.74344 19.9304 1.16041 20.648 1.16041C22.3744 1.23181 22.374 3.68879 20.648 3.75995C19.9304 3.75995 19.3466 3.17685 19.3466 2.46018ZM34.825 10.02C35.5427 10.02 36.1265 10.6031 36.1265 11.3198C36.055 13.0441 33.5948 13.0437 33.5236 11.3198C33.5236 10.603 34.1074 10.02 34.825 10.02ZM28.2534 5.42763C28.2534 4.92874 28.6598 4.52283 29.1593 4.52283C30.3611 4.57256 30.3608 6.28294 29.1593 6.33251C28.6598 6.33251 28.2534 5.9266 28.2534 5.42763ZM37.5415 20.0288C37.042 20.0288 36.6356 19.6229 36.6356 19.124C36.6854 17.9236 38.3979 17.924 38.4476 19.124C38.4475 19.6229 38.0411 20.0288 37.5415 20.0288Z" fill="white"/>
</g>
<defs>
<clipPath id="clip0">
<rect width="40.0589" height="40" fill="white" transform="translate(0.636963)"/>
</clipPath>
</defs>
</symbol>

<symbol width="41" height="40" viewBox="0 0 41 40" id='itemIDI' fill="none" xmlns="http://www.w3.org/2000/symbol">
<path d="M33.0914 9.39368C32.7673 9.39368 32.5046 9.65602 32.5046 9.97962V36.2829C32.5046 36.3051 32.4865 36.3232 32.4642 36.3232H11.7672C11.4431 36.3232 11.1804 36.5855 11.1804 36.9091C11.1804 37.2327 11.4431 37.4951 11.7672 37.4951H32.4642C33.1336 37.4951 33.6782 36.9513 33.6782 36.2829V9.97962C33.6782 9.65602 33.4154 9.39368 33.0914 9.39368Z" fill="white"/>
<path d="M34.973 2.505H29.5713L27.602 0.538517C27.2542 0.19125 26.7919 0 26.3 0H6.12254C5.45312 0 4.90857 0.543751 4.90857 1.21219V36.2828C4.90857 36.9512 5.45312 37.495 6.12254 37.495H7.41726V38.7878C7.41726 39.4562 7.96181 40 8.63124 40H34.973C35.6424 40 36.1869 39.4562 36.1869 38.7878V3.71727C36.1869 3.04883 35.6424 2.505 34.973 2.505ZM26.7792 1.37422L32.3019 6.88884H26.8196C26.7973 6.88884 26.7792 6.8708 26.7792 6.84853V1.37422ZM35.0133 38.7879C35.0133 38.8102 34.9953 38.8282 34.973 38.8282H8.63124C8.60894 38.8282 8.59086 38.8102 8.59086 38.7879V37.4951H9.25825C9.58232 37.4951 9.84505 37.2327 9.84505 36.9091C9.84505 36.5855 9.58232 36.3232 9.25825 36.3232H6.12254C6.10024 36.3232 6.08217 36.3052 6.08217 36.2829V1.21219C6.08217 1.18992 6.10024 1.17188 6.12254 1.17188H25.6056V6.84853C25.6056 7.51697 26.1501 8.06072 26.8196 8.06072H33.0914C33.4155 8.06072 33.6783 7.79838 33.6783 7.47478V7.36736C33.6783 6.87634 33.4867 6.41462 33.1389 6.06736L30.7449 3.67688H34.973C34.9953 3.67688 35.0133 3.69493 35.0133 3.7172V38.7879Z" fill="white"/>
<path d="M16.5724 6.69376C16.3433 6.46493 15.9717 6.46493 15.7426 6.69376L12.423 10.0085C12.4072 10.0242 12.3816 10.0242 12.3659 10.0085L11.0425 8.68713H12.0612C12.3853 8.68713 12.648 8.42478 12.648 8.10119C12.648 7.77759 12.3853 7.51525 12.0612 7.51525H10.5128C10.3252 7.51525 10.1481 7.55923 9.98924 7.63548L9.67338 7.32009C9.44422 7.09126 9.07265 7.09126 8.84357 7.32009C8.6144 7.54892 8.6144 7.91994 8.84357 8.14869L9.30487 8.60931C9.30112 8.64814 9.29892 8.68752 9.29892 8.72736V12.4849C9.29892 13.1534 9.84348 13.6971 10.5129 13.6971H14.276C14.9454 13.6971 15.49 13.1534 15.49 12.4849V8.60322L16.5724 7.52236C16.8016 7.29353 16.8016 6.92251 16.5724 6.69376ZM14.3164 12.485C14.3164 12.5073 14.2983 12.5253 14.276 12.5253H10.5129C10.4906 12.5253 10.4725 12.5073 10.4725 12.485V9.7751L11.536 10.8371C11.7727 11.0734 12.0836 11.1916 12.3945 11.1916C12.7053 11.1916 13.0162 11.0734 13.2529 10.8371L14.3164 9.7751V12.485Z" fill="white"/>
<path d="M14.2757 15.6564H10.5126C9.84314 15.6564 9.29858 16.2002 9.29858 16.8686V20.6262C9.29858 21.2947 9.84314 21.8384 10.5126 21.8384H14.2757C14.9451 21.8384 15.4897 21.2947 15.4897 20.6262V16.8686C15.4897 16.2003 14.9451 15.6564 14.2757 15.6564ZM14.3161 20.6262C14.3161 20.6485 14.298 20.6665 14.2757 20.6665H10.5126C10.4903 20.6665 10.4722 20.6485 10.4722 20.6262V16.8686C10.4722 16.8464 10.4903 16.8283 10.5126 16.8283H14.2757C14.298 16.8283 14.3161 16.8464 14.3161 16.8686V20.6262Z" fill="white"/>
<path d="M14.2757 23.7979H10.5126C9.84314 23.7979 9.29858 24.3417 9.29858 25.0101V28.7677C9.29858 29.4361 9.84314 29.9799 10.5126 29.9799H14.2757C14.9451 29.9799 15.4897 29.436 15.4897 28.7677V25.0101C15.4897 24.3417 14.9451 23.7979 14.2757 23.7979ZM14.3161 28.7677C14.3161 28.79 14.298 28.808 14.2757 28.808H10.5126C10.4903 28.808 10.4722 28.7899 10.4722 28.7677V25.0101C10.4722 24.9878 10.4903 24.9698 10.5126 24.9698H14.2757C14.298 24.9698 14.3161 24.9878 14.3161 25.0101V28.7677Z" fill="white"/>
<path d="M23.6835 8.76761H18.0388C17.7148 8.76761 17.452 9.02995 17.452 9.35355C17.452 9.67714 17.7147 9.93949 18.0388 9.93949H23.6835C24.0075 9.93949 24.2703 9.67714 24.2703 9.35355C24.2703 9.02995 24.0075 8.76761 23.6835 8.76761Z" fill="white"/>
<path d="M28.7009 11.2727H18.0388C17.7148 11.2727 17.452 11.5351 17.452 11.8587C17.452 12.1823 17.7147 12.4446 18.0388 12.4446H28.7009C29.025 12.4446 29.2877 12.1823 29.2877 11.8587C29.2877 11.5351 29.0251 11.2727 28.7009 11.2727Z" fill="white"/>
<path d="M23.6835 16.9091H18.0388C17.7148 16.9091 17.452 17.1714 17.452 17.495C17.452 17.8186 17.7147 18.0809 18.0388 18.0809H23.6835C24.0075 18.0809 24.2703 17.8186 24.2703 17.495C24.2703 17.1714 24.0075 16.9091 23.6835 16.9091Z" fill="white"/>
<path d="M28.7009 19.4141H18.0388C17.7148 19.4141 17.452 19.6764 17.452 20C17.452 20.3236 17.7147 20.586 18.0388 20.586H28.7009C29.025 20.586 29.2877 20.3236 29.2877 20C29.2877 19.6764 29.0251 19.4141 28.7009 19.4141Z" fill="white"/>
<path d="M23.6835 25.0504H18.0388C17.7148 25.0504 17.452 25.3128 17.452 25.6364C17.452 25.9599 17.7147 26.2223 18.0388 26.2223H23.6835C24.0075 26.2223 24.2703 25.9599 24.2703 25.6364C24.2703 25.3128 24.0075 25.0504 23.6835 25.0504Z" fill="white"/>
<path d="M28.7009 27.5555H18.0388C17.7148 27.5555 17.452 27.8178 17.452 28.1414C17.452 28.465 17.7147 28.7274 18.0388 28.7274H28.7009C29.025 28.7274 29.2877 28.465 29.2877 28.1414C29.2877 27.8178 29.0251 27.5555 28.7009 27.5555Z" fill="white"/>
</symbol>

<symbol width="41" height="40" viewBox="0 0 41 40" id='itemMS' fill="none" xmlns="http://www.w3.org/2000/symbol">
<g clip-path="url(#clip0)">
<path d="M40.4669 29.7603L33.7382 23.0415C33.6081 22.9176 33.4195 22.8114 33.185 22.8126H28.9296C31.8483 20.3897 33.5831 16.7793 33.5831 12.8975C33.5831 5.78584 27.7888 0 20.6666 0C13.5445 0 7.75012 5.78584 7.75012 12.8975C7.75012 16.7794 9.48492 20.3897 12.4037 22.8126H8.14828C7.96879 22.8169 7.75982 22.8751 7.59504 23.0415L0.866352 29.7603C0.560826 30.0654 0.560826 30.56 0.866352 30.8652C1.17196 31.1703 1.66721 31.1703 1.9729 30.8652L7.36596 25.4801V37.6563C7.36596 38.9487 8.41891 40.0001 9.71315 40.0001H31.6203C32.9145 40.0001 33.9675 38.9487 33.9675 37.6563V25.48L39.3605 30.8651C39.6661 31.1702 40.1614 31.1702 40.4671 30.8651C40.7725 30.56 40.7725 30.0654 40.4669 29.7603ZM31.9191 24.3751L29.3372 29.5314H11.9962L9.41427 24.3751L31.9191 24.3751ZM9.31491 12.8975C9.31491 6.6474 14.4073 1.56249 20.6666 1.56249C26.926 1.56249 32.0183 6.6474 32.0183 12.8975C32.0183 17.0295 29.7807 20.8105 26.1673 22.8126H15.166C11.5526 20.8105 9.31491 17.0296 9.31491 12.8975ZM31.6202 38.4375H9.71307C9.28166 38.4375 8.93067 38.087 8.93067 37.6563V36.8749H11.6687C12.1007 36.8749 12.4511 36.5252 12.4511 36.0937C12.4511 35.6622 12.1007 35.3124 11.6687 35.3124H8.93067V26.9033L10.8128 30.6621C10.9453 30.9268 11.2162 31.0939 11.5126 31.0939H29.8207C30.117 31.0939 30.3879 30.9268 30.5205 30.6621L32.4026 26.9033V37.6563C32.4026 38.087 32.0516 38.4375 31.6202 38.4375Z" fill="#3D8568"/>
<path d="M26.5341 9.30501C26.5341 7.74009 25.9237 6.26876 24.8152 5.16196C23.7068 4.05516 22.2332 3.44563 20.6661 3.44563C19.0989 3.44563 17.6254 4.05516 16.5169 5.16196C15.4085 6.26876 14.7981 7.74009 14.7981 9.30501C14.7981 10.5974 15.851 11.6488 17.1453 11.6488C18.4395 11.6488 19.4925 10.5974 19.4925 9.30501C19.4925 8.9918 19.6145 8.69759 19.8362 8.47626C20.0578 8.25501 20.3525 8.13313 20.6661 8.13313C20.9797 8.13313 21.2744 8.25501 21.4961 8.47634C21.7176 8.69759 21.8397 8.9918 21.8397 9.30501C21.8397 9.46415 21.8103 9.61509 21.7522 9.75384C21.6931 9.89524 21.6018 10.0281 21.4811 10.1486C20.4143 11.2138 19.7883 11.9348 19.3206 12.6369C18.6372 13.6624 18.3189 14.6354 18.3189 15.699C18.3189 16.2988 18.546 16.8466 18.9185 17.2616C18.546 17.6766 18.3189 18.2245 18.3189 18.8246C18.3189 20.117 19.3718 21.1684 20.6661 21.1684C21.9603 21.1684 23.0133 20.117 23.0133 18.8246V18.8241C23.0133 18.2242 22.7862 17.6765 22.4137 17.2616C22.7862 16.8466 23.0133 16.2988 23.0133 15.6991C23.0133 15.6287 23.0504 15.4891 23.2271 15.2238C23.5605 14.7235 24.2094 14.053 24.8003 13.463C25.3491 12.9149 25.7801 12.2721 26.0812 11.5525C26.3818 10.8341 26.5341 10.078 26.5341 9.30501ZM21.4485 18.8246C21.4485 19.2554 21.0975 19.6059 20.6661 19.6059C20.2347 19.6059 19.8837 19.2554 19.8837 18.824C19.8837 18.3932 20.2347 18.0427 20.6661 18.0427C21.0975 18.0427 21.4485 18.3932 21.4485 18.824V18.8246ZM24.6373 10.9502C24.4153 11.4809 24.0978 11.9546 23.6938 12.3581C22.7669 13.2836 22.2543 13.8631 21.9244 14.3581C21.5997 14.8454 21.4485 15.2715 21.4485 15.699C21.4485 16.1298 21.0975 16.4802 20.6661 16.4802C20.2347 16.4802 19.8837 16.1298 19.8837 15.699C19.8837 14.9475 20.1118 14.2701 20.6234 13.5024C21.0299 12.8922 21.599 12.2406 22.5876 11.2534C22.8532 10.9882 23.058 10.6863 23.1961 10.3562C23.3343 10.0257 23.4044 9.67204 23.4044 9.30501C23.4044 8.57438 23.1195 7.88766 22.6024 7.37141C22.0854 6.85501 21.3977 6.57063 20.666 6.57063C19.9343 6.57063 19.2467 6.85501 18.7296 7.37134C18.2125 7.88766 17.9276 8.57438 17.9276 9.30493C17.9276 9.73571 17.5766 10.0862 17.1452 10.0862C16.7138 10.0862 16.3628 9.73571 16.3628 9.30493C16.3628 8.15743 16.8105 7.07837 17.6233 6.26673C18.4362 5.45501 19.5167 5.00805 20.666 5.00805C21.8153 5.00805 22.8958 5.45509 23.7087 6.26673C24.5216 7.07837 24.9692 8.15735 24.9692 9.30493C24.9693 9.87009 24.8576 10.4236 24.6373 10.9502Z" fill="#3D8568"/>
<path d="M15.1875 35.3124C14.7561 35.3124 14.4063 35.6622 14.4063 36.0937C14.4063 36.5251 14.7561 36.8749 15.1875 36.8749H15.1882C15.6196 36.8749 15.9691 36.5251 15.9691 36.0937C15.9691 35.6622 15.619 35.3124 15.1875 35.3124Z" fill="#3D8568"/>
</g>
<defs>
<clipPath id="clip0">
<rect width="40.0589" height="40" fill="white" transform="translate(0.636963)"/>
</clipPath>
</defs>
</symbol>

<symbol width="46" height="33" viewBox="0 0 46 33" id='itemOA' fill="none" xmlns="http://www.w3.org/2000/symbol">
<path d="M45.0432 20.7256C44.6785 20.7256 44.383 21.0207 44.383 21.3847V24.7248C44.383 25.7685 43.5328 26.6176 42.4876 26.6176H40.0141C39.4148 26.6176 38.9273 27.1044 38.9273 27.7027V31.1588L33.9819 26.8824C33.7845 26.7116 33.5318 26.6176 33.2705 26.6176H25.9235C25.5588 26.6176 25.2633 26.9127 25.2633 27.2767C25.2633 27.6408 25.5588 27.9359 25.9235 27.9359H33.1835L38.4494 32.4895C39.1375 33.0848 40.2476 32.5803 40.2476 31.6693V27.9359H42.4875C44.2608 27.9359 45.7033 26.4955 45.7033 24.7248V21.3847C45.7033 21.0207 45.4079 20.7256 45.0432 20.7256Z" fill="#3D8568"/>
<path d="M42.4875 8.15818H29.4832V3.46368C29.4832 1.69313 28.0406 0.252686 26.2675 0.252686H9.93953C9.57495 0.252686 9.27938 0.547822 9.27938 0.911865C9.27938 1.27591 9.57495 1.57104 9.93953 1.57104H26.2674C27.3126 1.57104 28.1628 2.42007 28.1628 3.46368V16.8193C28.1628 17.8629 27.3126 18.7119 26.2674 18.7119H13.0697C12.8085 18.7119 12.5558 18.806 12.3582 18.9768L7.41292 23.2532V19.7972C7.41292 19.1988 6.92538 18.712 6.32614 18.712H3.85269C2.80754 18.712 1.95726 17.863 1.95726 16.8194V3.46368C1.95726 2.42007 2.80754 1.57104 3.85269 1.57104H7.06242C7.427 1.57104 7.72257 1.27591 7.72257 0.911865C7.72257 0.547822 7.427 0.252686 7.06242 0.252686H3.85269C2.07952 0.252686 0.636963 1.69313 0.636963 3.46368V16.8193C0.636963 18.5898 2.07952 20.0303 3.85269 20.0303H6.09262V23.7636C6.09262 24.674 7.20193 25.1796 7.89078 24.5839L13.1568 20.0303H16.8569V24.7248C16.8569 26.4954 18.2995 27.9359 20.0727 27.9359H23.0462C23.4108 27.9359 23.7064 27.6407 23.7064 27.2767C23.7064 26.9126 23.4108 26.6175 23.0462 26.6175H20.0727C19.0275 26.6175 18.1772 25.7684 18.1772 24.7248V20.0303H26.2674C28.0406 20.0303 29.4831 18.5898 29.4831 16.8193V9.47654H42.4874C43.5325 9.47654 44.3828 10.3257 44.3828 11.3693V18.512C44.3828 18.876 44.6783 19.1711 45.043 19.1711C45.4076 19.1711 45.7031 18.876 45.7031 18.512V11.3693C45.7032 9.59871 44.2606 8.15818 42.4875 8.15818Z" fill="#3D8568"/>
<path d="M32.5294 13.4741H40.686C41.0507 13.4741 41.3461 13.179 41.3461 12.8149C41.3461 12.4509 41.0507 12.1558 40.686 12.1558H32.5294C32.1648 12.1558 31.8693 12.4509 31.8693 12.8149C31.8693 13.179 32.1648 13.4741 32.5294 13.4741Z" fill="#3D8568"/>
<path d="M32.5294 18.3846H40.686C41.0507 18.3846 41.3461 18.0894 41.3461 17.7254C41.3461 17.3614 41.0507 17.0662 40.686 17.0662H32.5294C32.1648 17.0662 31.8693 17.3614 31.8693 17.7254C31.8693 18.0895 32.1648 18.3846 32.5294 18.3846Z" fill="#3D8568"/>
<path d="M21.1308 22.636C21.1308 23 21.4264 23.2952 21.791 23.2952H40.686C41.0506 23.2952 41.3461 23 41.3461 22.636C41.3461 22.2719 41.0506 21.9768 40.686 21.9768H21.791C21.4264 21.9768 21.1308 22.2719 21.1308 22.636Z" fill="#3D8568"/>
<path d="M15.0592 15.5521C15.4273 15.5521 15.7257 15.2537 15.7257 14.8856C15.7257 14.5175 15.4273 14.2191 15.0592 14.2191C14.6912 14.2191 14.3928 14.5175 14.3928 14.8856C14.3928 15.2537 14.6912 15.5521 15.0592 15.5521Z" fill="#3D8568"/>
<path d="M18.2 6.99078C18.1151 5.35655 16.7641 4.05067 15.1244 4.01771C13.5309 3.98484 12.1654 5.14737 11.9456 6.71999C11.9255 6.86387 11.9153 7.01091 11.9153 7.15699C11.9153 7.52103 12.2109 7.81617 12.5755 7.81617C12.9401 7.81617 13.2356 7.52103 13.2356 7.15699C13.2356 7.07156 13.2415 6.98577 13.2532 6.9021C13.3806 5.99059 14.1738 5.31761 15.0978 5.33589C16.0488 5.35496 16.8322 6.11197 16.8815 7.05916C16.9077 7.56471 16.7306 8.04468 16.3827 8.41057C16.0345 8.77681 15.5647 8.97843 15.0598 8.97843C14.6953 8.97843 14.3997 9.27357 14.3997 9.63761V12.2316C14.3997 12.5957 14.6953 12.8908 15.0598 12.8908C15.4244 12.8908 15.72 12.5957 15.72 12.2316V10.226C16.3339 10.0933 16.9027 9.77841 17.3402 9.3183C17.9399 8.68751 18.2452 7.8609 18.2 6.99078Z" fill="#3D8568"/>
</symbol>

<symbol width="17" height="16" viewBox="0 0 17 16" id='buttonGrey' fill="none" xmlns="http://www.w3.org/2000/symbol">
<path d="M4.84922 13.1822L2.93103 11.3316L0.0505982 14.1106L1.96878 15.9613L4.84922 13.1822Z" fill="#95C2B0"/>
<path fill-rule="evenodd" clip-rule="evenodd" d="M9.39624 10.6652C11.6083 10.6652 13.4016 8.87455 13.4016 6.66573C13.4016 4.4569 11.6083 2.66629 9.39624 2.66629C7.18416 2.66629 5.39092 4.4569 5.39092 6.66573C5.39092 8.87455 7.18416 10.6652 9.39624 10.6652ZM9.39624 13.3315C13.083 13.3315 16.0718 10.3471 16.0718 6.66573C16.0718 2.98435 13.083 0 9.39624 0C5.70944 0 2.7207 2.98435 2.7207 6.66573C2.7207 10.3471 5.70944 13.3315 9.39624 13.3315Z" fill="#95C2B0"/>
</symbol>

<symbol width="17" height="16" viewBox="0 0 17 16" id='button' fill="none" xmlns="http://www.w3.org/2000/symbol">
<path d="M5.21471 13.1822L3.29652 11.3316L0.416092 14.1106L2.33428 15.9612L5.21471 13.1822Z" fill="#3D8568"/>
<path fill-rule="evenodd" clip-rule="evenodd" d="M9.76177 10.6652C11.9738 10.6652 13.7671 8.87455 13.7671 6.66573C13.7671 4.4569 11.9738 2.66629 9.76177 2.66629C7.54969 2.66629 5.75644 4.4569 5.75644 6.66573C5.75644 8.87455 7.54969 10.6652 9.76177 10.6652ZM9.76177 13.3315C13.4486 13.3315 16.4373 10.3471 16.4373 6.66573C16.4373 2.98435 13.4486 0 9.76177 0C6.07497 0 3.08623 2.98435 3.08623 6.66573C3.08623 10.3471 6.07497 13.3315 9.76177 13.3315Z" fill="#3D8568"/>
</symbol>

<symbol width="45" height="45" viewBox="0 0 45 45" id='itemAnalysis' fill="none" xmlns="http://www.w3.org/2000/symbol">
<path d="M26.0156 1.40625C25.8291 1.40625 25.6503 1.48033 25.5184 1.61219C25.3866 1.74405 25.3125 1.9229 25.3125 2.10938V9.14062C25.3125 9.3271 25.3866 9.50595 25.5184 9.63781C25.6503 9.76967 25.8291 9.84375 26.0156 9.84375C28.439 9.84649 30.7624 10.8104 32.476 12.524C34.1896 14.2376 35.1535 16.561 35.1562 18.9844C35.1563 19.1709 35.2303 19.3497 35.3622 19.4816C35.4941 19.6134 35.6729 19.6875 35.8594 19.6875H42.8906C43.0771 19.6875 43.2559 19.6134 43.3878 19.4816C43.5197 19.3497 43.5937 19.1709 43.5938 18.9844C43.5938 9.29177 35.7082 1.40625 26.0156 1.40625ZM36.5393 18.2812C36.3656 15.7339 35.2751 13.3357 33.4697 11.5303C31.6643 9.7249 29.2661 8.63444 26.7188 8.46067V2.82761C35.0777 3.18707 41.8129 9.92228 42.1724 18.2812H36.5393Z" fill="#3D8568"/>
<path d="M1.40625 3.51562H2.8125V4.92188H1.40625V3.51562Z" fill="#3D8568"/>
<path d="M4.21875 3.51562H7.73438V4.92188H4.21875V3.51562Z" fill="#3D8568"/>
<path d="M32.071 37.2368C34.5278 35.6421 36.5472 33.4587 37.9455 30.885C39.3439 28.3113 40.077 25.429 40.0781 22.5C40.0781 22.3135 40.004 22.1347 39.8722 22.0028C39.7403 21.871 39.5615 21.7969 39.375 21.7969H32.3438C32.1573 21.7969 31.9784 21.871 31.8466 22.0028C31.7147 22.1347 31.6406 22.3135 31.6406 22.5C31.6406 24.3079 31.1045 26.0751 30.1002 27.5783C29.0958 29.0814 27.6682 30.253 25.998 30.9448C24.3277 31.6367 22.4899 31.8177 20.7168 31.465C18.9436 31.1123 17.3149 30.2417 16.0366 28.9634C14.7583 27.6851 13.8877 26.0564 13.535 24.2833C13.1823 22.5101 13.3633 20.6723 14.0552 19.002C14.747 17.3318 15.9186 15.9042 17.4217 14.8999C18.9249 13.8955 20.6922 13.3594 22.5 13.3594C22.6865 13.3594 22.8653 13.2853 22.9972 13.1534C23.129 13.0216 23.2031 12.8427 23.2031 12.6563V5.62501C23.2031 5.43853 23.129 5.25969 22.9972 5.12783C22.8653 4.99596 22.6865 4.92188 22.5 4.92188C18.3979 4.91808 14.4248 6.35564 11.2748 8.98343L8.85936 7.17185C8.73764 7.0806 8.58962 7.03127 8.4375 7.03126H1.40625V8.43751H8.20314L10.2117 9.94394C8.35045 11.7616 6.91645 13.9703 6.01342 16.4101C5.11039 18.8499 4.76089 21.46 4.99021 24.0514C5.21952 26.6429 6.02191 29.151 7.33935 31.3943C8.65679 33.6377 10.4563 35.5602 12.6078 37.0228L10.9588 38.6719H1.40625V40.0781H11.25C11.4365 40.0781 11.6153 40.0041 11.7472 39.8722L13.8318 37.7876C16.4056 39.2499 19.3075 40.0373 22.2675 40.0766C25.2274 40.1158 28.1492 39.4057 30.7609 38.0121L33.3281 39.9375C33.4499 40.0288 33.5979 40.0781 33.75 40.0781H42.8906V38.6719H33.9844L32.071 37.2368ZM33.0237 23.2031H38.6568C38.2973 31.5621 31.5621 38.2963 23.2031 38.6558V33.0231C25.7504 32.8495 28.1486 31.7592 29.9541 29.9539C31.7595 28.1485 32.85 25.7504 33.0237 23.2031ZM21.7969 6.34324V11.9763C19.2496 12.15 16.8515 13.2405 15.0461 15.0459C13.2408 16.8514 12.1505 19.2496 11.977 21.7969H6.34418C6.70366 13.4379 13.4379 6.7027 21.7969 6.34324ZM6.34434 23.2031H11.9771C12.1506 25.7503 13.2409 28.1485 15.0462 29.9538C16.8516 31.7591 19.2497 32.8494 21.7969 33.0229V38.6557C13.4379 38.2962 6.70382 31.5621 6.34434 23.2031Z" fill="#3D8568"/>
<path d="M41.4844 42.1875H42.8906V43.5938H41.4844V42.1875Z" fill="#3D8568"/>
<path d="M34.4531 42.1875H40.0781V43.5938H34.4531V42.1875Z" fill="#3D8568"/>
<path d="M1.40625 42.1875H2.8125V43.5938H1.40625V42.1875Z" fill="#3D8568"/>
<path d="M4.21875 42.1875H9.84375V43.5938H4.21875V42.1875Z" fill="#3D8568"/>
<path d="M28.8281 25.3125V14.0625C28.8281 13.876 28.754 13.6972 28.6222 13.5653C28.4903 13.4335 28.3115 13.3594 28.125 13.3594H25.3125C25.126 13.3594 24.9472 13.4335 24.8153 13.5653C24.6835 13.6972 24.6094 13.876 24.6094 14.0625V15.4688H22.5C22.3135 15.4688 22.1347 15.5428 22.0028 15.6747C21.871 15.8066 21.7969 15.9854 21.7969 16.1719V18.2812H19.6875C19.501 18.2813 19.3222 18.3553 19.1903 18.4872C19.0585 18.6191 18.9844 18.7979 18.9844 18.9844V20.3906H16.875C16.6885 20.3906 16.5097 20.4647 16.3778 20.5966C16.246 20.7284 16.1719 20.9073 16.1719 21.0938V25.3125C16.1719 25.499 16.246 25.6778 16.3778 25.8097C16.5097 25.9415 16.6885 26.0156 16.875 26.0156H28.125C28.3115 26.0156 28.4903 25.9415 28.6222 25.8097C28.754 25.6778 28.8281 25.499 28.8281 25.3125ZM17.5781 21.7969H18.9844V24.6094H17.5781V21.7969ZM20.3906 19.6875H21.7969V24.6094H20.3906V19.6875ZM23.2031 16.875H24.6094V24.6094H23.2031V16.875ZM27.4219 24.6094H26.0156V14.7656H27.4219V24.6094Z" fill="#3D8568"/>
<path d="M20.3906 26.7188H21.7969V28.125H20.3906V26.7188Z" fill="#3D8568"/>
<path d="M17.5781 26.7188H18.9844V28.125H17.5781V26.7188Z" fill="#3D8568"/>
<path d="M23.2031 26.7188H24.6094V28.125H23.2031V26.7188Z" fill="#3D8568"/>
<path d="M26.0156 26.7188H27.4219V28.125H26.0156V26.7188Z" fill="#3D8568"/>
</symbol>

<symbol width="45" height="45" viewBox="0 0 45 45" id='itemMeasuring' fill="none" xmlns="http://www.w3.org/2000/symbol">
<g clip-path="url(#clip0)">
<path d="M37.9577 32.556C37.6998 32.2982 37.2819 32.2981 37.0239 32.5557L35.0882 30.62C37.4359 27.356 38.7034 23.4515 38.7034 19.3516C38.7034 18.3782 38.6293 17.4023 38.4848 16.4428C41.1273 15.3987 43.0545 12.9251 43.3074 9.98007H44.3397C44.7045 9.98007 45.0002 9.6844 45.0002 9.31957C45.0002 7.32823 44.3809 5.42839 43.2092 3.82544C42.994 3.53092 42.5808 3.46676 42.2863 3.68191C41.9919 3.89716 41.9276 4.31042 42.1429 4.60494C43.0176 5.80184 43.5335 7.19183 43.6525 8.65907H36.3408V1.34763C37.8207 1.4676 39.2209 1.9909 40.4246 2.87903C40.718 3.0956 41.1315 3.03319 41.3482 2.73973C41.5648 2.44626 41.5024 2.03273 41.2089 1.81617C39.5987 0.627978 37.6869 0 35.6803 0C35.3154 0 35.0198 0.295752 35.0198 0.660498V1.69277C33.3294 1.83788 31.7948 2.53556 30.596 3.60255C27.3028 1.24427 23.4277 0 19.3517 0C14.1826 0 9.323 2.01296 5.66798 5.66798C2.01296 9.323 0 14.1826 0 19.3518C0 24.9695 2.43738 30.3029 6.68725 33.9843C6.96173 34.2224 7.3793 34.194 7.61889 33.9175C7.85769 33.6418 7.8278 33.2247 7.55209 32.9859C3.59209 29.5556 1.32091 24.5862 1.32091 19.3518C1.32091 9.40957 9.40948 1.321 19.3517 1.321C23.0888 1.321 26.6447 2.44301 29.6807 4.57225C29.1782 5.20576 28.7742 5.92014 28.4909 6.6927C25.8433 4.7816 22.6346 3.7386 19.3517 3.7386C15.9739 3.7386 12.7588 4.7998 10.0543 6.80748C9.7614 7.02492 9.70022 7.43854 9.91767 7.73147C10.1351 8.02433 10.5487 8.08567 10.8417 7.86814C13.3168 6.0307 16.2596 5.0596 19.3517 5.0596C22.529 5.0596 25.6299 6.12703 28.1282 8.07196C28.0612 8.47837 28.0244 8.89471 28.0244 9.31983C28.0244 12.7411 30.2803 15.6451 33.3827 16.6233C33.5561 17.5199 33.6438 18.4359 33.6438 19.3518C33.6438 23.8913 31.5163 27.9429 28.2061 30.5627C26.6884 27.7265 24.6301 26.2535 23.3442 25.5614C24.6772 24.5283 25.6003 22.9923 25.8272 21.2399C25.9133 21.2483 26.0002 21.2534 26.088 21.2534C27.5356 21.2534 28.7133 20.0757 28.7133 18.6281C28.7133 17.4481 27.9308 16.4477 26.8574 16.118C26.8937 16.0294 26.9112 15.9333 26.9064 15.8358C26.7585 12.8443 25.9492 10.6052 24.5008 9.18053C23.2432 7.94338 21.5107 7.3161 19.3516 7.3161C17.1925 7.3161 15.46 7.94338 14.2023 9.18053C12.7541 10.6052 11.9448 12.8443 11.7969 15.8358C11.792 15.9333 11.8096 16.0294 11.8458 16.118C10.7725 16.4477 9.98991 17.448 9.98991 18.6281C9.98991 20.0757 11.1676 21.2534 12.6152 21.2534C12.703 21.2534 12.7898 21.2483 12.8761 21.2399C13.1029 22.9923 14.0259 24.5283 15.3591 25.5614C14.0731 26.2535 12.0147 27.7265 10.4971 30.5628C7.18708 27.943 5.05942 23.8914 5.05942 19.3518C5.05942 15.6918 6.4415 12.2105 8.95113 9.54888C9.20136 9.28345 9.18914 8.86544 8.92371 8.61522C8.65828 8.3649 8.24027 8.37729 7.99014 8.64264C5.24848 11.5503 3.73852 15.3535 3.73852 19.3518C3.73852 27.961 10.7425 34.9649 19.3516 34.9649C27.9607 34.9649 34.9647 27.9609 34.9647 19.3518C34.9647 18.5381 34.9001 17.7244 34.7745 16.9218C35.0716 16.957 35.3737 16.9756 35.6802 16.9756C36.2023 16.9756 36.712 16.9219 37.205 16.8218C37.3222 17.6576 37.3823 18.5055 37.3823 19.3518C37.3823 29.2939 29.2939 37.3825 19.3517 37.3825C15.7383 37.3825 12.2525 36.3178 9.27097 34.3035C8.96862 34.0994 8.55817 34.1788 8.35392 34.4811C8.14975 34.7833 8.2292 35.194 8.53146 35.3981C11.7322 37.5605 15.4738 38.7035 19.3517 38.7035C23.4515 38.7035 27.3561 37.436 30.62 35.0883L32.5557 37.024C32.298 37.282 32.2981 37.7 32.556 37.9578L38.4797 43.8814C39.2011 44.6028 40.1602 45.0001 41.1805 45.0001C42.2008 45.0001 43.1598 44.6027 43.8813 43.8814C45.3705 42.3922 45.3705 39.9691 43.8813 38.4798L37.9577 32.556ZM25.8834 17.3394C25.9505 17.3289 26.0188 17.3236 26.088 17.3236C26.8073 17.3236 27.3924 17.9088 27.3924 18.628C27.3924 19.3473 26.8073 19.9324 26.088 19.9324C26.0188 19.9324 25.9505 19.9271 25.8834 19.9165V17.3394ZM12.82 19.9165C12.7528 19.9271 12.6846 19.9324 12.6153 19.9324C11.8961 19.9324 11.3109 19.3472 11.3109 18.628C11.3109 17.9088 11.8961 17.3236 12.6153 17.3236C12.6846 17.3236 12.7528 17.3289 12.82 17.3394V19.9165ZM13.1641 15.2079C13.5601 10.7881 15.5892 8.63692 19.3517 8.63692C23.1142 8.63692 25.1432 10.7881 25.5393 15.2079H22.3769V12.9622C22.3769 11.294 21.0197 9.93683 19.3515 9.93683C17.6833 9.93683 16.3261 11.294 16.3261 12.9623V15.2079H13.1641ZM21.056 13.908V15.2079H17.647V13.908H21.056ZM17.69 12.5871C17.8616 11.8274 18.5407 11.2577 19.3515 11.2577C20.1623 11.2577 20.8415 11.8274 21.013 12.5871H17.69ZM14.1409 20.3973V20.3923V16.5288H24.5624V20.3923V20.3973C24.5624 23.2705 22.2249 25.6081 19.3517 25.6081C16.4784 25.6081 14.1409 23.2705 14.1409 20.3973ZM21.1324 26.6803C21.0878 26.8596 21.0311 27.0485 20.9584 27.2359C20.4416 28.5677 19.6211 28.5677 19.3515 28.5677C19.0818 28.5677 18.2614 28.5677 17.7446 27.2359C17.6719 27.0484 17.6152 26.8596 17.5706 26.6802C18.1372 26.841 18.7342 26.9291 19.3518 26.9291C19.9691 26.929 20.566 26.8411 21.1324 26.6803ZM19.3517 33.6439C16.4881 33.6439 13.819 32.7967 11.5805 31.3408C13.0358 28.5354 15.1031 27.1774 16.1981 26.6201C16.4781 28.08 17.3441 29.8887 19.3515 29.8887C21.3607 29.8887 22.2265 28.0769 22.5057 26.6164C23.5984 27.1676 25.6603 28.5172 27.123 31.3407C24.8845 32.7966 22.2153 33.6439 19.3517 33.6439ZM29.3453 9.31975C29.3453 6.04978 31.8359 3.35074 35.0198 3.01939V9.31975C35.0198 9.68449 35.3154 9.98024 35.6803 9.98024H41.9807C41.6493 13.1641 38.9503 15.6546 35.6803 15.6546C32.1871 15.6546 29.3453 12.8128 29.3453 9.31975ZM31.6743 34.2743C32.1441 33.8849 32.5985 33.4723 33.0354 33.0354C33.4723 32.5986 33.885 32.1441 34.2743 31.6744L36.0898 33.4898L33.4898 36.0898L31.6743 34.2743ZM42.9472 42.9472C42.4753 43.4191 41.8479 43.679 41.1805 43.679C40.5131 43.679 39.8856 43.4191 39.4138 42.9472L33.9571 37.4905L37.4905 33.9571L42.9471 39.4138C43.9214 40.3879 43.9214 41.973 42.9472 42.9472Z" fill="#3D8568"/>
<path d="M16.7511 19.8893C17.1158 19.8893 17.4116 19.5936 17.4116 19.2288V18.2778C17.4116 17.9131 17.1158 17.6173 16.7511 17.6173C16.3863 17.6173 16.0906 17.913 16.0906 18.2778V19.2288C16.0906 19.5936 16.3862 19.8893 16.7511 19.8893Z" fill="#3D8568"/>
<path d="M21.9527 19.8893C22.3175 19.8893 22.6132 19.5936 22.6132 19.2288V18.2778C22.6132 17.9131 22.3175 17.6173 21.9527 17.6173C21.588 17.6173 21.2922 17.913 21.2922 18.2778V19.2288C21.2922 19.5936 21.588 19.8893 21.9527 19.8893Z" fill="#3D8568"/>
<path d="M17.2131 22.3471L17.2127 22.3473C17.3994 22.8008 18.06 23.5684 19.3513 23.5684C20.6427 23.5684 21.3033 22.8008 21.49 22.3473L21.4896 22.3471C21.6844 21.925 21.3501 21.4085 20.8819 21.4194C20.6056 21.4194 20.369 21.5884 20.2694 21.8285C20.2403 21.885 20.0296 22.2423 19.3513 22.2423C18.6729 22.2423 18.4622 21.885 18.4332 21.8285C18.3335 21.5883 18.0969 21.4194 17.8206 21.4194C17.3526 21.4085 17.0182 21.925 17.2131 22.3471Z" fill="#3D8568"/>
</g>
<defs>
<clipPath id="clip0">
<rect width="45" height="45" fill="white"/>
</clipPath>
</defs>
</symbol>

<symbol width="45" height="45" viewBox="0 0 45 45" id='itemResearch' fill="none" xmlns="http://www.w3.org/2000/symbol">
<path d="M22.1487 8.95919C20.5832 9.86319 19.3208 11.2111 18.5213 12.8326C17.7218 14.454 17.4211 16.2761 17.6571 18.0684C17.8932 19.8608 18.6554 21.5429 19.8474 22.902C21.0394 24.2612 22.6077 25.2363 24.354 25.7042C26.1002 26.172 27.9459 26.1116 29.6578 25.5304C31.3697 24.9493 32.8708 23.8736 33.9713 22.4393C35.0718 21.0051 35.7223 19.2767 35.8405 17.4727C35.9588 15.6688 35.5394 13.8703 34.6355 12.3047C33.4212 10.2074 31.4247 8.67737 29.0838 8.05021C26.7429 7.42304 24.2489 7.74994 22.1487 8.95919ZM33.417 13.0078C34.0161 14.039 34.3686 15.1948 34.4469 16.3849C34.5252 17.5749 34.3273 18.767 33.8686 19.8678C33.4099 20.9687 32.7028 21.9486 31.8026 22.7309C30.9024 23.5132 29.8335 24.0767 28.6794 24.3774C27.5253 24.6781 26.3173 24.7079 25.1498 24.4643C23.9823 24.2208 22.8869 23.7105 21.9493 22.9735C21.0117 22.2364 20.2573 21.2925 19.7449 20.2156C19.2326 19.1386 18.9762 17.9577 18.9959 16.7653L21.9743 19.5497C21.8283 19.8793 21.7693 20.2409 21.8028 20.5999C21.8363 20.9589 21.9613 21.3034 22.1658 21.6003C22.3703 21.8973 22.6475 22.1369 22.971 22.2962C23.2944 22.4555 23.6533 22.5292 24.0134 22.5104C24.3735 22.4915 24.7227 22.3807 25.0277 22.1884C25.3328 21.9962 25.5834 21.7289 25.7558 21.4122C25.9281 21.0955 26.0164 20.7399 26.0122 20.3794C26.0081 20.0188 25.9115 19.6654 25.7318 19.3528L28.8643 15.3506C29.0788 15.4261 29.3042 15.466 29.5315 15.4687C29.9487 15.4687 30.3566 15.345 30.7034 15.1132C31.0503 14.8814 31.3207 14.552 31.4803 14.1666C31.64 13.7811 31.6818 13.357 31.6004 12.9478C31.519 12.5386 31.3181 12.1628 31.0231 11.8678C30.7281 11.5728 30.3522 11.3719 29.9431 11.2905C29.5339 11.2091 29.1098 11.2509 28.7243 11.4105C28.3389 11.5702 28.0094 11.8406 27.7777 12.1874C27.5459 12.5343 27.4222 12.9422 27.4222 13.3593C27.4234 13.7585 27.5391 14.1489 27.7554 14.4843L24.6694 18.4268C24.3917 18.3143 24.0925 18.2647 23.7933 18.2816C23.4941 18.2985 23.2024 18.3815 22.939 18.5245L19.2125 15.0419C19.5766 13.5412 20.382 12.184 21.5247 11.1454C22.6675 10.1068 24.0953 9.43437 25.6239 9.21492C27.1524 8.99547 28.7117 9.23904 30.1005 9.91422C31.4893 10.5894 32.644 11.6652 33.4156 13.0029L33.417 13.0078ZM24.6097 20.3906C24.6097 20.5297 24.5684 20.6656 24.4912 20.7812C24.4139 20.8969 24.3041 20.987 24.1756 21.0402C24.0471 21.0934 23.9058 21.1073 23.7694 21.0802C23.633 21.0531 23.5077 20.9861 23.4094 20.8878C23.311 20.7894 23.2441 20.6642 23.2169 20.5278C23.1898 20.3914 23.2037 20.25 23.2569 20.1215C23.3102 19.993 23.4003 19.8832 23.5159 19.806C23.6315 19.7287 23.7675 19.6875 23.9065 19.6875C24.093 19.6875 24.2719 19.7616 24.4037 19.8934C24.5356 20.0253 24.6097 20.2041 24.6097 20.3906ZM28.8284 13.3593C28.8284 13.2203 28.8696 13.0843 28.9469 12.9687C29.0242 12.8531 29.134 12.763 29.2625 12.7097C29.3909 12.6565 29.5323 12.6426 29.6687 12.6697C29.8051 12.6969 29.9304 12.7638 30.0287 12.8622C30.1271 12.9605 30.194 13.0858 30.2212 13.2222C30.2483 13.3586 30.2344 13.4999 30.1811 13.6284C30.1279 13.7569 30.0378 13.8667 29.9222 13.944C29.8065 14.0212 29.6706 14.0625 29.5315 14.0625C29.3451 14.0625 29.1662 13.9884 29.0344 13.8565C28.9025 13.7247 28.8284 13.5458 28.8284 13.3593Z" fill="#3D8568"/>
<path d="M42.7106 37.5469L37.8492 29.122C37.756 28.9605 37.6024 28.8427 37.4223 28.7944C37.2422 28.7462 37.0502 28.7715 36.8888 28.8647L36.2798 29.2162L34.4229 26.0009C35.8093 24.8344 36.9118 23.3676 37.6469 21.7117C38.382 20.0557 38.7303 18.2541 38.6654 16.4435C38.6006 14.6328 38.1242 12.8608 37.2726 11.2616C36.4209 9.6625 35.2163 8.27832 33.75 7.21406V2.10938C33.75 1.92289 33.6759 1.74405 33.5441 1.61219C33.4122 1.48033 33.2334 1.40625 33.0469 1.40625H9.14062C8.95416 1.40629 8.77535 1.48039 8.64352 1.61227L1.61227 8.64352C1.48039 8.77535 1.40629 8.95416 1.40625 9.14062V42.8906C1.40625 43.0771 1.48033 43.2559 1.61219 43.3878C1.74405 43.5197 1.92289 43.5938 2.10938 43.5938H33.0469C33.2334 43.5938 33.4122 43.5197 33.5441 43.3878C33.6759 43.2559 33.75 43.0771 33.75 42.8906V36.0851L36.6216 41.0625C36.8507 41.4656 37.1573 41.8193 37.5238 42.1034C37.8902 42.3874 38.3092 42.5962 38.7566 42.7177C39.2041 42.8392 39.6711 42.8709 40.1309 42.8112C40.5907 42.7514 41.0341 42.6013 41.4356 42.3695C41.8371 42.1377 42.1888 41.8287 42.4705 41.4604C42.7521 41.0921 42.9581 40.6717 43.0766 40.2235C43.1951 39.7752 43.2238 39.308 43.161 38.8486C43.0982 38.3893 42.9451 37.9468 42.7106 37.5469ZM35.062 29.9194L33.8442 30.6225L32.0752 27.5583C32.2861 27.4535 32.4914 27.3473 32.6953 27.2271C32.8992 27.1069 33.0905 26.9733 33.2866 26.8446L35.062 29.9194ZM35.8523 11.6016C37.0797 13.7209 37.5337 16.2004 37.1372 18.6172C36.7406 21.0339 35.5179 23.2383 33.6776 24.8543C31.8374 26.4703 29.4935 27.3978 27.0457 27.4787C24.598 27.5596 22.198 26.7889 20.255 25.2979C18.312 23.807 16.9464 21.6882 16.3911 19.3029C15.8358 16.9176 16.1252 14.4136 17.2099 12.2178C18.2945 10.022 20.1074 8.27049 22.3392 7.26197C24.571 6.25346 27.0835 6.0504 29.4483 6.68742C32.1496 7.41263 34.4528 9.17998 35.8523 11.6016ZM8.4375 3.80672V8.4375H3.80672L8.4375 3.80672ZM32.3438 42.1875H2.8125V9.84375H9.14062C9.32711 9.84375 9.50595 9.76967 9.63781 9.63781C9.76967 9.50595 9.84375 9.32711 9.84375 9.14062V2.8125H32.3438V6.33727C31.541 5.9062 30.6918 5.56793 29.8125 5.32898C27.0835 4.59404 24.1822 4.85287 21.6264 6.05928C19.0706 7.2657 17.0267 9.34116 15.8597 11.9152L15.2923 11.3864C15.4447 11.0409 15.5016 10.6607 15.4569 10.2857C15.4123 9.91066 15.2677 9.5545 15.0384 9.25439C14.8091 8.95429 14.5035 8.72126 14.1534 8.57963C13.8032 8.43799 13.4215 8.39296 13.0481 8.44923C12.6746 8.5055 12.3231 8.66101 12.0302 8.89951C11.7374 9.13802 11.514 9.45077 11.3833 9.80511C11.2526 10.1595 11.2194 10.5424 11.2873 10.9139C11.3551 11.2855 11.5214 11.632 11.7689 11.9173L8.10563 18.3157C7.98311 18.2935 7.85889 18.282 7.73438 18.2812C7.31718 18.2812 6.90935 18.405 6.56247 18.6367C6.21558 18.8685 5.94522 19.198 5.78557 19.5834C5.62591 19.9688 5.58414 20.393 5.66553 20.8021C5.74692 21.2113 5.94782 21.5872 6.24282 21.8822C6.53782 22.1772 6.91368 22.3781 7.32286 22.4595C7.73204 22.5409 8.15616 22.4991 8.5416 22.3394C8.92704 22.1798 9.25647 21.9094 9.48826 21.5625C9.72004 21.2156 9.84375 20.8078 9.84375 20.3906C9.8418 19.8862 9.6575 19.3995 9.32484 19.0202L12.9881 12.6218C13.1106 12.644 13.2349 12.6555 13.3594 12.6562C13.6973 12.6539 14.0296 12.5695 14.3276 12.4102L15.3218 13.3355C14.8405 14.8707 14.675 16.4874 14.8351 18.0883C14.9952 19.6891 15.4777 21.241 16.2535 22.6505C17.0293 24.06 18.0823 25.2978 19.3492 26.2895C20.616 27.2813 22.0705 28.0063 23.625 28.421C24.6401 28.6938 25.6866 28.8323 26.7377 28.833C28.1145 28.8315 29.4804 28.5892 30.7737 28.1173L32.625 31.3263L32.0168 31.6779C31.8553 31.7711 31.7375 31.9247 31.6892 32.1048C31.6409 32.285 31.6662 32.4769 31.7595 32.6384L32.3438 33.6488V42.1875ZM12.6562 10.5469C12.6562 10.4078 12.6975 10.2719 12.7747 10.1562C12.852 10.0406 12.9618 9.95049 13.0903 9.89727C13.2188 9.84405 13.3602 9.83013 13.4965 9.85726C13.6329 9.88439 13.7582 9.95136 13.8566 10.0497C13.9549 10.148 14.0219 10.2733 14.049 10.4097C14.0761 10.5461 14.0622 10.6875 14.009 10.8159C13.9558 10.9444 13.8656 11.0542 13.75 11.1315C13.6344 11.2088 13.4984 11.25 13.3594 11.25C13.1729 11.25 12.9941 11.1759 12.8622 11.0441C12.7303 10.9122 12.6562 10.7334 12.6562 10.5469ZM8.4375 20.3906C8.4375 20.5297 8.39626 20.6656 8.319 20.7813C8.24174 20.8969 8.13193 20.987 8.00345 21.0402C7.87497 21.0934 7.73359 21.1074 7.5972 21.0802C7.46081 21.0531 7.33552 20.9861 7.23719 20.8878C7.13886 20.7895 7.07189 20.6642 7.04476 20.5278C7.01763 20.3914 7.03155 20.25 7.08477 20.1216C7.13799 19.9931 7.22811 19.8833 7.34374 19.806C7.45937 19.7287 7.59531 19.6875 7.73438 19.6875C7.92086 19.6875 8.0997 19.7616 8.23156 19.8934C8.36342 20.0253 8.4375 20.2041 8.4375 20.3906ZM41.7038 39.8468C41.5963 40.2506 41.3714 40.6134 41.0575 40.8892C40.7436 41.165 40.3548 41.3413 39.9406 41.3959C39.5263 41.4504 39.1052 41.3807 38.7306 41.1955C38.356 41.0103 38.0448 40.7181 37.8366 40.3559L33.3281 32.5441L36.9844 30.4348L41.4928 38.25C41.6314 38.4891 41.7214 38.7533 41.7576 39.0274C41.7938 39.3014 41.7755 39.5799 41.7038 39.8468Z" fill="#3D8568"/>
<path d="M28.8281 39.375H28.125V33.0469C28.125 32.8604 28.0509 32.6816 27.9191 32.5497C27.7872 32.4178 27.6084 32.3438 27.4219 32.3438H24.6094C24.4229 32.3438 24.2441 32.4178 24.1122 32.5497C23.9803 32.6816 23.9062 32.8604 23.9062 33.0469V39.375H22.5V30.2344C22.5 30.0479 22.4259 29.8691 22.2941 29.7372C22.1622 29.6053 21.9834 29.5312 21.7969 29.5312H18.9844C18.7979 29.5312 18.6191 29.6053 18.4872 29.7372C18.3553 29.8691 18.2812 30.0479 18.2812 30.2344V39.375H16.875V33.0469C16.875 32.8604 16.8009 32.6816 16.6691 32.5497C16.5372 32.4178 16.3584 32.3438 16.1719 32.3438H13.3594C13.1729 32.3438 12.9941 32.4178 12.8622 32.5497C12.7303 32.6816 12.6562 32.8604 12.6562 33.0469V39.375H11.25V35.8594C11.25 35.6729 11.1759 35.4941 11.0441 35.3622C10.9122 35.2303 10.7334 35.1562 10.5469 35.1562H7.73438C7.54789 35.1562 7.36905 35.2303 7.23719 35.3622C7.10533 35.4941 7.03125 35.6729 7.03125 35.8594V39.375H6.32812C6.14164 39.375 5.9628 39.4491 5.83094 39.5809C5.69908 39.7128 5.625 39.8916 5.625 40.0781C5.625 40.2646 5.69908 40.4434 5.83094 40.5753C5.9628 40.7072 6.14164 40.7812 6.32812 40.7812H28.8281C29.0146 40.7812 29.1934 40.7072 29.3253 40.5753C29.4572 40.4434 29.5312 40.2646 29.5312 40.0781C29.5312 39.8916 29.4572 39.7128 29.3253 39.5809C29.1934 39.4491 29.0146 39.375 28.8281 39.375ZM8.4375 39.375V36.5625H9.84375V39.375H8.4375ZM14.0625 39.375V33.75H15.4688V39.375H14.0625ZM19.6875 39.375V30.9375H21.0938V39.375H19.6875ZM25.3125 39.375V33.75H26.7188V39.375H25.3125Z" fill="#3D8568"/>
<path d="M5.625 26.7188H14.0625C14.249 26.7188 14.4278 26.6447 14.5597 26.5128C14.6915 26.3809 14.7656 26.2021 14.7656 26.0156C14.7656 25.8291 14.6915 25.6503 14.5597 25.5184C14.4278 25.3866 14.249 25.3125 14.0625 25.3125H5.625C5.43852 25.3125 5.25968 25.3866 5.12782 25.5184C4.99595 25.6503 4.92188 25.8291 4.92188 26.0156C4.92188 26.2021 4.99595 26.3809 5.12782 26.5128C5.25968 26.6447 5.43852 26.7188 5.625 26.7188Z" fill="#3D8568"/>
<path d="M14.0625 29.5312C14.249 29.5312 14.4278 29.4572 14.5597 29.3253C14.6915 29.1934 14.7656 29.0146 14.7656 28.8281C14.7656 28.6416 14.6915 28.4628 14.5597 28.3309C14.4278 28.1991 14.249 28.125 14.0625 28.125H5.625C5.43852 28.125 5.25968 28.1991 5.12782 28.3309C4.99595 28.4628 4.92188 28.6416 4.92188 28.8281C4.92188 29.0146 4.99595 29.1934 5.12782 29.3253C5.25968 29.4572 5.43852 29.5312 5.625 29.5312H14.0625Z" fill="#3D8568"/>
</symbol>


</svg>